<mxfile host="app.diagrams.net" agent="Mozilla/5.0 (Macintosh; Intel Mac OS X 10_15_7) AppleWebKit/537.36 (KHTML, like Gecko) Chrome/140.0.0.0 Safari/537.36" version="28.2.8">
  <diagram name="P3" id="7wtWJZT1AU6YCFraTmL_">
    <mxGraphModel grid="1" page="1" gridSize="10" guides="1" tooltips="1" connect="1" arrows="1" fold="1" pageScale="1" pageWidth="3300" pageHeight="4681" math="0" shadow="0">
      <root>
        <mxCell id="Oy-TWGADdTAekCu63_Ab-0" />
        <mxCell id="Oy-TWGADdTAekCu63_Ab-1" parent="Oy-TWGADdTAekCu63_Ab-0" />
        <mxCell id="GWtwd3Tiu07Vp1fqFDIl-233" style="edgeStyle=orthogonalEdgeStyle;rounded=0;orthogonalLoop=1;jettySize=auto;html=1;endArrow=ERoneToMany;endFill=0;startArrow=ERmandOne;startFill=0;" edge="1" parent="Oy-TWGADdTAekCu63_Ab-1" source="Oy-TWGADdTAekCu63_Ab-3" target="Oy-TWGADdTAekCu63_Ab-216">
          <mxGeometry relative="1" as="geometry" />
        </mxCell>
        <mxCell id="GWtwd3Tiu07Vp1fqFDIl-252" value="Can be" style="edgeLabel;html=1;align=center;verticalAlign=middle;resizable=0;points=[];" connectable="0" vertex="1" parent="GWtwd3Tiu07Vp1fqFDIl-233">
          <mxGeometry x="0.1" y="3" relative="1" as="geometry">
            <mxPoint as="offset" />
          </mxGeometry>
        </mxCell>
        <mxCell id="GWtwd3Tiu07Vp1fqFDIl-236" style="edgeStyle=orthogonalEdgeStyle;rounded=0;orthogonalLoop=1;jettySize=auto;html=1;endArrow=ERoneToMany;endFill=0;startArrow=ERmandOne;startFill=0;" edge="1" parent="Oy-TWGADdTAekCu63_Ab-1" source="Oy-TWGADdTAekCu63_Ab-3" target="Oy-TWGADdTAekCu63_Ab-32">
          <mxGeometry relative="1" as="geometry">
            <Array as="points">
              <mxPoint x="1910" y="655" />
            </Array>
          </mxGeometry>
        </mxCell>
        <mxCell id="GWtwd3Tiu07Vp1fqFDIl-251" value="Can be" style="edgeLabel;html=1;align=center;verticalAlign=middle;resizable=0;points=[];" connectable="0" vertex="1" parent="GWtwd3Tiu07Vp1fqFDIl-236">
          <mxGeometry x="-0.1786" y="1" relative="1" as="geometry">
            <mxPoint as="offset" />
          </mxGeometry>
        </mxCell>
        <mxCell id="KH00YTPOxJegBAQQi8B_-53" style="edgeStyle=orthogonalEdgeStyle;rounded=0;orthogonalLoop=1;jettySize=auto;html=1;endArrow=ERoneToMany;endFill=0;startArrow=ERmandOne;startFill=0;" edge="1" parent="Oy-TWGADdTAekCu63_Ab-1" source="Oy-TWGADdTAekCu63_Ab-3" target="Oy-TWGADdTAekCu63_Ab-40">
          <mxGeometry relative="1" as="geometry" />
        </mxCell>
        <mxCell id="E_gk8uqh9hdK-n0yhKz7-0" value="Can be" style="edgeLabel;html=1;align=center;verticalAlign=middle;resizable=0;points=[];" connectable="0" vertex="1" parent="KH00YTPOxJegBAQQi8B_-53">
          <mxGeometry x="-0.7407" y="3" relative="1" as="geometry">
            <mxPoint y="-1" as="offset" />
          </mxGeometry>
        </mxCell>
        <mxCell id="Oy-TWGADdTAekCu63_Ab-3" value="EXPENSE" style="shape=table;startSize=30;container=1;collapsible=1;childLayout=tableLayout;fixedRows=1;rowLines=0;fontStyle=1;align=center;resizeLast=1;html=1;" vertex="1" parent="Oy-TWGADdTAekCu63_Ab-1">
          <mxGeometry x="1970" y="580" width="210" height="150" as="geometry" />
        </mxCell>
        <mxCell id="Oy-TWGADdTAekCu63_Ab-4" value="" style="shape=tableRow;horizontal=0;startSize=0;swimlaneHead=0;swimlaneBody=0;fillColor=none;collapsible=0;dropTarget=0;points=[[0,0.5],[1,0.5]];portConstraint=eastwest;top=0;left=0;right=0;bottom=1;" vertex="1" parent="Oy-TWGADdTAekCu63_Ab-3">
          <mxGeometry y="30" width="210" height="30" as="geometry" />
        </mxCell>
        <mxCell id="Oy-TWGADdTAekCu63_Ab-5" value="PK" style="shape=partialRectangle;connectable=0;fillColor=none;top=0;left=0;bottom=0;right=0;fontStyle=1;overflow=hidden;whiteSpace=wrap;html=1;" vertex="1" parent="Oy-TWGADdTAekCu63_Ab-4">
          <mxGeometry width="30" height="30" as="geometry">
            <mxRectangle width="30" height="30" as="alternateBounds" />
          </mxGeometry>
        </mxCell>
        <mxCell id="Oy-TWGADdTAekCu63_Ab-6" value="expense id" style="shape=partialRectangle;connectable=0;fillColor=none;top=0;left=0;bottom=0;right=0;align=left;spacingLeft=6;fontStyle=5;overflow=hidden;whiteSpace=wrap;html=1;" vertex="1" parent="Oy-TWGADdTAekCu63_Ab-4">
          <mxGeometry x="30" width="100" height="30" as="geometry">
            <mxRectangle width="100" height="30" as="alternateBounds" />
          </mxGeometry>
        </mxCell>
        <mxCell id="KH00YTPOxJegBAQQi8B_-38" value="int" style="shape=partialRectangle;connectable=0;fillColor=none;top=0;left=0;bottom=0;right=0;align=left;spacingLeft=6;fontStyle=5;overflow=hidden;whiteSpace=wrap;html=1;" vertex="1" parent="Oy-TWGADdTAekCu63_Ab-4">
          <mxGeometry x="130" width="80" height="30" as="geometry">
            <mxRectangle width="80" height="30" as="alternateBounds" />
          </mxGeometry>
        </mxCell>
        <mxCell id="Oy-TWGADdTAekCu63_Ab-10" style="shape=tableRow;horizontal=0;startSize=0;swimlaneHead=0;swimlaneBody=0;fillColor=none;collapsible=0;dropTarget=0;points=[[0,0.5],[1,0.5]];portConstraint=eastwest;top=0;left=0;right=0;bottom=0;" vertex="1" parent="Oy-TWGADdTAekCu63_Ab-3">
          <mxGeometry y="60" width="210" height="30" as="geometry" />
        </mxCell>
        <mxCell id="Oy-TWGADdTAekCu63_Ab-11" style="shape=partialRectangle;connectable=0;fillColor=none;top=0;left=0;bottom=0;right=0;editable=1;overflow=hidden;whiteSpace=wrap;html=1;" vertex="1" parent="Oy-TWGADdTAekCu63_Ab-10">
          <mxGeometry width="30" height="30" as="geometry">
            <mxRectangle width="30" height="30" as="alternateBounds" />
          </mxGeometry>
        </mxCell>
        <mxCell id="Oy-TWGADdTAekCu63_Ab-12" value="expense_date" style="shape=partialRectangle;connectable=0;fillColor=none;top=0;left=0;bottom=0;right=0;align=left;spacingLeft=6;overflow=hidden;whiteSpace=wrap;html=1;" vertex="1" parent="Oy-TWGADdTAekCu63_Ab-10">
          <mxGeometry x="30" width="100" height="30" as="geometry">
            <mxRectangle width="100" height="30" as="alternateBounds" />
          </mxGeometry>
        </mxCell>
        <mxCell id="KH00YTPOxJegBAQQi8B_-39" value="varchar(20)" style="shape=partialRectangle;connectable=0;fillColor=none;top=0;left=0;bottom=0;right=0;align=left;spacingLeft=6;overflow=hidden;whiteSpace=wrap;html=1;" vertex="1" parent="Oy-TWGADdTAekCu63_Ab-10">
          <mxGeometry x="130" width="80" height="30" as="geometry">
            <mxRectangle width="80" height="30" as="alternateBounds" />
          </mxGeometry>
        </mxCell>
        <mxCell id="Oy-TWGADdTAekCu63_Ab-13" value="" style="shape=tableRow;horizontal=0;startSize=0;swimlaneHead=0;swimlaneBody=0;fillColor=none;collapsible=0;dropTarget=0;points=[[0,0.5],[1,0.5]];portConstraint=eastwest;top=0;left=0;right=0;bottom=0;" vertex="1" parent="Oy-TWGADdTAekCu63_Ab-3">
          <mxGeometry y="90" width="210" height="30" as="geometry" />
        </mxCell>
        <mxCell id="Oy-TWGADdTAekCu63_Ab-14" value="" style="shape=partialRectangle;connectable=0;fillColor=none;top=0;left=0;bottom=0;right=0;editable=1;overflow=hidden;whiteSpace=wrap;html=1;" vertex="1" parent="Oy-TWGADdTAekCu63_Ab-13">
          <mxGeometry width="30" height="30" as="geometry">
            <mxRectangle width="30" height="30" as="alternateBounds" />
          </mxGeometry>
        </mxCell>
        <mxCell id="Oy-TWGADdTAekCu63_Ab-15" value="amount" style="shape=partialRectangle;connectable=0;fillColor=none;top=0;left=0;bottom=0;right=0;align=left;spacingLeft=6;overflow=hidden;whiteSpace=wrap;html=1;" vertex="1" parent="Oy-TWGADdTAekCu63_Ab-13">
          <mxGeometry x="30" width="100" height="30" as="geometry">
            <mxRectangle width="100" height="30" as="alternateBounds" />
          </mxGeometry>
        </mxCell>
        <mxCell id="KH00YTPOxJegBAQQi8B_-40" value="int" style="shape=partialRectangle;connectable=0;fillColor=none;top=0;left=0;bottom=0;right=0;align=left;spacingLeft=6;overflow=hidden;whiteSpace=wrap;html=1;" vertex="1" parent="Oy-TWGADdTAekCu63_Ab-13">
          <mxGeometry x="130" width="80" height="30" as="geometry">
            <mxRectangle width="80" height="30" as="alternateBounds" />
          </mxGeometry>
        </mxCell>
        <mxCell id="GWtwd3Tiu07Vp1fqFDIl-230" style="shape=tableRow;horizontal=0;startSize=0;swimlaneHead=0;swimlaneBody=0;fillColor=none;collapsible=0;dropTarget=0;points=[[0,0.5],[1,0.5]];portConstraint=eastwest;top=0;left=0;right=0;bottom=0;" vertex="1" parent="Oy-TWGADdTAekCu63_Ab-3">
          <mxGeometry y="120" width="210" height="30" as="geometry" />
        </mxCell>
        <mxCell id="GWtwd3Tiu07Vp1fqFDIl-231" value="FK" style="shape=partialRectangle;connectable=0;fillColor=none;top=0;left=0;bottom=0;right=0;editable=1;overflow=hidden;whiteSpace=wrap;html=1;" vertex="1" parent="GWtwd3Tiu07Vp1fqFDIl-230">
          <mxGeometry width="30" height="30" as="geometry">
            <mxRectangle width="30" height="30" as="alternateBounds" />
          </mxGeometry>
        </mxCell>
        <mxCell id="GWtwd3Tiu07Vp1fqFDIl-232" value="&lt;span style=&quot;text-align: center;&quot;&gt;restaurant_id&lt;/span&gt;" style="shape=partialRectangle;connectable=0;fillColor=none;top=0;left=0;bottom=0;right=0;align=left;spacingLeft=6;overflow=hidden;whiteSpace=wrap;html=1;" vertex="1" parent="GWtwd3Tiu07Vp1fqFDIl-230">
          <mxGeometry x="30" width="100" height="30" as="geometry">
            <mxRectangle width="100" height="30" as="alternateBounds" />
          </mxGeometry>
        </mxCell>
        <mxCell id="KH00YTPOxJegBAQQi8B_-41" value="int" style="shape=partialRectangle;connectable=0;fillColor=none;top=0;left=0;bottom=0;right=0;align=left;spacingLeft=6;overflow=hidden;whiteSpace=wrap;html=1;" vertex="1" parent="GWtwd3Tiu07Vp1fqFDIl-230">
          <mxGeometry x="130" width="80" height="30" as="geometry">
            <mxRectangle width="80" height="30" as="alternateBounds" />
          </mxGeometry>
        </mxCell>
        <mxCell id="Oy-TWGADdTAekCu63_Ab-19" value="VENDOR" style="shape=table;startSize=28;container=1;collapsible=1;childLayout=tableLayout;fixedRows=1;rowLines=0;fontStyle=1;align=center;resizeLast=1;html=1;fillColor=none;strokeColor=default;" vertex="1" parent="Oy-TWGADdTAekCu63_Ab-1">
          <mxGeometry x="1550" y="833.5" width="220" height="223" as="geometry" />
        </mxCell>
        <mxCell id="Oy-TWGADdTAekCu63_Ab-20" value="" style="shape=tableRow;horizontal=0;startSize=0;swimlaneHead=0;swimlaneBody=0;fillColor=none;collapsible=0;dropTarget=0;points=[[0,0.5],[1,0.5]];portConstraint=eastwest;top=0;left=0;right=0;bottom=1;strokeColor=default;" vertex="1" parent="Oy-TWGADdTAekCu63_Ab-19">
          <mxGeometry y="28" width="220" height="30" as="geometry" />
        </mxCell>
        <mxCell id="Oy-TWGADdTAekCu63_Ab-21" value="PK" style="shape=partialRectangle;connectable=0;fillColor=none;top=0;left=0;bottom=0;right=0;fontStyle=1;overflow=hidden;whiteSpace=wrap;html=1;strokeColor=default;" vertex="1" parent="Oy-TWGADdTAekCu63_Ab-20">
          <mxGeometry width="30" height="30" as="geometry">
            <mxRectangle width="30" height="30" as="alternateBounds" />
          </mxGeometry>
        </mxCell>
        <mxCell id="Oy-TWGADdTAekCu63_Ab-22" value="vendor id" style="shape=partialRectangle;connectable=0;fillColor=none;top=0;left=0;bottom=0;right=0;align=left;spacingLeft=6;fontStyle=5;overflow=hidden;whiteSpace=wrap;html=1;strokeColor=default;" vertex="1" parent="Oy-TWGADdTAekCu63_Ab-20">
          <mxGeometry x="30" width="100" height="30" as="geometry">
            <mxRectangle width="100" height="30" as="alternateBounds" />
          </mxGeometry>
        </mxCell>
        <mxCell id="LA_D0svQ92RpoAtAq2fH-13" value="&lt;span style=&quot;&quot;&gt;int&lt;/span&gt;" style="shape=partialRectangle;connectable=0;fillColor=none;top=0;left=0;bottom=0;right=0;align=left;spacingLeft=6;fontStyle=0;overflow=hidden;whiteSpace=wrap;html=1;strokeColor=default;" vertex="1" parent="Oy-TWGADdTAekCu63_Ab-20">
          <mxGeometry x="130" width="90" height="30" as="geometry">
            <mxRectangle width="90" height="30" as="alternateBounds" />
          </mxGeometry>
        </mxCell>
        <mxCell id="Oy-TWGADdTAekCu63_Ab-23" value="" style="shape=tableRow;horizontal=0;startSize=0;swimlaneHead=0;swimlaneBody=0;fillColor=none;collapsible=0;dropTarget=0;points=[[0,0.5],[1,0.5]];portConstraint=eastwest;top=0;left=0;right=0;bottom=0;strokeColor=default;" vertex="1" parent="Oy-TWGADdTAekCu63_Ab-19">
          <mxGeometry y="58" width="220" height="30" as="geometry" />
        </mxCell>
        <mxCell id="Oy-TWGADdTAekCu63_Ab-24" value="" style="shape=partialRectangle;connectable=0;fillColor=none;top=0;left=0;bottom=0;right=0;editable=1;overflow=hidden;whiteSpace=wrap;html=1;strokeColor=default;" vertex="1" parent="Oy-TWGADdTAekCu63_Ab-23">
          <mxGeometry width="30" height="30" as="geometry">
            <mxRectangle width="30" height="30" as="alternateBounds" />
          </mxGeometry>
        </mxCell>
        <mxCell id="Oy-TWGADdTAekCu63_Ab-25" value="vendor name" style="shape=partialRectangle;connectable=0;fillColor=none;top=0;left=0;bottom=0;right=0;align=left;spacingLeft=6;overflow=hidden;whiteSpace=wrap;html=1;strokeColor=default;" vertex="1" parent="Oy-TWGADdTAekCu63_Ab-23">
          <mxGeometry x="30" width="100" height="30" as="geometry">
            <mxRectangle width="100" height="30" as="alternateBounds" />
          </mxGeometry>
        </mxCell>
        <mxCell id="LA_D0svQ92RpoAtAq2fH-14" value="varchar(100)" style="shape=partialRectangle;connectable=0;fillColor=none;top=0;left=0;bottom=0;right=0;align=left;spacingLeft=6;overflow=hidden;whiteSpace=wrap;html=1;strokeColor=default;" vertex="1" parent="Oy-TWGADdTAekCu63_Ab-23">
          <mxGeometry x="130" width="90" height="30" as="geometry">
            <mxRectangle width="90" height="30" as="alternateBounds" />
          </mxGeometry>
        </mxCell>
        <mxCell id="Oy-TWGADdTAekCu63_Ab-26" value="" style="shape=tableRow;horizontal=0;startSize=0;swimlaneHead=0;swimlaneBody=0;fillColor=none;collapsible=0;dropTarget=0;points=[[0,0.5],[1,0.5]];portConstraint=eastwest;top=0;left=0;right=0;bottom=0;strokeColor=default;" vertex="1" parent="Oy-TWGADdTAekCu63_Ab-19">
          <mxGeometry y="88" width="220" height="30" as="geometry" />
        </mxCell>
        <mxCell id="Oy-TWGADdTAekCu63_Ab-27" value="" style="shape=partialRectangle;connectable=0;fillColor=none;top=0;left=0;bottom=0;right=0;editable=1;overflow=hidden;whiteSpace=wrap;html=1;strokeColor=default;" vertex="1" parent="Oy-TWGADdTAekCu63_Ab-26">
          <mxGeometry width="30" height="30" as="geometry">
            <mxRectangle width="30" height="30" as="alternateBounds" />
          </mxGeometry>
        </mxCell>
        <mxCell id="Oy-TWGADdTAekCu63_Ab-28" value="phone number" style="shape=partialRectangle;connectable=0;fillColor=none;top=0;left=0;bottom=0;right=0;align=left;spacingLeft=6;overflow=hidden;whiteSpace=wrap;html=1;strokeColor=default;" vertex="1" parent="Oy-TWGADdTAekCu63_Ab-26">
          <mxGeometry x="30" width="100" height="30" as="geometry">
            <mxRectangle width="100" height="30" as="alternateBounds" />
          </mxGeometry>
        </mxCell>
        <mxCell id="LA_D0svQ92RpoAtAq2fH-15" value="varchar(20)" style="shape=partialRectangle;connectable=0;fillColor=none;top=0;left=0;bottom=0;right=0;align=left;spacingLeft=6;overflow=hidden;whiteSpace=wrap;html=1;strokeColor=default;" vertex="1" parent="Oy-TWGADdTAekCu63_Ab-26">
          <mxGeometry x="130" width="90" height="30" as="geometry">
            <mxRectangle width="90" height="30" as="alternateBounds" />
          </mxGeometry>
        </mxCell>
        <mxCell id="Oy-TWGADdTAekCu63_Ab-29" style="shape=tableRow;horizontal=0;startSize=0;swimlaneHead=0;swimlaneBody=0;fillColor=none;collapsible=0;dropTarget=0;points=[[0,0.5],[1,0.5]];portConstraint=eastwest;top=0;left=0;right=0;bottom=0;strokeColor=default;" vertex="1" parent="Oy-TWGADdTAekCu63_Ab-19">
          <mxGeometry y="118" width="220" height="25" as="geometry" />
        </mxCell>
        <mxCell id="Oy-TWGADdTAekCu63_Ab-30" style="shape=partialRectangle;connectable=0;fillColor=none;top=0;left=0;bottom=0;right=0;editable=1;overflow=hidden;whiteSpace=wrap;html=1;strokeColor=default;" vertex="1" parent="Oy-TWGADdTAekCu63_Ab-29">
          <mxGeometry width="30" height="25" as="geometry">
            <mxRectangle width="30" height="25" as="alternateBounds" />
          </mxGeometry>
        </mxCell>
        <mxCell id="Oy-TWGADdTAekCu63_Ab-31" value="street" style="shape=partialRectangle;connectable=0;fillColor=none;top=0;left=0;bottom=0;right=0;align=left;spacingLeft=6;overflow=hidden;whiteSpace=wrap;html=1;strokeColor=default;" vertex="1" parent="Oy-TWGADdTAekCu63_Ab-29">
          <mxGeometry x="30" width="100" height="25" as="geometry">
            <mxRectangle width="100" height="25" as="alternateBounds" />
          </mxGeometry>
        </mxCell>
        <mxCell id="LA_D0svQ92RpoAtAq2fH-16" value="varchar(200)" style="shape=partialRectangle;connectable=0;fillColor=none;top=0;left=0;bottom=0;right=0;align=left;spacingLeft=6;overflow=hidden;whiteSpace=wrap;html=1;strokeColor=default;" vertex="1" parent="Oy-TWGADdTAekCu63_Ab-29">
          <mxGeometry x="130" width="90" height="25" as="geometry">
            <mxRectangle width="90" height="25" as="alternateBounds" />
          </mxGeometry>
        </mxCell>
        <mxCell id="LA_D0svQ92RpoAtAq2fH-6" style="shape=tableRow;horizontal=0;startSize=0;swimlaneHead=0;swimlaneBody=0;fillColor=none;collapsible=0;dropTarget=0;points=[[0,0.5],[1,0.5]];portConstraint=eastwest;top=0;left=0;right=0;bottom=0;strokeColor=default;" vertex="1" parent="Oy-TWGADdTAekCu63_Ab-19">
          <mxGeometry y="143" width="220" height="30" as="geometry" />
        </mxCell>
        <mxCell id="LA_D0svQ92RpoAtAq2fH-7" style="shape=partialRectangle;connectable=0;fillColor=none;top=0;left=0;bottom=0;right=0;editable=1;overflow=hidden;whiteSpace=wrap;html=1;strokeColor=default;" vertex="1" parent="LA_D0svQ92RpoAtAq2fH-6">
          <mxGeometry width="30" height="30" as="geometry">
            <mxRectangle width="30" height="30" as="alternateBounds" />
          </mxGeometry>
        </mxCell>
        <mxCell id="LA_D0svQ92RpoAtAq2fH-8" value="city" style="shape=partialRectangle;connectable=0;fillColor=none;top=0;left=0;bottom=0;right=0;align=left;spacingLeft=6;overflow=hidden;whiteSpace=wrap;html=1;strokeColor=default;" vertex="1" parent="LA_D0svQ92RpoAtAq2fH-6">
          <mxGeometry x="30" width="100" height="30" as="geometry">
            <mxRectangle width="100" height="30" as="alternateBounds" />
          </mxGeometry>
        </mxCell>
        <mxCell id="LA_D0svQ92RpoAtAq2fH-17" value="varchar(50)" style="shape=partialRectangle;connectable=0;fillColor=none;top=0;left=0;bottom=0;right=0;align=left;spacingLeft=6;overflow=hidden;whiteSpace=wrap;html=1;strokeColor=default;" vertex="1" parent="LA_D0svQ92RpoAtAq2fH-6">
          <mxGeometry x="130" width="90" height="30" as="geometry">
            <mxRectangle width="90" height="30" as="alternateBounds" />
          </mxGeometry>
        </mxCell>
        <mxCell id="LA_D0svQ92RpoAtAq2fH-10" style="shape=tableRow;horizontal=0;startSize=0;swimlaneHead=0;swimlaneBody=0;fillColor=none;collapsible=0;dropTarget=0;points=[[0,0.5],[1,0.5]];portConstraint=eastwest;top=0;left=0;right=0;bottom=0;strokeColor=default;" vertex="1" parent="Oy-TWGADdTAekCu63_Ab-19">
          <mxGeometry y="173" width="220" height="30" as="geometry" />
        </mxCell>
        <mxCell id="LA_D0svQ92RpoAtAq2fH-11" style="shape=partialRectangle;connectable=0;fillColor=none;top=0;left=0;bottom=0;right=0;editable=1;overflow=hidden;whiteSpace=wrap;html=1;strokeColor=default;" vertex="1" parent="LA_D0svQ92RpoAtAq2fH-10">
          <mxGeometry width="30" height="30" as="geometry">
            <mxRectangle width="30" height="30" as="alternateBounds" />
          </mxGeometry>
        </mxCell>
        <mxCell id="LA_D0svQ92RpoAtAq2fH-12" value="state" style="shape=partialRectangle;connectable=0;fillColor=none;top=0;left=0;bottom=0;right=0;align=left;spacingLeft=6;overflow=hidden;whiteSpace=wrap;html=1;strokeColor=default;" vertex="1" parent="LA_D0svQ92RpoAtAq2fH-10">
          <mxGeometry x="30" width="100" height="30" as="geometry">
            <mxRectangle width="100" height="30" as="alternateBounds" />
          </mxGeometry>
        </mxCell>
        <mxCell id="LA_D0svQ92RpoAtAq2fH-18" value="varchar(50)" style="shape=partialRectangle;connectable=0;fillColor=none;top=0;left=0;bottom=0;right=0;align=left;spacingLeft=6;overflow=hidden;whiteSpace=wrap;html=1;strokeColor=default;" vertex="1" parent="LA_D0svQ92RpoAtAq2fH-10">
          <mxGeometry x="130" width="90" height="30" as="geometry">
            <mxRectangle width="90" height="30" as="alternateBounds" />
          </mxGeometry>
        </mxCell>
        <mxCell id="LA_D0svQ92RpoAtAq2fH-3" style="shape=tableRow;horizontal=0;startSize=0;swimlaneHead=0;swimlaneBody=0;fillColor=none;collapsible=0;dropTarget=0;points=[[0,0.5],[1,0.5]];portConstraint=eastwest;top=0;left=0;right=0;bottom=0;strokeColor=default;" vertex="1" parent="Oy-TWGADdTAekCu63_Ab-19">
          <mxGeometry y="203" width="220" height="20" as="geometry" />
        </mxCell>
        <mxCell id="LA_D0svQ92RpoAtAq2fH-4" style="shape=partialRectangle;connectable=0;fillColor=none;top=0;left=0;bottom=0;right=0;editable=1;overflow=hidden;whiteSpace=wrap;html=1;strokeColor=default;" vertex="1" parent="LA_D0svQ92RpoAtAq2fH-3">
          <mxGeometry width="30" height="20" as="geometry">
            <mxRectangle width="30" height="20" as="alternateBounds" />
          </mxGeometry>
        </mxCell>
        <mxCell id="LA_D0svQ92RpoAtAq2fH-5" value="zip" style="shape=partialRectangle;connectable=0;fillColor=none;top=0;left=0;bottom=0;right=0;align=left;spacingLeft=6;overflow=hidden;whiteSpace=wrap;html=1;strokeColor=default;" vertex="1" parent="LA_D0svQ92RpoAtAq2fH-3">
          <mxGeometry x="30" width="100" height="20" as="geometry">
            <mxRectangle width="100" height="20" as="alternateBounds" />
          </mxGeometry>
        </mxCell>
        <mxCell id="LA_D0svQ92RpoAtAq2fH-19" value="varchar(10)" style="shape=partialRectangle;connectable=0;fillColor=none;top=0;left=0;bottom=0;right=0;align=left;spacingLeft=6;overflow=hidden;whiteSpace=wrap;html=1;strokeColor=default;" vertex="1" parent="LA_D0svQ92RpoAtAq2fH-3">
          <mxGeometry x="130" width="90" height="20" as="geometry">
            <mxRectangle width="90" height="20" as="alternateBounds" />
          </mxGeometry>
        </mxCell>
        <mxCell id="Oy-TWGADdTAekCu63_Ab-32" value="MAINTENANCE" style="shape=table;startSize=30;container=1;collapsible=1;childLayout=tableLayout;fixedRows=1;rowLines=0;fontStyle=1;align=center;resizeLast=1;html=1;" vertex="1" parent="Oy-TWGADdTAekCu63_Ab-1">
          <mxGeometry x="1800" y="930" width="220" height="120" as="geometry" />
        </mxCell>
        <mxCell id="Oy-TWGADdTAekCu63_Ab-33" value="" style="shape=tableRow;horizontal=0;startSize=0;swimlaneHead=0;swimlaneBody=0;fillColor=none;collapsible=0;dropTarget=0;points=[[0,0.5],[1,0.5]];portConstraint=eastwest;top=0;left=0;right=0;bottom=1;" vertex="1" parent="Oy-TWGADdTAekCu63_Ab-32">
          <mxGeometry y="30" width="220" height="30" as="geometry" />
        </mxCell>
        <mxCell id="Oy-TWGADdTAekCu63_Ab-34" value="PK" style="shape=partialRectangle;connectable=0;fillColor=none;top=0;left=0;bottom=0;right=0;fontStyle=1;overflow=hidden;whiteSpace=wrap;html=1;" vertex="1" parent="Oy-TWGADdTAekCu63_Ab-33">
          <mxGeometry width="30" height="30" as="geometry">
            <mxRectangle width="30" height="30" as="alternateBounds" />
          </mxGeometry>
        </mxCell>
        <mxCell id="Oy-TWGADdTAekCu63_Ab-35" value="service_id" style="shape=partialRectangle;connectable=0;fillColor=none;top=0;left=0;bottom=0;right=0;align=left;spacingLeft=6;fontStyle=5;overflow=hidden;whiteSpace=wrap;html=1;" vertex="1" parent="Oy-TWGADdTAekCu63_Ab-33">
          <mxGeometry x="30" width="110" height="30" as="geometry">
            <mxRectangle width="110" height="30" as="alternateBounds" />
          </mxGeometry>
        </mxCell>
        <mxCell id="KH00YTPOxJegBAQQi8B_-45" value="int" style="shape=partialRectangle;connectable=0;fillColor=none;top=0;left=0;bottom=0;right=0;align=left;spacingLeft=6;fontStyle=5;overflow=hidden;whiteSpace=wrap;html=1;" vertex="1" parent="Oy-TWGADdTAekCu63_Ab-33">
          <mxGeometry x="140" width="80" height="30" as="geometry">
            <mxRectangle width="80" height="30" as="alternateBounds" />
          </mxGeometry>
        </mxCell>
        <mxCell id="Oy-TWGADdTAekCu63_Ab-36" style="shape=tableRow;horizontal=0;startSize=0;swimlaneHead=0;swimlaneBody=0;fillColor=none;collapsible=0;dropTarget=0;points=[[0,0.5],[1,0.5]];portConstraint=eastwest;top=0;left=0;right=0;bottom=0;" vertex="1" parent="Oy-TWGADdTAekCu63_Ab-32">
          <mxGeometry y="60" width="220" height="30" as="geometry" />
        </mxCell>
        <mxCell id="Oy-TWGADdTAekCu63_Ab-37" style="shape=partialRectangle;connectable=0;fillColor=none;top=0;left=0;bottom=0;right=0;editable=1;overflow=hidden;whiteSpace=wrap;html=1;" vertex="1" parent="Oy-TWGADdTAekCu63_Ab-36">
          <mxGeometry width="30" height="30" as="geometry">
            <mxRectangle width="30" height="30" as="alternateBounds" />
          </mxGeometry>
        </mxCell>
        <mxCell id="Oy-TWGADdTAekCu63_Ab-38" value="provider_name" style="shape=partialRectangle;connectable=0;fillColor=none;top=0;left=0;bottom=0;right=0;align=left;spacingLeft=6;overflow=hidden;whiteSpace=wrap;html=1;" vertex="1" parent="Oy-TWGADdTAekCu63_Ab-36">
          <mxGeometry x="30" width="110" height="30" as="geometry">
            <mxRectangle width="110" height="30" as="alternateBounds" />
          </mxGeometry>
        </mxCell>
        <mxCell id="KH00YTPOxJegBAQQi8B_-46" value="varchar(20)" style="shape=partialRectangle;connectable=0;fillColor=none;top=0;left=0;bottom=0;right=0;align=left;spacingLeft=6;overflow=hidden;whiteSpace=wrap;html=1;" vertex="1" parent="Oy-TWGADdTAekCu63_Ab-36">
          <mxGeometry x="140" width="80" height="30" as="geometry">
            <mxRectangle width="80" height="30" as="alternateBounds" />
          </mxGeometry>
        </mxCell>
        <mxCell id="kOPnxW-6sD8P4VorNryc-13" style="shape=tableRow;horizontal=0;startSize=0;swimlaneHead=0;swimlaneBody=0;fillColor=none;collapsible=0;dropTarget=0;points=[[0,0.5],[1,0.5]];portConstraint=eastwest;top=0;left=0;right=0;bottom=0;" vertex="1" parent="Oy-TWGADdTAekCu63_Ab-32">
          <mxGeometry y="90" width="220" height="30" as="geometry" />
        </mxCell>
        <mxCell id="kOPnxW-6sD8P4VorNryc-14" value="FK" style="shape=partialRectangle;connectable=0;fillColor=none;top=0;left=0;bottom=0;right=0;editable=1;overflow=hidden;whiteSpace=wrap;html=1;" vertex="1" parent="kOPnxW-6sD8P4VorNryc-13">
          <mxGeometry width="30" height="30" as="geometry">
            <mxRectangle width="30" height="30" as="alternateBounds" />
          </mxGeometry>
        </mxCell>
        <mxCell id="kOPnxW-6sD8P4VorNryc-15" value="&lt;b&gt;&lt;u&gt;expense_id&lt;/u&gt;&lt;/b&gt;" style="shape=partialRectangle;connectable=0;fillColor=none;top=0;left=0;bottom=0;right=0;align=left;spacingLeft=6;overflow=hidden;whiteSpace=wrap;html=1;" vertex="1" parent="kOPnxW-6sD8P4VorNryc-13">
          <mxGeometry x="30" width="110" height="30" as="geometry">
            <mxRectangle width="110" height="30" as="alternateBounds" />
          </mxGeometry>
        </mxCell>
        <mxCell id="KH00YTPOxJegBAQQi8B_-47" value="int" style="shape=partialRectangle;connectable=0;fillColor=none;top=0;left=0;bottom=0;right=0;align=left;spacingLeft=6;overflow=hidden;whiteSpace=wrap;html=1;" vertex="1" parent="kOPnxW-6sD8P4VorNryc-13">
          <mxGeometry x="140" width="80" height="30" as="geometry">
            <mxRectangle width="80" height="30" as="alternateBounds" />
          </mxGeometry>
        </mxCell>
        <mxCell id="Oy-TWGADdTAekCu63_Ab-39" style="edgeStyle=orthogonalEdgeStyle;rounded=0;orthogonalLoop=1;jettySize=auto;html=1;endArrow=ERoneToMany;endFill=0;startArrow=ERmandOne;startFill=0;" edge="1" parent="Oy-TWGADdTAekCu63_Ab-1" source="Oy-TWGADdTAekCu63_Ab-40" target="Oy-TWGADdTAekCu63_Ab-85">
          <mxGeometry relative="1" as="geometry">
            <mxPoint x="2020" y="1100" as="targetPoint" />
            <Array as="points">
              <mxPoint x="2160" y="1030" />
              <mxPoint x="2160" y="1030" />
            </Array>
          </mxGeometry>
        </mxCell>
        <mxCell id="KH00YTPOxJegBAQQi8B_-49" value="pay to" style="edgeLabel;html=1;align=center;verticalAlign=middle;resizable=0;points=[];" vertex="1" connectable="0" parent="Oy-TWGADdTAekCu63_Ab-39">
          <mxGeometry x="-0.25" relative="1" as="geometry">
            <mxPoint as="offset" />
          </mxGeometry>
        </mxCell>
        <mxCell id="Oy-TWGADdTAekCu63_Ab-40" value="PAYROLL" style="shape=table;startSize=35;container=1;collapsible=1;childLayout=tableLayout;fixedRows=1;rowLines=0;fontStyle=1;align=center;resizeLast=1;html=1;" vertex="1" parent="Oy-TWGADdTAekCu63_Ab-1">
          <mxGeometry x="2100" y="927.5" width="200" height="125" as="geometry" />
        </mxCell>
        <mxCell id="Oy-TWGADdTAekCu63_Ab-41" value="" style="shape=tableRow;horizontal=0;startSize=0;swimlaneHead=0;swimlaneBody=0;fillColor=none;collapsible=0;dropTarget=0;points=[[0,0.5],[1,0.5]];portConstraint=eastwest;top=0;left=0;right=0;bottom=1;" vertex="1" parent="Oy-TWGADdTAekCu63_Ab-40">
          <mxGeometry y="35" width="200" height="30" as="geometry" />
        </mxCell>
        <mxCell id="Oy-TWGADdTAekCu63_Ab-42" value="PK" style="shape=partialRectangle;connectable=0;fillColor=none;top=0;left=0;bottom=0;right=0;fontStyle=1;overflow=hidden;whiteSpace=wrap;html=1;" vertex="1" parent="Oy-TWGADdTAekCu63_Ab-41">
          <mxGeometry width="30" height="30" as="geometry">
            <mxRectangle width="30" height="30" as="alternateBounds" />
          </mxGeometry>
        </mxCell>
        <mxCell id="Oy-TWGADdTAekCu63_Ab-43" value="payroll id" style="shape=partialRectangle;connectable=0;fillColor=none;top=0;left=0;bottom=0;right=0;align=left;spacingLeft=6;fontStyle=5;overflow=hidden;whiteSpace=wrap;html=1;" vertex="1" parent="Oy-TWGADdTAekCu63_Ab-41">
          <mxGeometry x="30" width="90" height="30" as="geometry">
            <mxRectangle width="90" height="30" as="alternateBounds" />
          </mxGeometry>
        </mxCell>
        <mxCell id="KH00YTPOxJegBAQQi8B_-35" value="int" style="shape=partialRectangle;connectable=0;fillColor=none;top=0;left=0;bottom=0;right=0;align=left;spacingLeft=6;fontStyle=5;overflow=hidden;whiteSpace=wrap;html=1;" vertex="1" parent="Oy-TWGADdTAekCu63_Ab-41">
          <mxGeometry x="120" width="80" height="30" as="geometry">
            <mxRectangle width="80" height="30" as="alternateBounds" />
          </mxGeometry>
        </mxCell>
        <mxCell id="Oy-TWGADdTAekCu63_Ab-44" style="shape=tableRow;horizontal=0;startSize=0;swimlaneHead=0;swimlaneBody=0;fillColor=none;collapsible=0;dropTarget=0;points=[[0,0.5],[1,0.5]];portConstraint=eastwest;top=0;left=0;right=0;bottom=0;" vertex="1" parent="Oy-TWGADdTAekCu63_Ab-40">
          <mxGeometry y="65" width="200" height="30" as="geometry" />
        </mxCell>
        <mxCell id="Oy-TWGADdTAekCu63_Ab-45" style="shape=partialRectangle;connectable=0;fillColor=none;top=0;left=0;bottom=0;right=0;editable=1;overflow=hidden;whiteSpace=wrap;html=1;" vertex="1" parent="Oy-TWGADdTAekCu63_Ab-44">
          <mxGeometry width="30" height="30" as="geometry">
            <mxRectangle width="30" height="30" as="alternateBounds" />
          </mxGeometry>
        </mxCell>
        <mxCell id="Oy-TWGADdTAekCu63_Ab-46" value="pay period" style="shape=partialRectangle;connectable=0;fillColor=none;top=0;left=0;bottom=0;right=0;align=left;spacingLeft=6;overflow=hidden;whiteSpace=wrap;html=1;" vertex="1" parent="Oy-TWGADdTAekCu63_Ab-44">
          <mxGeometry x="30" width="90" height="30" as="geometry">
            <mxRectangle width="90" height="30" as="alternateBounds" />
          </mxGeometry>
        </mxCell>
        <mxCell id="KH00YTPOxJegBAQQi8B_-36" value="varchar(50)" style="shape=partialRectangle;connectable=0;fillColor=none;top=0;left=0;bottom=0;right=0;align=left;spacingLeft=6;overflow=hidden;whiteSpace=wrap;html=1;" vertex="1" parent="Oy-TWGADdTAekCu63_Ab-44">
          <mxGeometry x="120" width="80" height="30" as="geometry">
            <mxRectangle width="80" height="30" as="alternateBounds" />
          </mxGeometry>
        </mxCell>
        <mxCell id="kOPnxW-6sD8P4VorNryc-16" style="shape=tableRow;horizontal=0;startSize=0;swimlaneHead=0;swimlaneBody=0;fillColor=none;collapsible=0;dropTarget=0;points=[[0,0.5],[1,0.5]];portConstraint=eastwest;top=0;left=0;right=0;bottom=0;" vertex="1" parent="Oy-TWGADdTAekCu63_Ab-40">
          <mxGeometry y="95" width="200" height="30" as="geometry" />
        </mxCell>
        <mxCell id="kOPnxW-6sD8P4VorNryc-17" value="FK" style="shape=partialRectangle;connectable=0;fillColor=none;top=0;left=0;bottom=0;right=0;editable=1;overflow=hidden;whiteSpace=wrap;html=1;" vertex="1" parent="kOPnxW-6sD8P4VorNryc-16">
          <mxGeometry width="30" height="30" as="geometry">
            <mxRectangle width="30" height="30" as="alternateBounds" />
          </mxGeometry>
        </mxCell>
        <mxCell id="kOPnxW-6sD8P4VorNryc-18" value="&lt;b&gt;&lt;u&gt;expense_id&lt;/u&gt;&lt;/b&gt;" style="shape=partialRectangle;connectable=0;fillColor=none;top=0;left=0;bottom=0;right=0;align=left;spacingLeft=6;overflow=hidden;whiteSpace=wrap;html=1;" vertex="1" parent="kOPnxW-6sD8P4VorNryc-16">
          <mxGeometry x="30" width="90" height="30" as="geometry">
            <mxRectangle width="90" height="30" as="alternateBounds" />
          </mxGeometry>
        </mxCell>
        <mxCell id="KH00YTPOxJegBAQQi8B_-37" value="int" style="shape=partialRectangle;connectable=0;fillColor=none;top=0;left=0;bottom=0;right=0;align=left;spacingLeft=6;overflow=hidden;whiteSpace=wrap;html=1;" vertex="1" parent="kOPnxW-6sD8P4VorNryc-16">
          <mxGeometry x="120" width="80" height="30" as="geometry">
            <mxRectangle width="80" height="30" as="alternateBounds" />
          </mxGeometry>
        </mxCell>
        <mxCell id="Oy-TWGADdTAekCu63_Ab-50" style="edgeStyle=orthogonalEdgeStyle;rounded=0;orthogonalLoop=1;jettySize=auto;html=1;entryX=0.5;entryY=0;entryDx=0;entryDy=0;endArrow=ERzeroToMany;endFill=0;startArrow=ERzeroToMany;startFill=0;" edge="1" parent="Oy-TWGADdTAekCu63_Ab-1">
          <mxGeometry relative="1" as="geometry">
            <mxPoint x="1410" y="760" as="targetPoint" />
          </mxGeometry>
        </mxCell>
        <mxCell id="Oy-TWGADdTAekCu63_Ab-52" value="RESTAURANT" style="shape=table;startSize=30;container=1;collapsible=1;childLayout=tableLayout;fixedRows=1;rowLines=0;fontStyle=1;align=center;resizeLast=1;html=1;" vertex="1" parent="Oy-TWGADdTAekCu63_Ab-1">
          <mxGeometry x="1110" y="420" width="310" height="310" as="geometry">
            <mxRectangle x="40" y="300" width="120" height="30" as="alternateBounds" />
          </mxGeometry>
        </mxCell>
        <mxCell id="Oy-TWGADdTAekCu63_Ab-53" value="" style="shape=tableRow;horizontal=0;startSize=0;swimlaneHead=0;swimlaneBody=0;fillColor=none;collapsible=0;dropTarget=0;points=[[0,0.5],[1,0.5]];portConstraint=eastwest;top=0;left=0;right=0;bottom=1;" vertex="1" parent="Oy-TWGADdTAekCu63_Ab-52">
          <mxGeometry y="30" width="310" height="40" as="geometry" />
        </mxCell>
        <mxCell id="Oy-TWGADdTAekCu63_Ab-54" value="PK" style="shape=partialRectangle;connectable=0;fillColor=none;top=0;left=0;bottom=0;right=0;fontStyle=1;overflow=hidden;whiteSpace=wrap;html=1;" vertex="1" parent="Oy-TWGADdTAekCu63_Ab-53">
          <mxGeometry width="30" height="40" as="geometry">
            <mxRectangle width="30" height="40" as="alternateBounds" />
          </mxGeometry>
        </mxCell>
        <mxCell id="Oy-TWGADdTAekCu63_Ab-55" value="Restaurant ID" style="shape=partialRectangle;connectable=0;fillColor=none;top=0;left=0;bottom=0;right=0;align=left;spacingLeft=6;fontStyle=5;overflow=hidden;whiteSpace=wrap;html=1;" vertex="1" parent="Oy-TWGADdTAekCu63_Ab-53">
          <mxGeometry x="30" width="170" height="40" as="geometry">
            <mxRectangle width="170" height="40" as="alternateBounds" />
          </mxGeometry>
        </mxCell>
        <mxCell id="4N-ifXrUZ6xMiY-V1WJ9-9" value="int" style="shape=partialRectangle;connectable=0;fillColor=none;top=0;left=0;bottom=0;right=0;align=left;spacingLeft=6;fontStyle=5;overflow=hidden;whiteSpace=wrap;html=1;" vertex="1" parent="Oy-TWGADdTAekCu63_Ab-53">
          <mxGeometry x="200" width="110" height="40" as="geometry">
            <mxRectangle width="110" height="40" as="alternateBounds" />
          </mxGeometry>
        </mxCell>
        <mxCell id="Oy-TWGADdTAekCu63_Ab-56" value="" style="shape=tableRow;horizontal=0;startSize=0;swimlaneHead=0;swimlaneBody=0;fillColor=none;collapsible=0;dropTarget=0;points=[[0,0.5],[1,0.5]];portConstraint=eastwest;top=0;left=0;right=0;bottom=0;" vertex="1" parent="Oy-TWGADdTAekCu63_Ab-52">
          <mxGeometry y="70" width="310" height="30" as="geometry" />
        </mxCell>
        <mxCell id="Oy-TWGADdTAekCu63_Ab-57" value="" style="shape=partialRectangle;connectable=0;fillColor=none;top=0;left=0;bottom=0;right=0;editable=1;overflow=hidden;whiteSpace=wrap;html=1;" vertex="1" parent="Oy-TWGADdTAekCu63_Ab-56">
          <mxGeometry width="30" height="30" as="geometry">
            <mxRectangle width="30" height="30" as="alternateBounds" />
          </mxGeometry>
        </mxCell>
        <mxCell id="Oy-TWGADdTAekCu63_Ab-58" value="Restaurant name" style="shape=partialRectangle;connectable=0;fillColor=none;top=0;left=0;bottom=0;right=0;align=left;spacingLeft=6;overflow=hidden;whiteSpace=wrap;html=1;" vertex="1" parent="Oy-TWGADdTAekCu63_Ab-56">
          <mxGeometry x="30" width="170" height="30" as="geometry">
            <mxRectangle width="170" height="30" as="alternateBounds" />
          </mxGeometry>
        </mxCell>
        <mxCell id="4N-ifXrUZ6xMiY-V1WJ9-10" value="varchar(100)" style="shape=partialRectangle;connectable=0;fillColor=none;top=0;left=0;bottom=0;right=0;align=left;spacingLeft=6;overflow=hidden;whiteSpace=wrap;html=1;" vertex="1" parent="Oy-TWGADdTAekCu63_Ab-56">
          <mxGeometry x="200" width="110" height="30" as="geometry">
            <mxRectangle width="110" height="30" as="alternateBounds" />
          </mxGeometry>
        </mxCell>
        <mxCell id="Oy-TWGADdTAekCu63_Ab-59" value="" style="shape=tableRow;horizontal=0;startSize=0;swimlaneHead=0;swimlaneBody=0;fillColor=none;collapsible=0;dropTarget=0;points=[[0,0.5],[1,0.5]];portConstraint=eastwest;top=0;left=0;right=0;bottom=0;" vertex="1" parent="Oy-TWGADdTAekCu63_Ab-52">
          <mxGeometry y="100" width="310" height="30" as="geometry" />
        </mxCell>
        <mxCell id="Oy-TWGADdTAekCu63_Ab-60" value="" style="shape=partialRectangle;connectable=0;fillColor=none;top=0;left=0;bottom=0;right=0;editable=1;overflow=hidden;whiteSpace=wrap;html=1;" vertex="1" parent="Oy-TWGADdTAekCu63_Ab-59">
          <mxGeometry width="30" height="30" as="geometry">
            <mxRectangle width="30" height="30" as="alternateBounds" />
          </mxGeometry>
        </mxCell>
        <mxCell id="Oy-TWGADdTAekCu63_Ab-61" value="street" style="shape=partialRectangle;connectable=0;fillColor=none;top=0;left=0;bottom=0;right=0;align=left;spacingLeft=6;overflow=hidden;whiteSpace=wrap;html=1;" vertex="1" parent="Oy-TWGADdTAekCu63_Ab-59">
          <mxGeometry x="30" width="170" height="30" as="geometry">
            <mxRectangle width="170" height="30" as="alternateBounds" />
          </mxGeometry>
        </mxCell>
        <mxCell id="4N-ifXrUZ6xMiY-V1WJ9-11" value="varchar(100)" style="shape=partialRectangle;connectable=0;fillColor=none;top=0;left=0;bottom=0;right=0;align=left;spacingLeft=6;overflow=hidden;whiteSpace=wrap;html=1;" vertex="1" parent="Oy-TWGADdTAekCu63_Ab-59">
          <mxGeometry x="200" width="110" height="30" as="geometry">
            <mxRectangle width="110" height="30" as="alternateBounds" />
          </mxGeometry>
        </mxCell>
        <mxCell id="Oy-TWGADdTAekCu63_Ab-62" value="" style="shape=tableRow;horizontal=0;startSize=0;swimlaneHead=0;swimlaneBody=0;fillColor=none;collapsible=0;dropTarget=0;points=[[0,0.5],[1,0.5]];portConstraint=eastwest;top=0;left=0;right=0;bottom=0;" vertex="1" parent="Oy-TWGADdTAekCu63_Ab-52">
          <mxGeometry y="130" width="310" height="30" as="geometry" />
        </mxCell>
        <mxCell id="Oy-TWGADdTAekCu63_Ab-63" value="" style="shape=partialRectangle;connectable=0;fillColor=none;top=0;left=0;bottom=0;right=0;editable=1;overflow=hidden;whiteSpace=wrap;html=1;" vertex="1" parent="Oy-TWGADdTAekCu63_Ab-62">
          <mxGeometry width="30" height="30" as="geometry">
            <mxRectangle width="30" height="30" as="alternateBounds" />
          </mxGeometry>
        </mxCell>
        <mxCell id="Oy-TWGADdTAekCu63_Ab-64" value="city" style="shape=partialRectangle;connectable=0;fillColor=none;top=0;left=0;bottom=0;right=0;align=left;spacingLeft=6;overflow=hidden;whiteSpace=wrap;html=1;" vertex="1" parent="Oy-TWGADdTAekCu63_Ab-62">
          <mxGeometry x="30" width="170" height="30" as="geometry">
            <mxRectangle width="170" height="30" as="alternateBounds" />
          </mxGeometry>
        </mxCell>
        <mxCell id="4N-ifXrUZ6xMiY-V1WJ9-12" value="varchar(20)" style="shape=partialRectangle;connectable=0;fillColor=none;top=0;left=0;bottom=0;right=0;align=left;spacingLeft=6;overflow=hidden;whiteSpace=wrap;html=1;" vertex="1" parent="Oy-TWGADdTAekCu63_Ab-62">
          <mxGeometry x="200" width="110" height="30" as="geometry">
            <mxRectangle width="110" height="30" as="alternateBounds" />
          </mxGeometry>
        </mxCell>
        <mxCell id="Oy-TWGADdTAekCu63_Ab-65" style="shape=tableRow;horizontal=0;startSize=0;swimlaneHead=0;swimlaneBody=0;fillColor=none;collapsible=0;dropTarget=0;points=[[0,0.5],[1,0.5]];portConstraint=eastwest;top=0;left=0;right=0;bottom=0;" vertex="1" parent="Oy-TWGADdTAekCu63_Ab-52">
          <mxGeometry y="160" width="310" height="30" as="geometry" />
        </mxCell>
        <mxCell id="Oy-TWGADdTAekCu63_Ab-66" style="shape=partialRectangle;connectable=0;fillColor=none;top=0;left=0;bottom=0;right=0;editable=1;overflow=hidden;whiteSpace=wrap;html=1;" vertex="1" parent="Oy-TWGADdTAekCu63_Ab-65">
          <mxGeometry width="30" height="30" as="geometry">
            <mxRectangle width="30" height="30" as="alternateBounds" />
          </mxGeometry>
        </mxCell>
        <mxCell id="Oy-TWGADdTAekCu63_Ab-67" value="state" style="shape=partialRectangle;connectable=0;fillColor=none;top=0;left=0;bottom=0;right=0;align=left;spacingLeft=6;overflow=hidden;whiteSpace=wrap;html=1;" vertex="1" parent="Oy-TWGADdTAekCu63_Ab-65">
          <mxGeometry x="30" width="170" height="30" as="geometry">
            <mxRectangle width="170" height="30" as="alternateBounds" />
          </mxGeometry>
        </mxCell>
        <mxCell id="4N-ifXrUZ6xMiY-V1WJ9-13" value="varchar(20)" style="shape=partialRectangle;connectable=0;fillColor=none;top=0;left=0;bottom=0;right=0;align=left;spacingLeft=6;overflow=hidden;whiteSpace=wrap;html=1;" vertex="1" parent="Oy-TWGADdTAekCu63_Ab-65">
          <mxGeometry x="200" width="110" height="30" as="geometry">
            <mxRectangle width="110" height="30" as="alternateBounds" />
          </mxGeometry>
        </mxCell>
        <mxCell id="Oy-TWGADdTAekCu63_Ab-68" style="shape=tableRow;horizontal=0;startSize=0;swimlaneHead=0;swimlaneBody=0;fillColor=none;collapsible=0;dropTarget=0;points=[[0,0.5],[1,0.5]];portConstraint=eastwest;top=0;left=0;right=0;bottom=0;" vertex="1" parent="Oy-TWGADdTAekCu63_Ab-52">
          <mxGeometry y="190" width="310" height="30" as="geometry" />
        </mxCell>
        <mxCell id="Oy-TWGADdTAekCu63_Ab-69" style="shape=partialRectangle;connectable=0;fillColor=none;top=0;left=0;bottom=0;right=0;editable=1;overflow=hidden;whiteSpace=wrap;html=1;" vertex="1" parent="Oy-TWGADdTAekCu63_Ab-68">
          <mxGeometry width="30" height="30" as="geometry">
            <mxRectangle width="30" height="30" as="alternateBounds" />
          </mxGeometry>
        </mxCell>
        <mxCell id="Oy-TWGADdTAekCu63_Ab-70" value="zip_code" style="shape=partialRectangle;connectable=0;fillColor=none;top=0;left=0;bottom=0;right=0;align=left;spacingLeft=6;overflow=hidden;whiteSpace=wrap;html=1;" vertex="1" parent="Oy-TWGADdTAekCu63_Ab-68">
          <mxGeometry x="30" width="170" height="30" as="geometry">
            <mxRectangle width="170" height="30" as="alternateBounds" />
          </mxGeometry>
        </mxCell>
        <mxCell id="4N-ifXrUZ6xMiY-V1WJ9-14" value="varchar(10)" style="shape=partialRectangle;connectable=0;fillColor=none;top=0;left=0;bottom=0;right=0;align=left;spacingLeft=6;overflow=hidden;whiteSpace=wrap;html=1;" vertex="1" parent="Oy-TWGADdTAekCu63_Ab-68">
          <mxGeometry x="200" width="110" height="30" as="geometry">
            <mxRectangle width="110" height="30" as="alternateBounds" />
          </mxGeometry>
        </mxCell>
        <mxCell id="VdMrfSbUzYThH-OYRioD-45" style="shape=tableRow;horizontal=0;startSize=0;swimlaneHead=0;swimlaneBody=0;fillColor=none;collapsible=0;dropTarget=0;points=[[0,0.5],[1,0.5]];portConstraint=eastwest;top=0;left=0;right=0;bottom=0;" vertex="1" parent="Oy-TWGADdTAekCu63_Ab-52">
          <mxGeometry y="220" width="310" height="30" as="geometry" />
        </mxCell>
        <mxCell id="VdMrfSbUzYThH-OYRioD-46" style="shape=partialRectangle;connectable=0;fillColor=none;top=0;left=0;bottom=0;right=0;editable=1;overflow=hidden;whiteSpace=wrap;html=1;" vertex="1" parent="VdMrfSbUzYThH-OYRioD-45">
          <mxGeometry width="30" height="30" as="geometry">
            <mxRectangle width="30" height="30" as="alternateBounds" />
          </mxGeometry>
        </mxCell>
        <mxCell id="VdMrfSbUzYThH-OYRioD-47" value="status" style="shape=partialRectangle;connectable=0;fillColor=none;top=0;left=0;bottom=0;right=0;align=left;spacingLeft=6;overflow=hidden;whiteSpace=wrap;html=1;" vertex="1" parent="VdMrfSbUzYThH-OYRioD-45">
          <mxGeometry x="30" width="170" height="30" as="geometry">
            <mxRectangle width="170" height="30" as="alternateBounds" />
          </mxGeometry>
        </mxCell>
        <mxCell id="4N-ifXrUZ6xMiY-V1WJ9-15" value="varchar(20)" style="shape=partialRectangle;connectable=0;fillColor=none;top=0;left=0;bottom=0;right=0;align=left;spacingLeft=6;overflow=hidden;whiteSpace=wrap;html=1;" vertex="1" parent="VdMrfSbUzYThH-OYRioD-45">
          <mxGeometry x="200" width="110" height="30" as="geometry">
            <mxRectangle width="110" height="30" as="alternateBounds" />
          </mxGeometry>
        </mxCell>
        <mxCell id="VdMrfSbUzYThH-OYRioD-48" style="shape=tableRow;horizontal=0;startSize=0;swimlaneHead=0;swimlaneBody=0;fillColor=none;collapsible=0;dropTarget=0;points=[[0,0.5],[1,0.5]];portConstraint=eastwest;top=0;left=0;right=0;bottom=0;" vertex="1" parent="Oy-TWGADdTAekCu63_Ab-52">
          <mxGeometry y="250" width="310" height="30" as="geometry" />
        </mxCell>
        <mxCell id="VdMrfSbUzYThH-OYRioD-49" style="shape=partialRectangle;connectable=0;fillColor=none;top=0;left=0;bottom=0;right=0;editable=1;overflow=hidden;whiteSpace=wrap;html=1;" vertex="1" parent="VdMrfSbUzYThH-OYRioD-48">
          <mxGeometry width="30" height="30" as="geometry">
            <mxRectangle width="30" height="30" as="alternateBounds" />
          </mxGeometry>
        </mxCell>
        <mxCell id="VdMrfSbUzYThH-OYRioD-50" value="opening_date" style="shape=partialRectangle;connectable=0;fillColor=none;top=0;left=0;bottom=0;right=0;align=left;spacingLeft=6;overflow=hidden;whiteSpace=wrap;html=1;" vertex="1" parent="VdMrfSbUzYThH-OYRioD-48">
          <mxGeometry x="30" width="170" height="30" as="geometry">
            <mxRectangle width="170" height="30" as="alternateBounds" />
          </mxGeometry>
        </mxCell>
        <mxCell id="4N-ifXrUZ6xMiY-V1WJ9-16" value="date" style="shape=partialRectangle;connectable=0;fillColor=none;top=0;left=0;bottom=0;right=0;align=left;spacingLeft=6;overflow=hidden;whiteSpace=wrap;html=1;" vertex="1" parent="VdMrfSbUzYThH-OYRioD-48">
          <mxGeometry x="200" width="110" height="30" as="geometry">
            <mxRectangle width="110" height="30" as="alternateBounds" />
          </mxGeometry>
        </mxCell>
        <mxCell id="VdMrfSbUzYThH-OYRioD-51" style="shape=tableRow;horizontal=0;startSize=0;swimlaneHead=0;swimlaneBody=0;fillColor=none;collapsible=0;dropTarget=0;points=[[0,0.5],[1,0.5]];portConstraint=eastwest;top=0;left=0;right=0;bottom=0;" vertex="1" parent="Oy-TWGADdTAekCu63_Ab-52">
          <mxGeometry y="280" width="310" height="30" as="geometry" />
        </mxCell>
        <mxCell id="VdMrfSbUzYThH-OYRioD-52" style="shape=partialRectangle;connectable=0;fillColor=none;top=0;left=0;bottom=0;right=0;editable=1;overflow=hidden;whiteSpace=wrap;html=1;" vertex="1" parent="VdMrfSbUzYThH-OYRioD-51">
          <mxGeometry width="30" height="30" as="geometry">
            <mxRectangle width="30" height="30" as="alternateBounds" />
          </mxGeometry>
        </mxCell>
        <mxCell id="VdMrfSbUzYThH-OYRioD-53" value="phone_number" style="shape=partialRectangle;connectable=0;fillColor=none;top=0;left=0;bottom=0;right=0;align=left;spacingLeft=6;overflow=hidden;whiteSpace=wrap;html=1;" vertex="1" parent="VdMrfSbUzYThH-OYRioD-51">
          <mxGeometry x="30" width="170" height="30" as="geometry">
            <mxRectangle width="170" height="30" as="alternateBounds" />
          </mxGeometry>
        </mxCell>
        <mxCell id="4N-ifXrUZ6xMiY-V1WJ9-17" value="varchar(20)" style="shape=partialRectangle;connectable=0;fillColor=none;top=0;left=0;bottom=0;right=0;align=left;spacingLeft=6;overflow=hidden;whiteSpace=wrap;html=1;" vertex="1" parent="VdMrfSbUzYThH-OYRioD-51">
          <mxGeometry x="200" width="110" height="30" as="geometry">
            <mxRectangle width="110" height="30" as="alternateBounds" />
          </mxGeometry>
        </mxCell>
        <mxCell id="Oy-TWGADdTAekCu63_Ab-71" value="TABLE" style="shape=table;startSize=30;container=1;collapsible=1;childLayout=tableLayout;fixedRows=1;rowLines=0;fontStyle=1;align=center;resizeLast=1;html=1;" vertex="1" parent="Oy-TWGADdTAekCu63_Ab-1">
          <mxGeometry x="920" y="880" width="210" height="190.00000000000023" as="geometry" />
        </mxCell>
        <mxCell id="Oy-TWGADdTAekCu63_Ab-72" value="" style="shape=tableRow;horizontal=0;startSize=0;swimlaneHead=0;swimlaneBody=0;fillColor=none;collapsible=0;dropTarget=0;points=[[0,0.5],[1,0.5]];portConstraint=eastwest;top=0;left=0;right=0;bottom=1;" vertex="1" parent="Oy-TWGADdTAekCu63_Ab-71">
          <mxGeometry y="30" width="210" height="25" as="geometry" />
        </mxCell>
        <mxCell id="Oy-TWGADdTAekCu63_Ab-73" value="PK" style="shape=partialRectangle;connectable=0;fillColor=none;top=0;left=0;bottom=0;right=0;fontStyle=1;overflow=hidden;whiteSpace=wrap;html=1;" vertex="1" parent="Oy-TWGADdTAekCu63_Ab-72">
          <mxGeometry width="30" height="25" as="geometry">
            <mxRectangle width="30" height="25" as="alternateBounds" />
          </mxGeometry>
        </mxCell>
        <mxCell id="Oy-TWGADdTAekCu63_Ab-74" value="Table_ID" style="shape=partialRectangle;connectable=0;fillColor=none;top=0;left=0;bottom=0;right=0;align=left;spacingLeft=6;fontStyle=5;overflow=hidden;whiteSpace=wrap;html=1;" vertex="1" parent="Oy-TWGADdTAekCu63_Ab-72">
          <mxGeometry x="30" width="110.00000000000023" height="25" as="geometry">
            <mxRectangle width="110.00000000000023" height="25" as="alternateBounds" />
          </mxGeometry>
        </mxCell>
        <mxCell id="KH00YTPOxJegBAQQi8B_-26" value="int" style="shape=partialRectangle;connectable=0;fillColor=none;top=0;left=0;bottom=0;right=0;align=left;spacingLeft=6;fontStyle=5;overflow=hidden;whiteSpace=wrap;html=1;" vertex="1" parent="Oy-TWGADdTAekCu63_Ab-72">
          <mxGeometry x="140.00000000000023" width="69.99999999999977" height="25" as="geometry">
            <mxRectangle width="69.99999999999977" height="25" as="alternateBounds" />
          </mxGeometry>
        </mxCell>
        <mxCell id="Oy-TWGADdTAekCu63_Ab-75" value="" style="shape=tableRow;horizontal=0;startSize=0;swimlaneHead=0;swimlaneBody=0;fillColor=none;collapsible=0;dropTarget=0;points=[[0,0.5],[1,0.5]];portConstraint=eastwest;top=0;left=0;right=0;bottom=0;" vertex="1" parent="Oy-TWGADdTAekCu63_Ab-71">
          <mxGeometry y="55" width="210" height="45" as="geometry" />
        </mxCell>
        <mxCell id="Oy-TWGADdTAekCu63_Ab-76" value="" style="shape=partialRectangle;connectable=0;fillColor=none;top=0;left=0;bottom=0;right=0;editable=1;overflow=hidden;whiteSpace=wrap;html=1;" vertex="1" parent="Oy-TWGADdTAekCu63_Ab-75">
          <mxGeometry width="30" height="45" as="geometry">
            <mxRectangle width="30" height="45" as="alternateBounds" />
          </mxGeometry>
        </mxCell>
        <mxCell id="Oy-TWGADdTAekCu63_Ab-77" value="seating_capacity" style="shape=partialRectangle;connectable=0;fillColor=none;top=0;left=0;bottom=0;right=0;align=left;spacingLeft=6;overflow=hidden;whiteSpace=wrap;html=1;" vertex="1" parent="Oy-TWGADdTAekCu63_Ab-75">
          <mxGeometry x="30" width="110.00000000000023" height="45" as="geometry">
            <mxRectangle width="110.00000000000023" height="45" as="alternateBounds" />
          </mxGeometry>
        </mxCell>
        <mxCell id="KH00YTPOxJegBAQQi8B_-27" value="int" style="shape=partialRectangle;connectable=0;fillColor=none;top=0;left=0;bottom=0;right=0;align=left;spacingLeft=6;overflow=hidden;whiteSpace=wrap;html=1;" vertex="1" parent="Oy-TWGADdTAekCu63_Ab-75">
          <mxGeometry x="140.00000000000023" width="69.99999999999977" height="45" as="geometry">
            <mxRectangle width="69.99999999999977" height="45" as="alternateBounds" />
          </mxGeometry>
        </mxCell>
        <mxCell id="Oy-TWGADdTAekCu63_Ab-78" style="shape=tableRow;horizontal=0;startSize=0;swimlaneHead=0;swimlaneBody=0;fillColor=none;collapsible=0;dropTarget=0;points=[[0,0.5],[1,0.5]];portConstraint=eastwest;top=0;left=0;right=0;bottom=0;" vertex="1" parent="Oy-TWGADdTAekCu63_Ab-71">
          <mxGeometry y="100" width="210" height="30" as="geometry" />
        </mxCell>
        <mxCell id="Oy-TWGADdTAekCu63_Ab-79" style="shape=partialRectangle;connectable=0;fillColor=none;top=0;left=0;bottom=0;right=0;editable=1;overflow=hidden;whiteSpace=wrap;html=1;" vertex="1" parent="Oy-TWGADdTAekCu63_Ab-78">
          <mxGeometry width="30" height="30" as="geometry">
            <mxRectangle width="30" height="30" as="alternateBounds" />
          </mxGeometry>
        </mxCell>
        <mxCell id="Oy-TWGADdTAekCu63_Ab-80" value="status" style="shape=partialRectangle;connectable=0;fillColor=none;top=0;left=0;bottom=0;right=0;align=left;spacingLeft=6;overflow=hidden;whiteSpace=wrap;html=1;" vertex="1" parent="Oy-TWGADdTAekCu63_Ab-78">
          <mxGeometry x="30" width="110.00000000000023" height="30" as="geometry">
            <mxRectangle width="110.00000000000023" height="30" as="alternateBounds" />
          </mxGeometry>
        </mxCell>
        <mxCell id="KH00YTPOxJegBAQQi8B_-28" value="varchar(20)" style="shape=partialRectangle;connectable=0;fillColor=none;top=0;left=0;bottom=0;right=0;align=left;spacingLeft=6;overflow=hidden;whiteSpace=wrap;html=1;" vertex="1" parent="Oy-TWGADdTAekCu63_Ab-78">
          <mxGeometry x="140.00000000000023" width="69.99999999999977" height="30" as="geometry">
            <mxRectangle width="69.99999999999977" height="30" as="alternateBounds" />
          </mxGeometry>
        </mxCell>
        <mxCell id="Oy-TWGADdTAekCu63_Ab-81" style="shape=tableRow;horizontal=0;startSize=0;swimlaneHead=0;swimlaneBody=0;fillColor=none;collapsible=0;dropTarget=0;points=[[0,0.5],[1,0.5]];portConstraint=eastwest;top=0;left=0;right=0;bottom=0;" vertex="1" parent="Oy-TWGADdTAekCu63_Ab-71">
          <mxGeometry y="130" width="210" height="30" as="geometry" />
        </mxCell>
        <mxCell id="Oy-TWGADdTAekCu63_Ab-82" style="shape=partialRectangle;connectable=0;fillColor=none;top=0;left=0;bottom=0;right=0;editable=1;overflow=hidden;whiteSpace=wrap;html=1;" vertex="1" parent="Oy-TWGADdTAekCu63_Ab-81">
          <mxGeometry width="30" height="30" as="geometry">
            <mxRectangle width="30" height="30" as="alternateBounds" />
          </mxGeometry>
        </mxCell>
        <mxCell id="Oy-TWGADdTAekCu63_Ab-83" value="table_number" style="shape=partialRectangle;connectable=0;fillColor=none;top=0;left=0;bottom=0;right=0;align=left;spacingLeft=6;overflow=hidden;whiteSpace=wrap;html=1;" vertex="1" parent="Oy-TWGADdTAekCu63_Ab-81">
          <mxGeometry x="30" width="110.00000000000023" height="30" as="geometry">
            <mxRectangle width="110.00000000000023" height="30" as="alternateBounds" />
          </mxGeometry>
        </mxCell>
        <mxCell id="KH00YTPOxJegBAQQi8B_-29" value="int" style="shape=partialRectangle;connectable=0;fillColor=none;top=0;left=0;bottom=0;right=0;align=left;spacingLeft=6;overflow=hidden;whiteSpace=wrap;html=1;" vertex="1" parent="Oy-TWGADdTAekCu63_Ab-81">
          <mxGeometry x="140.00000000000023" width="69.99999999999977" height="30" as="geometry">
            <mxRectangle width="69.99999999999977" height="30" as="alternateBounds" />
          </mxGeometry>
        </mxCell>
        <mxCell id="GWtwd3Tiu07Vp1fqFDIl-218" style="shape=tableRow;horizontal=0;startSize=0;swimlaneHead=0;swimlaneBody=0;fillColor=none;collapsible=0;dropTarget=0;points=[[0,0.5],[1,0.5]];portConstraint=eastwest;top=0;left=0;right=0;bottom=0;" vertex="1" parent="Oy-TWGADdTAekCu63_Ab-71">
          <mxGeometry y="160" width="210" height="30" as="geometry" />
        </mxCell>
        <mxCell id="GWtwd3Tiu07Vp1fqFDIl-219" value="FK" style="shape=partialRectangle;connectable=0;fillColor=none;top=0;left=0;bottom=0;right=0;editable=1;overflow=hidden;whiteSpace=wrap;html=1;" vertex="1" parent="GWtwd3Tiu07Vp1fqFDIl-218">
          <mxGeometry width="30" height="30" as="geometry">
            <mxRectangle width="30" height="30" as="alternateBounds" />
          </mxGeometry>
        </mxCell>
        <mxCell id="GWtwd3Tiu07Vp1fqFDIl-220" value="Restaurant ID" style="shape=partialRectangle;connectable=0;fillColor=none;top=0;left=0;bottom=0;right=0;align=left;spacingLeft=6;overflow=hidden;whiteSpace=wrap;html=1;" vertex="1" parent="GWtwd3Tiu07Vp1fqFDIl-218">
          <mxGeometry x="30" width="110.00000000000023" height="30" as="geometry">
            <mxRectangle width="110.00000000000023" height="30" as="alternateBounds" />
          </mxGeometry>
        </mxCell>
        <mxCell id="KH00YTPOxJegBAQQi8B_-30" value="int" style="shape=partialRectangle;connectable=0;fillColor=none;top=0;left=0;bottom=0;right=0;align=left;spacingLeft=6;overflow=hidden;whiteSpace=wrap;html=1;" vertex="1" parent="GWtwd3Tiu07Vp1fqFDIl-218">
          <mxGeometry x="140.00000000000023" width="69.99999999999977" height="30" as="geometry">
            <mxRectangle width="69.99999999999977" height="30" as="alternateBounds" />
          </mxGeometry>
        </mxCell>
        <mxCell id="Oy-TWGADdTAekCu63_Ab-85" value="EMPLOYEES" style="shape=table;startSize=30;container=1;collapsible=1;childLayout=tableLayout;fixedRows=1;rowLines=0;fontStyle=1;align=center;resizeLast=1;html=1;" vertex="1" parent="Oy-TWGADdTAekCu63_Ab-1">
          <mxGeometry x="2070" y="1150" width="200" height="210" as="geometry" />
        </mxCell>
        <mxCell id="Oy-TWGADdTAekCu63_Ab-86" value="" style="shape=tableRow;horizontal=0;startSize=0;swimlaneHead=0;swimlaneBody=0;fillColor=none;collapsible=0;dropTarget=0;points=[[0,0.5],[1,0.5]];portConstraint=eastwest;top=0;left=0;right=0;bottom=1;" vertex="1" parent="Oy-TWGADdTAekCu63_Ab-85">
          <mxGeometry y="30" width="200" height="30" as="geometry" />
        </mxCell>
        <mxCell id="Oy-TWGADdTAekCu63_Ab-87" value="PK" style="shape=partialRectangle;connectable=0;fillColor=none;top=0;left=0;bottom=0;right=0;fontStyle=1;overflow=hidden;whiteSpace=wrap;html=1;" vertex="1" parent="Oy-TWGADdTAekCu63_Ab-86">
          <mxGeometry width="30" height="30" as="geometry">
            <mxRectangle width="30" height="30" as="alternateBounds" />
          </mxGeometry>
        </mxCell>
        <mxCell id="Oy-TWGADdTAekCu63_Ab-88" value="Employee_ID" style="shape=partialRectangle;connectable=0;fillColor=none;top=0;left=0;bottom=0;right=0;align=left;spacingLeft=6;fontStyle=5;overflow=hidden;whiteSpace=wrap;html=1;" vertex="1" parent="Oy-TWGADdTAekCu63_Ab-86">
          <mxGeometry x="30" width="90" height="30" as="geometry">
            <mxRectangle width="90" height="30" as="alternateBounds" />
          </mxGeometry>
        </mxCell>
        <mxCell id="KH00YTPOxJegBAQQi8B_-20" value="int" style="shape=partialRectangle;connectable=0;fillColor=none;top=0;left=0;bottom=0;right=0;align=left;spacingLeft=6;fontStyle=5;overflow=hidden;whiteSpace=wrap;html=1;" vertex="1" parent="Oy-TWGADdTAekCu63_Ab-86">
          <mxGeometry x="120" width="80" height="30" as="geometry">
            <mxRectangle width="80" height="30" as="alternateBounds" />
          </mxGeometry>
        </mxCell>
        <mxCell id="Oy-TWGADdTAekCu63_Ab-89" style="shape=tableRow;horizontal=0;startSize=0;swimlaneHead=0;swimlaneBody=0;fillColor=none;collapsible=0;dropTarget=0;points=[[0,0.5],[1,0.5]];portConstraint=eastwest;top=0;left=0;right=0;bottom=0;" vertex="1" parent="Oy-TWGADdTAekCu63_Ab-85">
          <mxGeometry y="60" width="200" height="30" as="geometry" />
        </mxCell>
        <mxCell id="Oy-TWGADdTAekCu63_Ab-90" style="shape=partialRectangle;connectable=0;fillColor=none;top=0;left=0;bottom=0;right=0;editable=1;overflow=hidden;whiteSpace=wrap;html=1;" vertex="1" parent="Oy-TWGADdTAekCu63_Ab-89">
          <mxGeometry width="30" height="30" as="geometry">
            <mxRectangle width="30" height="30" as="alternateBounds" />
          </mxGeometry>
        </mxCell>
        <mxCell id="Oy-TWGADdTAekCu63_Ab-91" value="Name" style="shape=partialRectangle;connectable=0;fillColor=none;top=0;left=0;bottom=0;right=0;align=left;spacingLeft=6;overflow=hidden;whiteSpace=wrap;html=1;" vertex="1" parent="Oy-TWGADdTAekCu63_Ab-89">
          <mxGeometry x="30" width="90" height="30" as="geometry">
            <mxRectangle width="90" height="30" as="alternateBounds" />
          </mxGeometry>
        </mxCell>
        <mxCell id="KH00YTPOxJegBAQQi8B_-21" value="varchar(20)" style="shape=partialRectangle;connectable=0;fillColor=none;top=0;left=0;bottom=0;right=0;align=left;spacingLeft=6;overflow=hidden;whiteSpace=wrap;html=1;" vertex="1" parent="Oy-TWGADdTAekCu63_Ab-89">
          <mxGeometry x="120" width="80" height="30" as="geometry">
            <mxRectangle width="80" height="30" as="alternateBounds" />
          </mxGeometry>
        </mxCell>
        <mxCell id="Oy-TWGADdTAekCu63_Ab-92" value="" style="shape=tableRow;horizontal=0;startSize=0;swimlaneHead=0;swimlaneBody=0;fillColor=none;collapsible=0;dropTarget=0;points=[[0,0.5],[1,0.5]];portConstraint=eastwest;top=0;left=0;right=0;bottom=0;" vertex="1" parent="Oy-TWGADdTAekCu63_Ab-85">
          <mxGeometry y="90" width="200" height="30" as="geometry" />
        </mxCell>
        <mxCell id="Oy-TWGADdTAekCu63_Ab-93" value="" style="shape=partialRectangle;connectable=0;fillColor=none;top=0;left=0;bottom=0;right=0;editable=1;overflow=hidden;whiteSpace=wrap;html=1;" vertex="1" parent="Oy-TWGADdTAekCu63_Ab-92">
          <mxGeometry width="30" height="30" as="geometry">
            <mxRectangle width="30" height="30" as="alternateBounds" />
          </mxGeometry>
        </mxCell>
        <mxCell id="Oy-TWGADdTAekCu63_Ab-94" value="HireOfDate" style="shape=partialRectangle;connectable=0;fillColor=none;top=0;left=0;bottom=0;right=0;align=left;spacingLeft=6;overflow=hidden;whiteSpace=wrap;html=1;" vertex="1" parent="Oy-TWGADdTAekCu63_Ab-92">
          <mxGeometry x="30" width="90" height="30" as="geometry">
            <mxRectangle width="90" height="30" as="alternateBounds" />
          </mxGeometry>
        </mxCell>
        <mxCell id="KH00YTPOxJegBAQQi8B_-22" value="varchar(20)" style="shape=partialRectangle;connectable=0;fillColor=none;top=0;left=0;bottom=0;right=0;align=left;spacingLeft=6;overflow=hidden;whiteSpace=wrap;html=1;" vertex="1" parent="Oy-TWGADdTAekCu63_Ab-92">
          <mxGeometry x="120" width="80" height="30" as="geometry">
            <mxRectangle width="80" height="30" as="alternateBounds" />
          </mxGeometry>
        </mxCell>
        <mxCell id="GWtwd3Tiu07Vp1fqFDIl-221" style="shape=tableRow;horizontal=0;startSize=0;swimlaneHead=0;swimlaneBody=0;fillColor=none;collapsible=0;dropTarget=0;points=[[0,0.5],[1,0.5]];portConstraint=eastwest;top=0;left=0;right=0;bottom=0;" vertex="1" parent="Oy-TWGADdTAekCu63_Ab-85">
          <mxGeometry y="120" width="200" height="30" as="geometry" />
        </mxCell>
        <mxCell id="GWtwd3Tiu07Vp1fqFDIl-222" value="FK1" style="shape=partialRectangle;connectable=0;fillColor=none;top=0;left=0;bottom=0;right=0;editable=1;overflow=hidden;whiteSpace=wrap;html=1;" vertex="1" parent="GWtwd3Tiu07Vp1fqFDIl-221">
          <mxGeometry width="30" height="30" as="geometry">
            <mxRectangle width="30" height="30" as="alternateBounds" />
          </mxGeometry>
        </mxCell>
        <mxCell id="GWtwd3Tiu07Vp1fqFDIl-223" value="OrderID" style="shape=partialRectangle;connectable=0;fillColor=none;top=0;left=0;bottom=0;right=0;align=left;spacingLeft=6;overflow=hidden;whiteSpace=wrap;html=1;" vertex="1" parent="GWtwd3Tiu07Vp1fqFDIl-221">
          <mxGeometry x="30" width="90" height="30" as="geometry">
            <mxRectangle width="90" height="30" as="alternateBounds" />
          </mxGeometry>
        </mxCell>
        <mxCell id="KH00YTPOxJegBAQQi8B_-23" value="int" style="shape=partialRectangle;connectable=0;fillColor=none;top=0;left=0;bottom=0;right=0;align=left;spacingLeft=6;overflow=hidden;whiteSpace=wrap;html=1;" vertex="1" parent="GWtwd3Tiu07Vp1fqFDIl-221">
          <mxGeometry x="120" width="80" height="30" as="geometry">
            <mxRectangle width="80" height="30" as="alternateBounds" />
          </mxGeometry>
        </mxCell>
        <mxCell id="GWtwd3Tiu07Vp1fqFDIl-224" style="shape=tableRow;horizontal=0;startSize=0;swimlaneHead=0;swimlaneBody=0;fillColor=none;collapsible=0;dropTarget=0;points=[[0,0.5],[1,0.5]];portConstraint=eastwest;top=0;left=0;right=0;bottom=0;" vertex="1" parent="Oy-TWGADdTAekCu63_Ab-85">
          <mxGeometry y="150" width="200" height="30" as="geometry" />
        </mxCell>
        <mxCell id="GWtwd3Tiu07Vp1fqFDIl-225" value="FK2" style="shape=partialRectangle;connectable=0;fillColor=none;top=0;left=0;bottom=0;right=0;editable=1;overflow=hidden;whiteSpace=wrap;html=1;" vertex="1" parent="GWtwd3Tiu07Vp1fqFDIl-224">
          <mxGeometry width="30" height="30" as="geometry">
            <mxRectangle width="30" height="30" as="alternateBounds" />
          </mxGeometry>
        </mxCell>
        <mxCell id="GWtwd3Tiu07Vp1fqFDIl-226" value="Restaurant ID" style="shape=partialRectangle;connectable=0;fillColor=none;top=0;left=0;bottom=0;right=0;align=left;spacingLeft=6;overflow=hidden;whiteSpace=wrap;html=1;" vertex="1" parent="GWtwd3Tiu07Vp1fqFDIl-224">
          <mxGeometry x="30" width="90" height="30" as="geometry">
            <mxRectangle width="90" height="30" as="alternateBounds" />
          </mxGeometry>
        </mxCell>
        <mxCell id="KH00YTPOxJegBAQQi8B_-24" value="int" style="shape=partialRectangle;connectable=0;fillColor=none;top=0;left=0;bottom=0;right=0;align=left;spacingLeft=6;overflow=hidden;whiteSpace=wrap;html=1;" vertex="1" parent="GWtwd3Tiu07Vp1fqFDIl-224">
          <mxGeometry x="120" width="80" height="30" as="geometry">
            <mxRectangle width="80" height="30" as="alternateBounds" />
          </mxGeometry>
        </mxCell>
        <mxCell id="GWtwd3Tiu07Vp1fqFDIl-227" style="shape=tableRow;horizontal=0;startSize=0;swimlaneHead=0;swimlaneBody=0;fillColor=none;collapsible=0;dropTarget=0;points=[[0,0.5],[1,0.5]];portConstraint=eastwest;top=0;left=0;right=0;bottom=0;" vertex="1" parent="Oy-TWGADdTAekCu63_Ab-85">
          <mxGeometry y="180" width="200" height="30" as="geometry" />
        </mxCell>
        <mxCell id="GWtwd3Tiu07Vp1fqFDIl-228" value="FK3" style="shape=partialRectangle;connectable=0;fillColor=none;top=0;left=0;bottom=0;right=0;editable=1;overflow=hidden;whiteSpace=wrap;html=1;" vertex="1" parent="GWtwd3Tiu07Vp1fqFDIl-227">
          <mxGeometry width="30" height="30" as="geometry">
            <mxRectangle width="30" height="30" as="alternateBounds" />
          </mxGeometry>
        </mxCell>
        <mxCell id="GWtwd3Tiu07Vp1fqFDIl-229" value="&lt;span style=&quot;color: rgb(0, 0, 0); font-family: Helvetica; font-size: 12px; font-style: normal; font-variant-ligatures: normal; font-variant-caps: normal; font-weight: 400; letter-spacing: normal; orphans: 2; text-align: left; text-indent: 0px; text-transform: none; widows: 2; word-spacing: 0px; -webkit-text-stroke-width: 0px; white-space: normal; background-color: rgb(236, 236, 236); text-decoration-thickness: initial; text-decoration-style: initial; text-decoration-color: initial; float: none; display: inline !important;&quot;&gt;Payroll id&lt;/span&gt;" style="shape=partialRectangle;connectable=0;fillColor=none;top=0;left=0;bottom=0;right=0;align=left;spacingLeft=6;overflow=hidden;whiteSpace=wrap;html=1;" vertex="1" parent="GWtwd3Tiu07Vp1fqFDIl-227">
          <mxGeometry x="30" width="90" height="30" as="geometry">
            <mxRectangle width="90" height="30" as="alternateBounds" />
          </mxGeometry>
        </mxCell>
        <mxCell id="KH00YTPOxJegBAQQi8B_-25" value="int" style="shape=partialRectangle;connectable=0;fillColor=none;top=0;left=0;bottom=0;right=0;align=left;spacingLeft=6;overflow=hidden;whiteSpace=wrap;html=1;" vertex="1" parent="GWtwd3Tiu07Vp1fqFDIl-227">
          <mxGeometry x="120" width="80" height="30" as="geometry">
            <mxRectangle width="80" height="30" as="alternateBounds" />
          </mxGeometry>
        </mxCell>
        <mxCell id="Oy-TWGADdTAekCu63_Ab-95" value="ORDER" style="shape=table;startSize=30;container=1;collapsible=1;childLayout=tableLayout;fixedRows=1;rowLines=0;fontStyle=1;align=center;resizeLast=1;html=1;spacingBottom=0;" vertex="1" parent="Oy-TWGADdTAekCu63_Ab-1">
          <mxGeometry x="630" y="460" width="250" height="301" as="geometry" />
        </mxCell>
        <mxCell id="Oy-TWGADdTAekCu63_Ab-96" value="" style="shape=tableRow;horizontal=0;startSize=0;swimlaneHead=0;swimlaneBody=0;fillColor=none;collapsible=0;dropTarget=0;points=[[0,0.5],[1,0.5]];portConstraint=eastwest;top=0;left=0;right=0;bottom=1;" vertex="1" parent="Oy-TWGADdTAekCu63_Ab-95">
          <mxGeometry y="30" width="250" height="30" as="geometry" />
        </mxCell>
        <mxCell id="Oy-TWGADdTAekCu63_Ab-97" value="PK" style="shape=partialRectangle;connectable=0;fillColor=none;top=0;left=0;bottom=0;right=0;fontStyle=1;overflow=hidden;whiteSpace=wrap;html=1;" vertex="1" parent="Oy-TWGADdTAekCu63_Ab-96">
          <mxGeometry width="40" height="30" as="geometry">
            <mxRectangle width="40" height="30" as="alternateBounds" />
          </mxGeometry>
        </mxCell>
        <mxCell id="Oy-TWGADdTAekCu63_Ab-98" value="OrderID" style="shape=partialRectangle;connectable=0;fillColor=none;top=0;left=0;bottom=0;right=0;align=left;spacingLeft=6;fontStyle=5;overflow=hidden;whiteSpace=wrap;html=1;" vertex="1" parent="Oy-TWGADdTAekCu63_Ab-96">
          <mxGeometry x="40" width="120" height="30" as="geometry">
            <mxRectangle width="120" height="30" as="alternateBounds" />
          </mxGeometry>
        </mxCell>
        <mxCell id="KH00YTPOxJegBAQQi8B_-0" value="&lt;span style=&quot;font-weight: normal;&quot;&gt;int&lt;/span&gt;" style="shape=partialRectangle;connectable=0;fillColor=none;top=0;left=0;bottom=0;right=0;align=left;spacingLeft=6;fontStyle=5;overflow=hidden;whiteSpace=wrap;html=1;" vertex="1" parent="Oy-TWGADdTAekCu63_Ab-96">
          <mxGeometry x="160" width="90" height="30" as="geometry">
            <mxRectangle width="90" height="30" as="alternateBounds" />
          </mxGeometry>
        </mxCell>
        <mxCell id="Oy-TWGADdTAekCu63_Ab-99" style="shape=tableRow;horizontal=0;startSize=0;swimlaneHead=0;swimlaneBody=0;fillColor=none;collapsible=0;dropTarget=0;points=[[0,0.5],[1,0.5]];portConstraint=eastwest;top=0;left=0;right=0;bottom=0;" vertex="1" parent="Oy-TWGADdTAekCu63_Ab-95">
          <mxGeometry y="60" width="250" height="30" as="geometry" />
        </mxCell>
        <mxCell id="Oy-TWGADdTAekCu63_Ab-100" style="shape=partialRectangle;connectable=0;fillColor=none;top=0;left=0;bottom=0;right=0;editable=1;overflow=hidden;whiteSpace=wrap;html=1;" vertex="1" parent="Oy-TWGADdTAekCu63_Ab-99">
          <mxGeometry width="40" height="30" as="geometry">
            <mxRectangle width="40" height="30" as="alternateBounds" />
          </mxGeometry>
        </mxCell>
        <mxCell id="Oy-TWGADdTAekCu63_Ab-101" value="OrderDateTime" style="shape=partialRectangle;connectable=0;fillColor=none;top=0;left=0;bottom=0;right=0;align=left;spacingLeft=6;overflow=hidden;whiteSpace=wrap;html=1;" vertex="1" parent="Oy-TWGADdTAekCu63_Ab-99">
          <mxGeometry x="40" width="120" height="30" as="geometry">
            <mxRectangle width="120" height="30" as="alternateBounds" />
          </mxGeometry>
        </mxCell>
        <mxCell id="KH00YTPOxJegBAQQi8B_-1" value="varchar(20)" style="shape=partialRectangle;connectable=0;fillColor=none;top=0;left=0;bottom=0;right=0;align=left;spacingLeft=6;overflow=hidden;whiteSpace=wrap;html=1;" vertex="1" parent="Oy-TWGADdTAekCu63_Ab-99">
          <mxGeometry x="160" width="90" height="30" as="geometry">
            <mxRectangle width="90" height="30" as="alternateBounds" />
          </mxGeometry>
        </mxCell>
        <mxCell id="Oy-TWGADdTAekCu63_Ab-102" style="shape=tableRow;horizontal=0;startSize=0;swimlaneHead=0;swimlaneBody=0;fillColor=none;collapsible=0;dropTarget=0;points=[[0,0.5],[1,0.5]];portConstraint=eastwest;top=0;left=0;right=0;bottom=0;" vertex="1" parent="Oy-TWGADdTAekCu63_Ab-95">
          <mxGeometry y="90" width="250" height="30" as="geometry" />
        </mxCell>
        <mxCell id="Oy-TWGADdTAekCu63_Ab-103" value="" style="shape=partialRectangle;connectable=0;fillColor=none;top=0;left=0;bottom=0;right=0;editable=1;overflow=hidden;whiteSpace=wrap;html=1;" vertex="1" parent="Oy-TWGADdTAekCu63_Ab-102">
          <mxGeometry width="40" height="30" as="geometry">
            <mxRectangle width="40" height="30" as="alternateBounds" />
          </mxGeometry>
        </mxCell>
        <mxCell id="Oy-TWGADdTAekCu63_Ab-104" value="Status" style="shape=partialRectangle;connectable=0;fillColor=none;top=0;left=0;bottom=0;right=0;align=left;spacingLeft=6;overflow=hidden;whiteSpace=wrap;html=1;" vertex="1" parent="Oy-TWGADdTAekCu63_Ab-102">
          <mxGeometry x="40" width="120" height="30" as="geometry">
            <mxRectangle width="120" height="30" as="alternateBounds" />
          </mxGeometry>
        </mxCell>
        <mxCell id="KH00YTPOxJegBAQQi8B_-2" value="varchar(20)" style="shape=partialRectangle;connectable=0;fillColor=none;top=0;left=0;bottom=0;right=0;align=left;spacingLeft=6;overflow=hidden;whiteSpace=wrap;html=1;" vertex="1" parent="Oy-TWGADdTAekCu63_Ab-102">
          <mxGeometry x="160" width="90" height="30" as="geometry">
            <mxRectangle width="90" height="30" as="alternateBounds" />
          </mxGeometry>
        </mxCell>
        <mxCell id="Oy-TWGADdTAekCu63_Ab-105" style="shape=tableRow;horizontal=0;startSize=0;swimlaneHead=0;swimlaneBody=0;fillColor=none;collapsible=0;dropTarget=0;points=[[0,0.5],[1,0.5]];portConstraint=eastwest;top=0;left=0;right=0;bottom=0;" vertex="1" parent="Oy-TWGADdTAekCu63_Ab-95">
          <mxGeometry y="120" width="250" height="30" as="geometry" />
        </mxCell>
        <mxCell id="Oy-TWGADdTAekCu63_Ab-106" value="" style="shape=partialRectangle;connectable=0;fillColor=none;top=0;left=0;bottom=0;right=0;editable=1;overflow=hidden;whiteSpace=wrap;html=1;" vertex="1" parent="Oy-TWGADdTAekCu63_Ab-105">
          <mxGeometry width="40" height="30" as="geometry">
            <mxRectangle width="40" height="30" as="alternateBounds" />
          </mxGeometry>
        </mxCell>
        <mxCell id="Oy-TWGADdTAekCu63_Ab-107" value="PaymentInfo" style="shape=partialRectangle;connectable=0;fillColor=none;top=0;left=0;bottom=0;right=0;align=left;spacingLeft=6;overflow=hidden;whiteSpace=wrap;html=1;" vertex="1" parent="Oy-TWGADdTAekCu63_Ab-105">
          <mxGeometry x="40" width="120" height="30" as="geometry">
            <mxRectangle width="120" height="30" as="alternateBounds" />
          </mxGeometry>
        </mxCell>
        <mxCell id="KH00YTPOxJegBAQQi8B_-3" value="varchar(20)" style="shape=partialRectangle;connectable=0;fillColor=none;top=0;left=0;bottom=0;right=0;align=left;spacingLeft=6;overflow=hidden;whiteSpace=wrap;html=1;" vertex="1" parent="Oy-TWGADdTAekCu63_Ab-105">
          <mxGeometry x="160" width="90" height="30" as="geometry">
            <mxRectangle width="90" height="30" as="alternateBounds" />
          </mxGeometry>
        </mxCell>
        <mxCell id="Oy-TWGADdTAekCu63_Ab-108" style="shape=tableRow;horizontal=0;startSize=0;swimlaneHead=0;swimlaneBody=0;fillColor=none;collapsible=0;dropTarget=0;points=[[0,0.5],[1,0.5]];portConstraint=eastwest;top=0;left=0;right=0;bottom=0;" vertex="1" parent="Oy-TWGADdTAekCu63_Ab-95">
          <mxGeometry y="150" width="250" height="30" as="geometry" />
        </mxCell>
        <mxCell id="Oy-TWGADdTAekCu63_Ab-109" style="shape=partialRectangle;connectable=0;fillColor=none;top=0;left=0;bottom=0;right=0;editable=1;overflow=hidden;whiteSpace=wrap;html=1;" vertex="1" parent="Oy-TWGADdTAekCu63_Ab-108">
          <mxGeometry width="40" height="30" as="geometry">
            <mxRectangle width="40" height="30" as="alternateBounds" />
          </mxGeometry>
        </mxCell>
        <mxCell id="Oy-TWGADdTAekCu63_Ab-110" value="Transaction amount" style="shape=partialRectangle;connectable=0;fillColor=none;top=0;left=0;bottom=0;right=0;align=left;spacingLeft=6;overflow=hidden;whiteSpace=wrap;html=1;" vertex="1" parent="Oy-TWGADdTAekCu63_Ab-108">
          <mxGeometry x="40" width="120" height="30" as="geometry">
            <mxRectangle width="120" height="30" as="alternateBounds" />
          </mxGeometry>
        </mxCell>
        <mxCell id="KH00YTPOxJegBAQQi8B_-4" value="int" style="shape=partialRectangle;connectable=0;fillColor=none;top=0;left=0;bottom=0;right=0;align=left;spacingLeft=6;overflow=hidden;whiteSpace=wrap;html=1;" vertex="1" parent="Oy-TWGADdTAekCu63_Ab-108">
          <mxGeometry x="160" width="90" height="30" as="geometry">
            <mxRectangle width="90" height="30" as="alternateBounds" />
          </mxGeometry>
        </mxCell>
        <mxCell id="Oy-TWGADdTAekCu63_Ab-111" style="shape=tableRow;horizontal=0;startSize=0;swimlaneHead=0;swimlaneBody=0;fillColor=none;collapsible=0;dropTarget=0;points=[[0,0.5],[1,0.5]];portConstraint=eastwest;top=0;left=0;right=0;bottom=0;" vertex="1" parent="Oy-TWGADdTAekCu63_Ab-95">
          <mxGeometry y="180" width="250" height="30" as="geometry" />
        </mxCell>
        <mxCell id="Oy-TWGADdTAekCu63_Ab-112" style="shape=partialRectangle;connectable=0;fillColor=none;top=0;left=0;bottom=0;right=0;editable=1;overflow=hidden;whiteSpace=wrap;html=1;" vertex="1" parent="Oy-TWGADdTAekCu63_Ab-111">
          <mxGeometry width="40" height="30" as="geometry">
            <mxRectangle width="40" height="30" as="alternateBounds" />
          </mxGeometry>
        </mxCell>
        <mxCell id="Oy-TWGADdTAekCu63_Ab-113" value="tip" style="shape=partialRectangle;connectable=0;fillColor=none;top=0;left=0;bottom=0;right=0;align=left;spacingLeft=6;overflow=hidden;whiteSpace=wrap;html=1;" vertex="1" parent="Oy-TWGADdTAekCu63_Ab-111">
          <mxGeometry x="40" width="120" height="30" as="geometry">
            <mxRectangle width="120" height="30" as="alternateBounds" />
          </mxGeometry>
        </mxCell>
        <mxCell id="KH00YTPOxJegBAQQi8B_-5" value="int" style="shape=partialRectangle;connectable=0;fillColor=none;top=0;left=0;bottom=0;right=0;align=left;spacingLeft=6;overflow=hidden;whiteSpace=wrap;html=1;" vertex="1" parent="Oy-TWGADdTAekCu63_Ab-111">
          <mxGeometry x="160" width="90" height="30" as="geometry">
            <mxRectangle width="90" height="30" as="alternateBounds" />
          </mxGeometry>
        </mxCell>
        <mxCell id="Oy-TWGADdTAekCu63_Ab-114" style="shape=tableRow;horizontal=0;startSize=0;swimlaneHead=0;swimlaneBody=0;fillColor=none;collapsible=0;dropTarget=0;points=[[0,0.5],[1,0.5]];portConstraint=eastwest;top=0;left=0;right=0;bottom=0;" vertex="1" parent="Oy-TWGADdTAekCu63_Ab-95">
          <mxGeometry y="210" width="250" height="30" as="geometry" />
        </mxCell>
        <mxCell id="Oy-TWGADdTAekCu63_Ab-115" style="shape=partialRectangle;connectable=0;fillColor=none;top=0;left=0;bottom=0;right=0;editable=1;overflow=hidden;whiteSpace=wrap;html=1;" vertex="1" parent="Oy-TWGADdTAekCu63_Ab-114">
          <mxGeometry width="40" height="30" as="geometry">
            <mxRectangle width="40" height="30" as="alternateBounds" />
          </mxGeometry>
        </mxCell>
        <mxCell id="Oy-TWGADdTAekCu63_Ab-116" value="tax" style="shape=partialRectangle;connectable=0;fillColor=none;top=0;left=0;bottom=0;right=0;align=left;spacingLeft=6;overflow=hidden;whiteSpace=wrap;html=1;" vertex="1" parent="Oy-TWGADdTAekCu63_Ab-114">
          <mxGeometry x="40" width="120" height="30" as="geometry">
            <mxRectangle width="120" height="30" as="alternateBounds" />
          </mxGeometry>
        </mxCell>
        <mxCell id="KH00YTPOxJegBAQQi8B_-6" value="int" style="shape=partialRectangle;connectable=0;fillColor=none;top=0;left=0;bottom=0;right=0;align=left;spacingLeft=6;overflow=hidden;whiteSpace=wrap;html=1;" vertex="1" parent="Oy-TWGADdTAekCu63_Ab-114">
          <mxGeometry x="160" width="90" height="30" as="geometry">
            <mxRectangle width="90" height="30" as="alternateBounds" />
          </mxGeometry>
        </mxCell>
        <mxCell id="Oy-TWGADdTAekCu63_Ab-117" style="shape=tableRow;horizontal=0;startSize=0;swimlaneHead=0;swimlaneBody=0;fillColor=none;collapsible=0;dropTarget=0;points=[[0,0.5],[1,0.5]];portConstraint=eastwest;top=0;left=0;right=0;bottom=0;" vertex="1" parent="Oy-TWGADdTAekCu63_Ab-95">
          <mxGeometry y="240" width="250" height="30" as="geometry" />
        </mxCell>
        <mxCell id="Oy-TWGADdTAekCu63_Ab-118" value="FK1" style="shape=partialRectangle;connectable=0;fillColor=none;top=0;left=0;bottom=0;right=0;editable=1;overflow=hidden;whiteSpace=wrap;html=1;" vertex="1" parent="Oy-TWGADdTAekCu63_Ab-117">
          <mxGeometry width="40" height="30" as="geometry">
            <mxRectangle width="40" height="30" as="alternateBounds" />
          </mxGeometry>
        </mxCell>
        <mxCell id="Oy-TWGADdTAekCu63_Ab-119" value="&lt;span style=&quot;color: rgb(0, 0, 0); font-family: Helvetica; font-size: 12px; font-style: normal; font-variant-ligatures: normal; font-variant-caps: normal; font-weight: 400; letter-spacing: normal; orphans: 2; text-align: left; text-indent: 0px; text-transform: none; widows: 2; word-spacing: 0px; -webkit-text-stroke-width: 0px; white-space: normal; background-color: rgb(236, 236, 236); text-decoration-thickness: initial; text-decoration-style: initial; text-decoration-color: initial; float: none; display: inline !important;&quot;&gt;Name&lt;/span&gt;" style="shape=partialRectangle;connectable=0;fillColor=none;top=0;left=0;bottom=0;right=0;align=left;spacingLeft=6;overflow=hidden;whiteSpace=wrap;html=1;" vertex="1" parent="Oy-TWGADdTAekCu63_Ab-117">
          <mxGeometry x="40" width="120" height="30" as="geometry">
            <mxRectangle width="120" height="30" as="alternateBounds" />
          </mxGeometry>
        </mxCell>
        <mxCell id="KH00YTPOxJegBAQQi8B_-7" value="varchar(20)" style="shape=partialRectangle;connectable=0;fillColor=none;top=0;left=0;bottom=0;right=0;align=left;spacingLeft=6;overflow=hidden;whiteSpace=wrap;html=1;" vertex="1" parent="Oy-TWGADdTAekCu63_Ab-117">
          <mxGeometry x="160" width="90" height="30" as="geometry">
            <mxRectangle width="90" height="30" as="alternateBounds" />
          </mxGeometry>
        </mxCell>
        <mxCell id="GWtwd3Tiu07Vp1fqFDIl-215" style="shape=tableRow;horizontal=0;startSize=0;swimlaneHead=0;swimlaneBody=0;fillColor=none;collapsible=0;dropTarget=0;points=[[0,0.5],[1,0.5]];portConstraint=eastwest;top=0;left=0;right=0;bottom=0;" vertex="1" parent="Oy-TWGADdTAekCu63_Ab-95">
          <mxGeometry y="270" width="250" height="30" as="geometry" />
        </mxCell>
        <mxCell id="GWtwd3Tiu07Vp1fqFDIl-216" value="FK2" style="shape=partialRectangle;connectable=0;fillColor=none;top=0;left=0;bottom=0;right=0;editable=1;overflow=hidden;whiteSpace=wrap;html=1;" vertex="1" parent="GWtwd3Tiu07Vp1fqFDIl-215">
          <mxGeometry width="40" height="30" as="geometry">
            <mxRectangle width="40" height="30" as="alternateBounds" />
          </mxGeometry>
        </mxCell>
        <mxCell id="GWtwd3Tiu07Vp1fqFDIl-217" value="Restaurant ID" style="shape=partialRectangle;connectable=0;fillColor=none;top=0;left=0;bottom=0;right=0;align=left;spacingLeft=6;overflow=hidden;whiteSpace=wrap;html=1;" vertex="1" parent="GWtwd3Tiu07Vp1fqFDIl-215">
          <mxGeometry x="40" width="120" height="30" as="geometry">
            <mxRectangle width="120" height="30" as="alternateBounds" />
          </mxGeometry>
        </mxCell>
        <mxCell id="KH00YTPOxJegBAQQi8B_-8" value="int" style="shape=partialRectangle;connectable=0;fillColor=none;top=0;left=0;bottom=0;right=0;align=left;spacingLeft=6;overflow=hidden;whiteSpace=wrap;html=1;" vertex="1" parent="GWtwd3Tiu07Vp1fqFDIl-215">
          <mxGeometry x="160" width="90" height="30" as="geometry">
            <mxRectangle width="90" height="30" as="alternateBounds" />
          </mxGeometry>
        </mxCell>
        <mxCell id="Oy-TWGADdTAekCu63_Ab-120" value="" style="edgeStyle=entityRelationEdgeStyle;fontSize=12;html=1;endArrow=ERzeroToMany;startArrow=ERmandOne;rounded=0;exitX=-0.002;exitY=-0.017;exitDx=0;exitDy=0;exitPerimeter=0;strokeWidth=1;curved=0;sourcePerimeterSpacing=100;flowAnimation=0;" edge="1" parent="Oy-TWGADdTAekCu63_Ab-1" source="Oy-TWGADdTAekCu63_Ab-62" target="Oy-TWGADdTAekCu63_Ab-102">
          <mxGeometry width="100" height="100" relative="1" as="geometry">
            <mxPoint x="1170" y="760" as="sourcePoint" />
            <mxPoint x="820" y="515" as="targetPoint" />
          </mxGeometry>
        </mxCell>
        <mxCell id="GWtwd3Tiu07Vp1fqFDIl-253" value="Has" style="edgeLabel;html=1;align=center;verticalAlign=middle;resizable=0;points=[];" connectable="0" vertex="1" parent="Oy-TWGADdTAekCu63_Ab-120">
          <mxGeometry x="0.1648" y="-4" relative="1" as="geometry">
            <mxPoint as="offset" />
          </mxGeometry>
        </mxCell>
        <mxCell id="Oy-TWGADdTAekCu63_Ab-121" style="edgeStyle=orthogonalEdgeStyle;rounded=0;orthogonalLoop=1;jettySize=auto;html=1;endArrow=ERoneToMany;endFill=0;startArrow=ERmandOne;startFill=0;" edge="1" parent="Oy-TWGADdTAekCu63_Ab-1" source="pq9HvEjPopNlrJPay7n2-40" target="GWtwd3Tiu07Vp1fqFDIl-215">
          <mxGeometry relative="1" as="geometry">
            <Array as="points">
              <mxPoint x="760" y="780" />
              <mxPoint x="760" y="780" />
            </Array>
            <mxPoint x="760" y="850" as="sourcePoint" />
            <mxPoint x="690" y="790" as="targetPoint" />
          </mxGeometry>
        </mxCell>
        <mxCell id="GWtwd3Tiu07Vp1fqFDIl-255" value="Has" style="edgeLabel;html=1;align=center;verticalAlign=middle;resizable=0;points=[];" connectable="0" vertex="1" parent="Oy-TWGADdTAekCu63_Ab-121">
          <mxGeometry x="-0.0838" y="1" relative="1" as="geometry">
            <mxPoint as="offset" />
          </mxGeometry>
        </mxCell>
        <mxCell id="Oy-TWGADdTAekCu63_Ab-153" value="" style="fontSize=12;html=1;endArrow=ERoneToMany;startArrow=ERmandOne;startSize=8;endSize=8;fillColor=#f8cecc;strokeColor=#000000;edgeStyle=orthogonalEdgeStyle;" edge="1" parent="Oy-TWGADdTAekCu63_Ab-1" source="aUAg0FejUxf_RSIGZSlg-41" target="aUAg0FejUxf_RSIGZSlg-73">
          <mxGeometry width="100" height="100" relative="1" as="geometry">
            <mxPoint x="1349.17" y="1370" as="sourcePoint" />
            <mxPoint x="1701" y="1350" as="targetPoint" />
          </mxGeometry>
        </mxCell>
        <mxCell id="Oy-TWGADdTAekCu63_Ab-177" value="" style="fontSize=12;html=1;endArrow=ERzeroToMany;startArrow=ERmandOne;startSize=8;endSize=8;fillColor=#f8cecc;strokeColor=light-dark(#000000, #d7817e);exitX=0;exitY=0.5;exitDx=0;exitDy=0;edgeStyle=orthogonalEdgeStyle;" edge="1" parent="Oy-TWGADdTAekCu63_Ab-1" source="aUAg0FejUxf_RSIGZSlg-51" target="aUAg0FejUxf_RSIGZSlg-112">
          <mxGeometry width="100" height="100" relative="1" as="geometry">
            <mxPoint x="990" y="1709.82" as="sourcePoint" />
            <mxPoint x="890" y="1360" as="targetPoint" />
          </mxGeometry>
        </mxCell>
        <mxCell id="Oy-TWGADdTAekCu63_Ab-182" value="ORDERITEM" style="shape=table;startSize=30;container=1;collapsible=1;childLayout=tableLayout;fixedRows=1;rowLines=0;fontStyle=1;align=center;resizeLast=1;html=1;rounded=1;arcSize=50;" vertex="1" parent="Oy-TWGADdTAekCu63_Ab-1">
          <mxGeometry x="270" y="505" width="170" height="180" as="geometry" />
        </mxCell>
        <mxCell id="Oy-TWGADdTAekCu63_Ab-183" value="" style="shape=tableRow;horizontal=0;startSize=0;swimlaneHead=0;swimlaneBody=0;fillColor=none;collapsible=0;dropTarget=0;points=[[0,0.5],[1,0.5]];portConstraint=eastwest;top=0;left=0;right=0;bottom=1;" vertex="1" parent="Oy-TWGADdTAekCu63_Ab-182">
          <mxGeometry y="30" width="170" height="30" as="geometry" />
        </mxCell>
        <mxCell id="Oy-TWGADdTAekCu63_Ab-184" value="PK" style="shape=partialRectangle;connectable=0;fillColor=none;top=0;left=0;bottom=0;right=0;fontStyle=1;overflow=hidden;whiteSpace=wrap;html=1;" vertex="1" parent="Oy-TWGADdTAekCu63_Ab-183">
          <mxGeometry width="30" height="30" as="geometry">
            <mxRectangle width="30" height="30" as="alternateBounds" />
          </mxGeometry>
        </mxCell>
        <mxCell id="Oy-TWGADdTAekCu63_Ab-185" value="OrderItemID" style="shape=partialRectangle;connectable=0;fillColor=none;top=0;left=0;bottom=0;right=0;align=left;spacingLeft=6;fontStyle=5;overflow=hidden;whiteSpace=wrap;html=1;" vertex="1" parent="Oy-TWGADdTAekCu63_Ab-183">
          <mxGeometry x="30" width="80" height="30" as="geometry">
            <mxRectangle width="80" height="30" as="alternateBounds" />
          </mxGeometry>
        </mxCell>
        <mxCell id="KH00YTPOxJegBAQQi8B_-11" value="&lt;span style=&quot;font-weight: 400;&quot;&gt;int&lt;/span&gt;" style="shape=partialRectangle;connectable=0;fillColor=none;top=0;left=0;bottom=0;right=0;align=left;spacingLeft=6;fontStyle=5;overflow=hidden;whiteSpace=wrap;html=1;" vertex="1" parent="Oy-TWGADdTAekCu63_Ab-183">
          <mxGeometry x="110" width="60" height="30" as="geometry">
            <mxRectangle width="60" height="30" as="alternateBounds" />
          </mxGeometry>
        </mxCell>
        <mxCell id="Oy-TWGADdTAekCu63_Ab-186" value="" style="shape=tableRow;horizontal=0;startSize=0;swimlaneHead=0;swimlaneBody=0;fillColor=none;collapsible=0;dropTarget=0;points=[[0,0.5],[1,0.5]];portConstraint=eastwest;top=0;left=0;right=0;bottom=0;" vertex="1" parent="Oy-TWGADdTAekCu63_Ab-182">
          <mxGeometry y="60" width="170" height="30" as="geometry" />
        </mxCell>
        <mxCell id="Oy-TWGADdTAekCu63_Ab-187" value="" style="shape=partialRectangle;connectable=0;fillColor=none;top=0;left=0;bottom=0;right=0;editable=1;overflow=hidden;whiteSpace=wrap;html=1;" vertex="1" parent="Oy-TWGADdTAekCu63_Ab-186">
          <mxGeometry width="30" height="30" as="geometry">
            <mxRectangle width="30" height="30" as="alternateBounds" />
          </mxGeometry>
        </mxCell>
        <mxCell id="Oy-TWGADdTAekCu63_Ab-188" value="Quantity" style="shape=partialRectangle;connectable=0;fillColor=none;top=0;left=0;bottom=0;right=0;align=left;spacingLeft=6;overflow=hidden;whiteSpace=wrap;html=1;" vertex="1" parent="Oy-TWGADdTAekCu63_Ab-186">
          <mxGeometry x="30" width="80" height="30" as="geometry">
            <mxRectangle width="80" height="30" as="alternateBounds" />
          </mxGeometry>
        </mxCell>
        <mxCell id="KH00YTPOxJegBAQQi8B_-12" value="int" style="shape=partialRectangle;connectable=0;fillColor=none;top=0;left=0;bottom=0;right=0;align=left;spacingLeft=6;overflow=hidden;whiteSpace=wrap;html=1;" vertex="1" parent="Oy-TWGADdTAekCu63_Ab-186">
          <mxGeometry x="110" width="60" height="30" as="geometry">
            <mxRectangle width="60" height="30" as="alternateBounds" />
          </mxGeometry>
        </mxCell>
        <mxCell id="Oy-TWGADdTAekCu63_Ab-189" value="" style="shape=tableRow;horizontal=0;startSize=0;swimlaneHead=0;swimlaneBody=0;fillColor=none;collapsible=0;dropTarget=0;points=[[0,0.5],[1,0.5]];portConstraint=eastwest;top=0;left=0;right=0;bottom=0;" vertex="1" parent="Oy-TWGADdTAekCu63_Ab-182">
          <mxGeometry y="90" width="170" height="30" as="geometry" />
        </mxCell>
        <mxCell id="Oy-TWGADdTAekCu63_Ab-190" value="" style="shape=partialRectangle;connectable=0;fillColor=none;top=0;left=0;bottom=0;right=0;editable=1;overflow=hidden;whiteSpace=wrap;html=1;" vertex="1" parent="Oy-TWGADdTAekCu63_Ab-189">
          <mxGeometry width="30" height="30" as="geometry">
            <mxRectangle width="30" height="30" as="alternateBounds" />
          </mxGeometry>
        </mxCell>
        <mxCell id="Oy-TWGADdTAekCu63_Ab-191" value="UnitPrice" style="shape=partialRectangle;connectable=0;fillColor=none;top=0;left=0;bottom=0;right=0;align=left;spacingLeft=6;overflow=hidden;whiteSpace=wrap;html=1;" vertex="1" parent="Oy-TWGADdTAekCu63_Ab-189">
          <mxGeometry x="30" width="80" height="30" as="geometry">
            <mxRectangle width="80" height="30" as="alternateBounds" />
          </mxGeometry>
        </mxCell>
        <mxCell id="KH00YTPOxJegBAQQi8B_-13" value="int" style="shape=partialRectangle;connectable=0;fillColor=none;top=0;left=0;bottom=0;right=0;align=left;spacingLeft=6;overflow=hidden;whiteSpace=wrap;html=1;" vertex="1" parent="Oy-TWGADdTAekCu63_Ab-189">
          <mxGeometry x="110" width="60" height="30" as="geometry">
            <mxRectangle width="60" height="30" as="alternateBounds" />
          </mxGeometry>
        </mxCell>
        <mxCell id="GWtwd3Tiu07Vp1fqFDIl-95" style="shape=tableRow;horizontal=0;startSize=0;swimlaneHead=0;swimlaneBody=0;fillColor=none;collapsible=0;dropTarget=0;points=[[0,0.5],[1,0.5]];portConstraint=eastwest;top=0;left=0;right=0;bottom=0;" vertex="1" parent="Oy-TWGADdTAekCu63_Ab-182">
          <mxGeometry y="120" width="170" height="30" as="geometry" />
        </mxCell>
        <mxCell id="GWtwd3Tiu07Vp1fqFDIl-96" value="FK1" style="shape=partialRectangle;connectable=0;fillColor=none;top=0;left=0;bottom=0;right=0;editable=1;overflow=hidden;whiteSpace=wrap;html=1;" vertex="1" parent="GWtwd3Tiu07Vp1fqFDIl-95">
          <mxGeometry width="30" height="30" as="geometry">
            <mxRectangle width="30" height="30" as="alternateBounds" />
          </mxGeometry>
        </mxCell>
        <mxCell id="GWtwd3Tiu07Vp1fqFDIl-97" value="OrderID" style="shape=partialRectangle;connectable=0;fillColor=none;top=0;left=0;bottom=0;right=0;align=left;spacingLeft=6;overflow=hidden;whiteSpace=wrap;html=1;" vertex="1" parent="GWtwd3Tiu07Vp1fqFDIl-95">
          <mxGeometry x="30" width="80" height="30" as="geometry">
            <mxRectangle width="80" height="30" as="alternateBounds" />
          </mxGeometry>
        </mxCell>
        <mxCell id="KH00YTPOxJegBAQQi8B_-14" value="int" style="shape=partialRectangle;connectable=0;fillColor=none;top=0;left=0;bottom=0;right=0;align=left;spacingLeft=6;overflow=hidden;whiteSpace=wrap;html=1;" vertex="1" parent="GWtwd3Tiu07Vp1fqFDIl-95">
          <mxGeometry x="110" width="60" height="30" as="geometry">
            <mxRectangle width="60" height="30" as="alternateBounds" />
          </mxGeometry>
        </mxCell>
        <mxCell id="aUAg0FejUxf_RSIGZSlg-109" style="shape=tableRow;horizontal=0;startSize=0;swimlaneHead=0;swimlaneBody=0;fillColor=none;collapsible=0;dropTarget=0;points=[[0,0.5],[1,0.5]];portConstraint=eastwest;top=0;left=0;right=0;bottom=0;" vertex="1" parent="Oy-TWGADdTAekCu63_Ab-182">
          <mxGeometry y="150" width="170" height="30" as="geometry" />
        </mxCell>
        <mxCell id="aUAg0FejUxf_RSIGZSlg-110" value="FK2" style="shape=partialRectangle;connectable=0;fillColor=none;top=0;left=0;bottom=0;right=0;editable=1;overflow=hidden;whiteSpace=wrap;html=1;" vertex="1" parent="aUAg0FejUxf_RSIGZSlg-109">
          <mxGeometry width="30" height="30" as="geometry">
            <mxRectangle width="30" height="30" as="alternateBounds" />
          </mxGeometry>
        </mxCell>
        <mxCell id="aUAg0FejUxf_RSIGZSlg-111" value="MenuItemID" style="shape=partialRectangle;connectable=0;fillColor=none;top=0;left=0;bottom=0;right=0;align=left;spacingLeft=6;overflow=hidden;whiteSpace=wrap;html=1;" vertex="1" parent="aUAg0FejUxf_RSIGZSlg-109">
          <mxGeometry x="30" width="80" height="30" as="geometry">
            <mxRectangle width="80" height="30" as="alternateBounds" />
          </mxGeometry>
        </mxCell>
        <mxCell id="KH00YTPOxJegBAQQi8B_-15" value="int" style="shape=partialRectangle;connectable=0;fillColor=none;top=0;left=0;bottom=0;right=0;align=left;spacingLeft=6;overflow=hidden;whiteSpace=wrap;html=1;" vertex="1" parent="aUAg0FejUxf_RSIGZSlg-109">
          <mxGeometry x="110" width="60" height="30" as="geometry">
            <mxRectangle width="60" height="30" as="alternateBounds" />
          </mxGeometry>
        </mxCell>
        <mxCell id="Oy-TWGADdTAekCu63_Ab-192" value="" style="fontSize=12;html=1;endArrow=ERoneToMany;startArrow=ERmandOne;rounded=0;exitX=0;exitY=0.5;exitDx=0;exitDy=0;" edge="1" parent="Oy-TWGADdTAekCu63_Ab-1" source="Oy-TWGADdTAekCu63_Ab-105" target="Oy-TWGADdTAekCu63_Ab-182">
          <mxGeometry width="100" height="100" relative="1" as="geometry">
            <mxPoint x="640" y="575" as="sourcePoint" />
            <mxPoint x="460" y="1120" as="targetPoint" />
          </mxGeometry>
        </mxCell>
        <mxCell id="Oy-TWGADdTAekCu63_Ab-206" value="" style="edgeStyle=orthogonalEdgeStyle;fontSize=12;html=1;endArrow=ERzeroToMany;startArrow=ERmandOne;rounded=0;" edge="1" parent="Oy-TWGADdTAekCu63_Ab-1" source="MLKF7ByYXzv3yEHAf3Fh-0" target="Oy-TWGADdTAekCu63_Ab-189">
          <mxGeometry width="100" height="100" relative="1" as="geometry">
            <mxPoint x="570" y="1070" as="sourcePoint" />
            <mxPoint x="550" y="620" as="targetPoint" />
            <Array as="points">
              <mxPoint x="570" y="616" />
            </Array>
          </mxGeometry>
        </mxCell>
        <mxCell id="Oy-TWGADdTAekCu63_Ab-208" value="" style="fontSize=12;html=1;endArrow=ERoneToMany;startArrow=ERmandOne;startSize=8;endSize=8;edgeStyle=orthogonalEdgeStyle;fillColor=#f8cecc;strokeColor=#000000;" edge="1" parent="Oy-TWGADdTAekCu63_Ab-1" source="MLKF7ByYXzv3yEHAf3Fh-0" target="aUAg0FejUxf_RSIGZSlg-112">
          <mxGeometry width="100" height="100" relative="1" as="geometry">
            <mxPoint x="489.9473684210527" y="1250" as="sourcePoint" />
            <mxPoint x="830" y="1250" as="targetPoint" />
            <Array as="points">
              <mxPoint x="1015" y="1171" />
            </Array>
          </mxGeometry>
        </mxCell>
        <mxCell id="qhZaFs2zRKq1nOMeNNNf-1" value="has" style="edgeLabel;html=1;align=center;verticalAlign=middle;resizable=0;points=[];" vertex="1" connectable="0" parent="Oy-TWGADdTAekCu63_Ab-208">
          <mxGeometry x="-0.2457" y="3" relative="1" as="geometry">
            <mxPoint as="offset" />
          </mxGeometry>
        </mxCell>
        <mxCell id="Oy-TWGADdTAekCu63_Ab-211" style="edgeStyle=orthogonalEdgeStyle;rounded=1;orthogonalLoop=1;jettySize=auto;html=1;entryX=0.006;entryY=-0.067;entryDx=0;entryDy=0;entryPerimeter=0;endArrow=ERmandOne;endFill=0;exitX=1.014;exitY=0.837;exitDx=0;exitDy=0;exitPerimeter=0;startArrow=ERmandOne;startFill=0;curved=0;" edge="1" parent="Oy-TWGADdTAekCu63_Ab-1" source="Oy-TWGADdTAekCu63_Ab-105" target="Oy-TWGADdTAekCu63_Ab-78">
          <mxGeometry relative="1" as="geometry" />
        </mxCell>
        <mxCell id="GWtwd3Tiu07Vp1fqFDIl-254" value="is assigned to" style="edgeLabel;html=1;align=center;verticalAlign=middle;resizable=0;points=[];" connectable="0" vertex="1" parent="Oy-TWGADdTAekCu63_Ab-211">
          <mxGeometry x="0.08" y="2" relative="1" as="geometry">
            <mxPoint as="offset" />
          </mxGeometry>
        </mxCell>
        <mxCell id="Oy-TWGADdTAekCu63_Ab-212" style="edgeStyle=orthogonalEdgeStyle;rounded=0;orthogonalLoop=1;jettySize=auto;html=1;entryX=0.5;entryY=0;entryDx=0;entryDy=0;endArrow=ERoneToMany;endFill=0;startArrow=ERmandOne;startFill=0;" edge="1" parent="Oy-TWGADdTAekCu63_Ab-1" source="Oy-TWGADdTAekCu63_Ab-59" target="Oy-TWGADdTAekCu63_Ab-3">
          <mxGeometry relative="1" as="geometry" />
        </mxCell>
        <mxCell id="Oy-TWGADdTAekCu63_Ab-213" value="expensed by" style="edgeLabel;html=1;align=center;verticalAlign=middle;resizable=0;points=[];" connectable="0" vertex="1" parent="Oy-TWGADdTAekCu63_Ab-212">
          <mxGeometry x="-0.7815" y="5" relative="1" as="geometry">
            <mxPoint as="offset" />
          </mxGeometry>
        </mxCell>
        <mxCell id="Oy-TWGADdTAekCu63_Ab-214" value="creates" style="edgeLabel;html=1;align=center;verticalAlign=middle;resizable=0;points=[];" connectable="0" vertex="1" parent="Oy-TWGADdTAekCu63_Ab-212">
          <mxGeometry x="0.69" y="-5" relative="1" as="geometry">
            <mxPoint as="offset" />
          </mxGeometry>
        </mxCell>
        <mxCell id="Oy-TWGADdTAekCu63_Ab-216" value="VENDOR EXPENSE" style="shape=table;startSize=20;container=1;collapsible=1;childLayout=tableLayout;fixedRows=1;rowLines=0;fontStyle=1;align=center;resizeLast=1;html=1;fillColor=none;strokeColor=light-dark(#000000, #6d5100);" vertex="1" parent="Oy-TWGADdTAekCu63_Ab-1">
          <mxGeometry x="1550" y="570" width="219.99999999999977" height="170" as="geometry" />
        </mxCell>
        <mxCell id="Oy-TWGADdTAekCu63_Ab-217" value="" style="shape=tableRow;horizontal=0;startSize=0;swimlaneHead=0;swimlaneBody=0;fillColor=none;collapsible=0;dropTarget=0;points=[[0,0.5],[1,0.5]];portConstraint=eastwest;top=0;left=0;right=0;bottom=1;strokeColor=light-dark(#000000, #6d5100);" vertex="1" parent="Oy-TWGADdTAekCu63_Ab-216">
          <mxGeometry y="20" width="219.99999999999977" height="50" as="geometry" />
        </mxCell>
        <mxCell id="Oy-TWGADdTAekCu63_Ab-218" value="PK,FK1" style="shape=partialRectangle;connectable=0;fillColor=none;top=0;left=0;bottom=0;right=0;fontStyle=1;overflow=hidden;whiteSpace=wrap;html=1;strokeColor=light-dark(#000000, #6d5100);" vertex="1" parent="Oy-TWGADdTAekCu63_Ab-217">
          <mxGeometry width="59.99999999999977" height="50" as="geometry">
            <mxRectangle width="59.99999999999977" height="50" as="alternateBounds" />
          </mxGeometry>
        </mxCell>
        <mxCell id="Oy-TWGADdTAekCu63_Ab-219" value="&lt;span style=&quot;text-align: center;&quot;&gt;expense id&lt;/span&gt;" style="shape=partialRectangle;connectable=0;fillColor=none;top=0;left=0;bottom=0;right=0;align=left;spacingLeft=6;fontStyle=5;overflow=hidden;whiteSpace=wrap;html=1;strokeColor=light-dark(#000000, #6d5100);" vertex="1" parent="Oy-TWGADdTAekCu63_Ab-217">
          <mxGeometry x="59.99999999999977" width="80" height="50" as="geometry">
            <mxRectangle width="80" height="50" as="alternateBounds" />
          </mxGeometry>
        </mxCell>
        <mxCell id="KH00YTPOxJegBAQQi8B_-42" value="int" style="shape=partialRectangle;connectable=0;fillColor=none;top=0;left=0;bottom=0;right=0;align=left;spacingLeft=6;fontStyle=5;overflow=hidden;whiteSpace=wrap;html=1;strokeColor=light-dark(#000000, #6d5100);" vertex="1" parent="Oy-TWGADdTAekCu63_Ab-217">
          <mxGeometry x="139.99999999999977" width="80" height="50" as="geometry">
            <mxRectangle width="80" height="50" as="alternateBounds" />
          </mxGeometry>
        </mxCell>
        <mxCell id="GWtwd3Tiu07Vp1fqFDIl-239" style="shape=tableRow;horizontal=0;startSize=0;swimlaneHead=0;swimlaneBody=0;fillColor=none;collapsible=0;dropTarget=0;points=[[0,0.5],[1,0.5]];portConstraint=eastwest;top=0;left=0;right=0;bottom=1;strokeColor=light-dark(#000000, #6d5100);" vertex="1" parent="Oy-TWGADdTAekCu63_Ab-216">
          <mxGeometry y="70" width="219.99999999999977" height="50" as="geometry" />
        </mxCell>
        <mxCell id="GWtwd3Tiu07Vp1fqFDIl-240" value="PK,FK2" style="shape=partialRectangle;connectable=0;fillColor=none;top=0;left=0;bottom=0;right=0;fontStyle=1;overflow=hidden;whiteSpace=wrap;html=1;strokeColor=light-dark(#000000, #6d5100);" vertex="1" parent="GWtwd3Tiu07Vp1fqFDIl-239">
          <mxGeometry width="59.99999999999977" height="50" as="geometry">
            <mxRectangle width="59.99999999999977" height="50" as="alternateBounds" />
          </mxGeometry>
        </mxCell>
        <mxCell id="GWtwd3Tiu07Vp1fqFDIl-241" value="&lt;div style=&quot;text-align: center;&quot;&gt;&lt;span style=&quot;background-color: transparent; color: light-dark(rgb(0, 0, 0), rgb(255, 255, 255));&quot;&gt;vendor_id&lt;/span&gt;&lt;/div&gt;" style="shape=partialRectangle;connectable=0;fillColor=none;top=0;left=0;bottom=0;right=0;align=left;spacingLeft=6;fontStyle=5;overflow=hidden;whiteSpace=wrap;html=1;strokeColor=light-dark(#000000, #6d5100);" vertex="1" parent="GWtwd3Tiu07Vp1fqFDIl-239">
          <mxGeometry x="59.99999999999977" width="80" height="50" as="geometry">
            <mxRectangle width="80" height="50" as="alternateBounds" />
          </mxGeometry>
        </mxCell>
        <mxCell id="KH00YTPOxJegBAQQi8B_-43" value="int" style="shape=partialRectangle;connectable=0;fillColor=none;top=0;left=0;bottom=0;right=0;align=left;spacingLeft=6;fontStyle=5;overflow=hidden;whiteSpace=wrap;html=1;strokeColor=light-dark(#000000, #6d5100);" vertex="1" parent="GWtwd3Tiu07Vp1fqFDIl-239">
          <mxGeometry x="139.99999999999977" width="80" height="50" as="geometry">
            <mxRectangle width="80" height="50" as="alternateBounds" />
          </mxGeometry>
        </mxCell>
        <mxCell id="42ZMMpP-9MhenRWUg_oQ-3" style="shape=tableRow;horizontal=0;startSize=0;swimlaneHead=0;swimlaneBody=0;fillColor=none;collapsible=0;dropTarget=0;points=[[0,0.5],[1,0.5]];portConstraint=eastwest;top=0;left=0;right=0;bottom=1;strokeColor=light-dark(#000000, #6d5100);" vertex="1" parent="Oy-TWGADdTAekCu63_Ab-216">
          <mxGeometry y="120" width="219.99999999999977" height="50" as="geometry" />
        </mxCell>
        <mxCell id="42ZMMpP-9MhenRWUg_oQ-4" style="shape=partialRectangle;connectable=0;fillColor=none;top=0;left=0;bottom=0;right=0;fontStyle=1;overflow=hidden;whiteSpace=wrap;html=1;strokeColor=light-dark(#000000, #6d5100);" vertex="1" parent="42ZMMpP-9MhenRWUg_oQ-3">
          <mxGeometry width="59.99999999999977" height="50" as="geometry">
            <mxRectangle width="59.99999999999977" height="50" as="alternateBounds" />
          </mxGeometry>
        </mxCell>
        <mxCell id="42ZMMpP-9MhenRWUg_oQ-5" value="&lt;span style=&quot;font-weight: normal;&quot;&gt;description&lt;/span&gt;" style="shape=partialRectangle;connectable=0;fillColor=none;top=0;left=0;bottom=0;right=0;align=left;spacingLeft=6;fontStyle=1;overflow=hidden;whiteSpace=wrap;html=1;strokeColor=light-dark(#000000, #6d5100);" vertex="1" parent="42ZMMpP-9MhenRWUg_oQ-3">
          <mxGeometry x="59.99999999999977" width="80" height="50" as="geometry">
            <mxRectangle width="80" height="50" as="alternateBounds" />
          </mxGeometry>
        </mxCell>
        <mxCell id="KH00YTPOxJegBAQQi8B_-44" value="&lt;span style=&quot;font-weight: 400;&quot;&gt;varchar(500)&lt;/span&gt;" style="shape=partialRectangle;connectable=0;fillColor=none;top=0;left=0;bottom=0;right=0;align=left;spacingLeft=6;fontStyle=1;overflow=hidden;whiteSpace=wrap;html=1;strokeColor=light-dark(#000000, #6d5100);" vertex="1" parent="42ZMMpP-9MhenRWUg_oQ-3">
          <mxGeometry x="139.99999999999977" width="80" height="50" as="geometry">
            <mxRectangle width="80" height="50" as="alternateBounds" />
          </mxGeometry>
        </mxCell>
        <mxCell id="kOPnxW-6sD8P4VorNryc-2" value="" style="group" connectable="0" vertex="1" parent="Oy-TWGADdTAekCu63_Ab-1">
          <mxGeometry x="2210" y="1200" width="740" height="280" as="geometry" />
        </mxCell>
        <mxCell id="kOPnxW-6sD8P4VorNryc-0" style="edgeStyle=none;rounded=0;orthogonalLoop=1;jettySize=auto;html=1;entryX=0.077;entryY=1.017;entryDx=0;entryDy=0;entryPerimeter=0;curved=1;" edge="1" parent="kOPnxW-6sD8P4VorNryc-2">
          <mxGeometry relative="1" as="geometry">
            <Array as="points">
              <mxPoint y="180" />
            </Array>
            <mxPoint x="143.95699999999943" y="120.68000000000029" as="targetPoint" />
          </mxGeometry>
        </mxCell>
        <mxCell id="kOPnxW-6sD8P4VorNryc-8" style="edgeStyle=none;rounded=1;orthogonalLoop=1;jettySize=auto;html=1;entryX=0.409;entryY=0.969;entryDx=0;entryDy=0;entryPerimeter=0;endArrow=ERmandOne;endFill=0;startArrow=ERoneToMany;startFill=0;exitX=0.5;exitY=0;exitDx=0;exitDy=0;curved=0;" edge="1" parent="Oy-TWGADdTAekCu63_Ab-1" source="Oy-TWGADdTAekCu63_Ab-71">
          <mxGeometry relative="1" as="geometry">
            <Array as="points">
              <mxPoint x="1180" y="850" />
            </Array>
          </mxGeometry>
        </mxCell>
        <mxCell id="13zJe6wU1SvK9owKlDN8-0" value="" style="fontSize=12;html=1;endArrow=ERzeroToMany;startArrow=ERone;rounded=0;edgeStyle=orthogonalEdgeStyle;startFill=0;" edge="1" parent="Oy-TWGADdTAekCu63_Ab-1" source="VdMrfSbUzYThH-OYRioD-51" target="Oy-TWGADdTAekCu63_Ab-71">
          <mxGeometry width="100" height="100" relative="1" as="geometry">
            <mxPoint x="1120" y="850" as="sourcePoint" />
            <mxPoint x="1270" y="910" as="targetPoint" />
            <Array as="points">
              <mxPoint x="1150" y="970" />
            </Array>
          </mxGeometry>
        </mxCell>
        <mxCell id="13zJe6wU1SvK9owKlDN8-1" value="has" style="edgeLabel;html=1;align=center;verticalAlign=middle;resizable=0;points=[];" connectable="0" vertex="1" parent="13zJe6wU1SvK9owKlDN8-0">
          <mxGeometry x="-0.7759" y="2" relative="1" as="geometry">
            <mxPoint as="offset" />
          </mxGeometry>
        </mxCell>
        <mxCell id="13zJe6wU1SvK9owKlDN8-3" value="owned by" style="edgeLabel;html=1;align=center;verticalAlign=middle;resizable=0;points=[];" connectable="0" vertex="1" parent="13zJe6wU1SvK9owKlDN8-0">
          <mxGeometry x="0.6247" y="2" relative="1" as="geometry">
            <mxPoint as="offset" />
          </mxGeometry>
        </mxCell>
        <mxCell id="aUAg0FejUxf_RSIGZSlg-17" value="SUPPLIER DELIVERY" style="shape=table;startSize=30;container=1;collapsible=1;childLayout=tableLayout;fixedRows=1;rowLines=0;fontStyle=1;align=center;resizeLast=1;html=1;whiteSpace=wrap;" vertex="1" parent="Oy-TWGADdTAekCu63_Ab-1">
          <mxGeometry x="1230" y="860" width="230" height="170" as="geometry" />
        </mxCell>
        <mxCell id="aUAg0FejUxf_RSIGZSlg-18" value="" style="shape=tableRow;horizontal=0;startSize=0;swimlaneHead=0;swimlaneBody=0;fillColor=none;collapsible=0;dropTarget=0;points=[[0,0.5],[1,0.5]];portConstraint=eastwest;top=0;left=0;right=0;bottom=0;html=1;" vertex="1" parent="aUAg0FejUxf_RSIGZSlg-17">
          <mxGeometry y="30" width="230" height="20" as="geometry" />
        </mxCell>
        <mxCell id="aUAg0FejUxf_RSIGZSlg-19" value="PK" style="shape=partialRectangle;connectable=0;fillColor=none;top=0;left=0;bottom=0;right=0;fontStyle=1;overflow=hidden;html=1;whiteSpace=wrap;" vertex="1" parent="aUAg0FejUxf_RSIGZSlg-18">
          <mxGeometry width="60" height="20" as="geometry">
            <mxRectangle width="60" height="20" as="alternateBounds" />
          </mxGeometry>
        </mxCell>
        <mxCell id="aUAg0FejUxf_RSIGZSlg-20" value="delivery_id" style="shape=partialRectangle;connectable=0;fillColor=none;top=0;left=0;bottom=0;right=0;align=left;spacingLeft=6;fontStyle=5;overflow=hidden;html=1;whiteSpace=wrap;" vertex="1" parent="aUAg0FejUxf_RSIGZSlg-18">
          <mxGeometry x="60" width="89.99999999999977" height="20" as="geometry">
            <mxRectangle width="89.99999999999977" height="20" as="alternateBounds" />
          </mxGeometry>
        </mxCell>
        <mxCell id="LA_D0svQ92RpoAtAq2fH-20" value="int" style="shape=partialRectangle;connectable=0;fillColor=none;top=0;left=0;bottom=0;right=0;align=left;spacingLeft=6;fontStyle=5;overflow=hidden;html=1;whiteSpace=wrap;" vertex="1" parent="aUAg0FejUxf_RSIGZSlg-18">
          <mxGeometry x="149.99999999999977" width="80.00000000000023" height="20" as="geometry">
            <mxRectangle width="80.00000000000023" height="20" as="alternateBounds" />
          </mxGeometry>
        </mxCell>
        <mxCell id="aUAg0FejUxf_RSIGZSlg-33" style="shape=tableRow;horizontal=0;startSize=0;swimlaneHead=0;swimlaneBody=0;fillColor=none;collapsible=0;dropTarget=0;points=[[0,0.5],[1,0.5]];portConstraint=eastwest;top=0;left=0;right=0;bottom=0;html=1;" vertex="1" parent="aUAg0FejUxf_RSIGZSlg-17">
          <mxGeometry y="50" width="230" height="30" as="geometry" />
        </mxCell>
        <mxCell id="aUAg0FejUxf_RSIGZSlg-34" value="FK1" style="shape=partialRectangle;connectable=0;fillColor=none;top=0;left=0;bottom=0;right=0;fontStyle=1;overflow=hidden;html=1;whiteSpace=wrap;" vertex="1" parent="aUAg0FejUxf_RSIGZSlg-33">
          <mxGeometry width="60" height="30" as="geometry">
            <mxRectangle width="60" height="30" as="alternateBounds" />
          </mxGeometry>
        </mxCell>
        <mxCell id="aUAg0FejUxf_RSIGZSlg-35" value="restaurant_id" style="shape=partialRectangle;connectable=0;fillColor=none;top=0;left=0;bottom=0;right=0;align=left;spacingLeft=6;fontStyle=5;overflow=hidden;html=1;whiteSpace=wrap;" vertex="1" parent="aUAg0FejUxf_RSIGZSlg-33">
          <mxGeometry x="60" width="89.99999999999977" height="30" as="geometry">
            <mxRectangle width="89.99999999999977" height="30" as="alternateBounds" />
          </mxGeometry>
        </mxCell>
        <mxCell id="LA_D0svQ92RpoAtAq2fH-21" value="int" style="shape=partialRectangle;connectable=0;fillColor=none;top=0;left=0;bottom=0;right=0;align=left;spacingLeft=6;fontStyle=5;overflow=hidden;html=1;whiteSpace=wrap;" vertex="1" parent="aUAg0FejUxf_RSIGZSlg-33">
          <mxGeometry x="149.99999999999977" width="80.00000000000023" height="30" as="geometry">
            <mxRectangle width="80.00000000000023" height="30" as="alternateBounds" />
          </mxGeometry>
        </mxCell>
        <mxCell id="aUAg0FejUxf_RSIGZSlg-21" value="" style="shape=tableRow;horizontal=0;startSize=0;swimlaneHead=0;swimlaneBody=0;fillColor=none;collapsible=0;dropTarget=0;points=[[0,0.5],[1,0.5]];portConstraint=eastwest;top=0;left=0;right=0;bottom=1;html=1;" vertex="1" parent="aUAg0FejUxf_RSIGZSlg-17">
          <mxGeometry y="80" width="230" height="30" as="geometry" />
        </mxCell>
        <mxCell id="aUAg0FejUxf_RSIGZSlg-22" value="FK2" style="shape=partialRectangle;connectable=0;fillColor=none;top=0;left=0;bottom=0;right=0;fontStyle=1;overflow=hidden;html=1;whiteSpace=wrap;" vertex="1" parent="aUAg0FejUxf_RSIGZSlg-21">
          <mxGeometry width="60" height="30" as="geometry">
            <mxRectangle width="60" height="30" as="alternateBounds" />
          </mxGeometry>
        </mxCell>
        <mxCell id="aUAg0FejUxf_RSIGZSlg-23" value="vendor_id" style="shape=partialRectangle;connectable=0;fillColor=none;top=0;left=0;bottom=0;right=0;align=left;spacingLeft=6;fontStyle=5;overflow=hidden;html=1;whiteSpace=wrap;" vertex="1" parent="aUAg0FejUxf_RSIGZSlg-21">
          <mxGeometry x="60" width="89.99999999999977" height="30" as="geometry">
            <mxRectangle width="89.99999999999977" height="30" as="alternateBounds" />
          </mxGeometry>
        </mxCell>
        <mxCell id="LA_D0svQ92RpoAtAq2fH-22" value="int" style="shape=partialRectangle;connectable=0;fillColor=none;top=0;left=0;bottom=0;right=0;align=left;spacingLeft=6;fontStyle=5;overflow=hidden;html=1;whiteSpace=wrap;" vertex="1" parent="aUAg0FejUxf_RSIGZSlg-21">
          <mxGeometry x="149.99999999999977" width="80.00000000000023" height="30" as="geometry">
            <mxRectangle width="80.00000000000023" height="30" as="alternateBounds" />
          </mxGeometry>
        </mxCell>
        <mxCell id="aUAg0FejUxf_RSIGZSlg-24" value="" style="shape=tableRow;horizontal=0;startSize=0;swimlaneHead=0;swimlaneBody=0;fillColor=none;collapsible=0;dropTarget=0;points=[[0,0.5],[1,0.5]];portConstraint=eastwest;top=0;left=0;right=0;bottom=0;html=1;" vertex="1" parent="aUAg0FejUxf_RSIGZSlg-17">
          <mxGeometry y="110" width="230" height="30" as="geometry" />
        </mxCell>
        <mxCell id="aUAg0FejUxf_RSIGZSlg-25" value="" style="shape=partialRectangle;connectable=0;fillColor=none;top=0;left=0;bottom=0;right=0;editable=1;overflow=hidden;html=1;whiteSpace=wrap;" vertex="1" parent="aUAg0FejUxf_RSIGZSlg-24">
          <mxGeometry width="60" height="30" as="geometry">
            <mxRectangle width="60" height="30" as="alternateBounds" />
          </mxGeometry>
        </mxCell>
        <mxCell id="aUAg0FejUxf_RSIGZSlg-26" value="deliveryDate" style="shape=partialRectangle;connectable=0;fillColor=none;top=0;left=0;bottom=0;right=0;align=left;spacingLeft=6;overflow=hidden;html=1;whiteSpace=wrap;" vertex="1" parent="aUAg0FejUxf_RSIGZSlg-24">
          <mxGeometry x="60" width="89.99999999999977" height="30" as="geometry">
            <mxRectangle width="89.99999999999977" height="30" as="alternateBounds" />
          </mxGeometry>
        </mxCell>
        <mxCell id="LA_D0svQ92RpoAtAq2fH-23" value="date" style="shape=partialRectangle;connectable=0;fillColor=none;top=0;left=0;bottom=0;right=0;align=left;spacingLeft=6;overflow=hidden;html=1;whiteSpace=wrap;" vertex="1" parent="aUAg0FejUxf_RSIGZSlg-24">
          <mxGeometry x="149.99999999999977" width="80.00000000000023" height="30" as="geometry">
            <mxRectangle width="80.00000000000023" height="30" as="alternateBounds" />
          </mxGeometry>
        </mxCell>
        <mxCell id="aUAg0FejUxf_RSIGZSlg-27" value="" style="shape=tableRow;horizontal=0;startSize=0;swimlaneHead=0;swimlaneBody=0;fillColor=none;collapsible=0;dropTarget=0;points=[[0,0.5],[1,0.5]];portConstraint=eastwest;top=0;left=0;right=0;bottom=0;html=1;" vertex="1" parent="aUAg0FejUxf_RSIGZSlg-17">
          <mxGeometry y="140" width="230" height="30" as="geometry" />
        </mxCell>
        <mxCell id="aUAg0FejUxf_RSIGZSlg-28" value="" style="shape=partialRectangle;connectable=0;fillColor=none;top=0;left=0;bottom=0;right=0;editable=1;overflow=hidden;html=1;whiteSpace=wrap;" vertex="1" parent="aUAg0FejUxf_RSIGZSlg-27">
          <mxGeometry width="60" height="30" as="geometry">
            <mxRectangle width="60" height="30" as="alternateBounds" />
          </mxGeometry>
        </mxCell>
        <mxCell id="aUAg0FejUxf_RSIGZSlg-29" value="description" style="shape=partialRectangle;connectable=0;fillColor=none;top=0;left=0;bottom=0;right=0;align=left;spacingLeft=6;overflow=hidden;html=1;whiteSpace=wrap;" vertex="1" parent="aUAg0FejUxf_RSIGZSlg-27">
          <mxGeometry x="60" width="89.99999999999977" height="30" as="geometry">
            <mxRectangle width="89.99999999999977" height="30" as="alternateBounds" />
          </mxGeometry>
        </mxCell>
        <mxCell id="LA_D0svQ92RpoAtAq2fH-24" value="varchar(500)" style="shape=partialRectangle;connectable=0;fillColor=none;top=0;left=0;bottom=0;right=0;align=left;spacingLeft=6;overflow=hidden;html=1;whiteSpace=wrap;" vertex="1" parent="aUAg0FejUxf_RSIGZSlg-27">
          <mxGeometry x="149.99999999999977" width="80.00000000000023" height="30" as="geometry">
            <mxRectangle width="80.00000000000023" height="30" as="alternateBounds" />
          </mxGeometry>
        </mxCell>
        <mxCell id="aUAg0FejUxf_RSIGZSlg-36" value="" style="edgeStyle=orthogonalEdgeStyle;fontSize=12;html=1;endArrow=ERzeroToMany;startArrow=ERmandOne;rounded=1;startSize=8;endSize=8;curved=0;" edge="1" parent="Oy-TWGADdTAekCu63_Ab-1">
          <mxGeometry width="100" height="100" relative="1" as="geometry">
            <mxPoint x="1420" y="669" as="sourcePoint" />
            <mxPoint x="1340" y="859" as="targetPoint" />
            <Array as="points">
              <mxPoint x="1500" y="669" />
              <mxPoint x="1500" y="790" />
              <mxPoint x="1340" y="790" />
            </Array>
          </mxGeometry>
        </mxCell>
        <mxCell id="qhZaFs2zRKq1nOMeNNNf-0" value="has" style="edgeLabel;html=1;align=center;verticalAlign=middle;resizable=0;points=[];" vertex="1" connectable="0" parent="aUAg0FejUxf_RSIGZSlg-36">
          <mxGeometry x="-0.3252" relative="1" as="geometry">
            <mxPoint as="offset" />
          </mxGeometry>
        </mxCell>
        <mxCell id="Oy-TWGADdTAekCu63_Ab-135" value="" style="fontSize=12;html=1;endArrow=ERzeroToMany;startArrow=ERmandOne;startSize=8;endSize=8;" edge="1" parent="Oy-TWGADdTAekCu63_Ab-1" source="Oy-TWGADdTAekCu63_Ab-19" target="aUAg0FejUxf_RSIGZSlg-17">
          <mxGeometry width="100" height="100" relative="1" as="geometry">
            <mxPoint x="1460" y="1180" as="sourcePoint" />
            <mxPoint x="1340" y="1080" as="targetPoint" />
          </mxGeometry>
        </mxCell>
        <mxCell id="aUAg0FejUxf_RSIGZSlg-40" value="" style="fontSize=12;html=1;endArrow=ERzeroToMany;startArrow=ERmandOne;rounded=0;startSize=8;endSize=8;" edge="1" parent="Oy-TWGADdTAekCu63_Ab-1" source="Oy-TWGADdTAekCu63_Ab-19" target="Oy-TWGADdTAekCu63_Ab-216">
          <mxGeometry width="100" height="100" relative="1" as="geometry">
            <mxPoint x="1520" y="880" as="sourcePoint" />
            <mxPoint x="1620" y="780" as="targetPoint" />
          </mxGeometry>
        </mxCell>
        <mxCell id="KH00YTPOxJegBAQQi8B_-51" value="has" style="edgeLabel;html=1;align=center;verticalAlign=middle;resizable=0;points=[];" vertex="1" connectable="0" parent="aUAg0FejUxf_RSIGZSlg-40">
          <mxGeometry x="0.0374" y="2" relative="1" as="geometry">
            <mxPoint as="offset" />
          </mxGeometry>
        </mxCell>
        <mxCell id="aUAg0FejUxf_RSIGZSlg-41" value="INGREDIENT" style="shape=table;startSize=40;container=1;collapsible=1;childLayout=tableLayout;fixedRows=1;rowLines=0;fontStyle=1;align=center;resizeLast=1;html=1;" vertex="1" parent="Oy-TWGADdTAekCu63_Ab-1">
          <mxGeometry x="1250" y="1360" width="259.9999999999998" height="190" as="geometry" />
        </mxCell>
        <mxCell id="aUAg0FejUxf_RSIGZSlg-42" value="" style="shape=tableRow;horizontal=0;startSize=0;swimlaneHead=0;swimlaneBody=0;fillColor=none;collapsible=0;dropTarget=0;points=[[0,0.5],[1,0.5]];portConstraint=eastwest;top=0;left=0;right=0;bottom=1;" vertex="1" parent="aUAg0FejUxf_RSIGZSlg-41">
          <mxGeometry y="40" width="259.9999999999998" height="30" as="geometry" />
        </mxCell>
        <mxCell id="aUAg0FejUxf_RSIGZSlg-43" value="PK" style="shape=partialRectangle;connectable=0;fillColor=none;top=0;left=0;bottom=0;right=0;fontStyle=1;overflow=hidden;whiteSpace=wrap;html=1;" vertex="1" parent="aUAg0FejUxf_RSIGZSlg-42">
          <mxGeometry width="30" height="30" as="geometry">
            <mxRectangle width="30" height="30" as="alternateBounds" />
          </mxGeometry>
        </mxCell>
        <mxCell id="aUAg0FejUxf_RSIGZSlg-44" value="ingredient_id " style="shape=partialRectangle;connectable=0;fillColor=none;top=0;left=0;bottom=0;right=0;align=left;spacingLeft=6;fontStyle=5;overflow=hidden;whiteSpace=wrap;html=1;" vertex="1" parent="aUAg0FejUxf_RSIGZSlg-42">
          <mxGeometry x="30" width="150" height="30" as="geometry">
            <mxRectangle width="150" height="30" as="alternateBounds" />
          </mxGeometry>
        </mxCell>
        <mxCell id="LA_D0svQ92RpoAtAq2fH-25" value="int" style="shape=partialRectangle;connectable=0;fillColor=none;top=0;left=0;bottom=0;right=0;align=left;spacingLeft=6;fontStyle=5;overflow=hidden;whiteSpace=wrap;html=1;" vertex="1" parent="aUAg0FejUxf_RSIGZSlg-42">
          <mxGeometry x="180" width="79.99999999999977" height="30" as="geometry">
            <mxRectangle width="79.99999999999977" height="30" as="alternateBounds" />
          </mxGeometry>
        </mxCell>
        <mxCell id="aUAg0FejUxf_RSIGZSlg-45" value="" style="shape=tableRow;horizontal=0;startSize=0;swimlaneHead=0;swimlaneBody=0;fillColor=none;collapsible=0;dropTarget=0;points=[[0,0.5],[1,0.5]];portConstraint=eastwest;top=0;left=0;right=0;bottom=0;" vertex="1" parent="aUAg0FejUxf_RSIGZSlg-41">
          <mxGeometry y="70" width="259.9999999999998" height="30" as="geometry" />
        </mxCell>
        <mxCell id="aUAg0FejUxf_RSIGZSlg-46" value="" style="shape=partialRectangle;connectable=0;fillColor=none;top=0;left=0;bottom=0;right=0;editable=1;overflow=hidden;whiteSpace=wrap;html=1;" vertex="1" parent="aUAg0FejUxf_RSIGZSlg-45">
          <mxGeometry width="30" height="30" as="geometry">
            <mxRectangle width="30" height="30" as="alternateBounds" />
          </mxGeometry>
        </mxCell>
        <mxCell id="aUAg0FejUxf_RSIGZSlg-47" value="name" style="shape=partialRectangle;connectable=0;fillColor=none;top=0;left=0;bottom=0;right=0;align=left;spacingLeft=6;overflow=hidden;whiteSpace=wrap;html=1;" vertex="1" parent="aUAg0FejUxf_RSIGZSlg-45">
          <mxGeometry x="30" width="150" height="30" as="geometry">
            <mxRectangle width="150" height="30" as="alternateBounds" />
          </mxGeometry>
        </mxCell>
        <mxCell id="LA_D0svQ92RpoAtAq2fH-26" value="varchar(100)" style="shape=partialRectangle;connectable=0;fillColor=none;top=0;left=0;bottom=0;right=0;align=left;spacingLeft=6;overflow=hidden;whiteSpace=wrap;html=1;" vertex="1" parent="aUAg0FejUxf_RSIGZSlg-45">
          <mxGeometry x="180" width="79.99999999999977" height="30" as="geometry">
            <mxRectangle width="79.99999999999977" height="30" as="alternateBounds" />
          </mxGeometry>
        </mxCell>
        <mxCell id="aUAg0FejUxf_RSIGZSlg-48" value="" style="shape=tableRow;horizontal=0;startSize=0;swimlaneHead=0;swimlaneBody=0;fillColor=none;collapsible=0;dropTarget=0;points=[[0,0.5],[1,0.5]];portConstraint=eastwest;top=0;left=0;right=0;bottom=0;" vertex="1" parent="aUAg0FejUxf_RSIGZSlg-41">
          <mxGeometry y="100" width="259.9999999999998" height="30" as="geometry" />
        </mxCell>
        <mxCell id="aUAg0FejUxf_RSIGZSlg-49" value="" style="shape=partialRectangle;connectable=0;fillColor=none;top=0;left=0;bottom=0;right=0;editable=1;overflow=hidden;whiteSpace=wrap;html=1;" vertex="1" parent="aUAg0FejUxf_RSIGZSlg-48">
          <mxGeometry width="30" height="30" as="geometry">
            <mxRectangle width="30" height="30" as="alternateBounds" />
          </mxGeometry>
        </mxCell>
        <mxCell id="aUAg0FejUxf_RSIGZSlg-50" value="unit" style="shape=partialRectangle;connectable=0;fillColor=none;top=0;left=0;bottom=0;right=0;align=left;spacingLeft=6;overflow=hidden;whiteSpace=wrap;html=1;" vertex="1" parent="aUAg0FejUxf_RSIGZSlg-48">
          <mxGeometry x="30" width="150" height="30" as="geometry">
            <mxRectangle width="150" height="30" as="alternateBounds" />
          </mxGeometry>
        </mxCell>
        <mxCell id="LA_D0svQ92RpoAtAq2fH-27" value="varchar(20)" style="shape=partialRectangle;connectable=0;fillColor=none;top=0;left=0;bottom=0;right=0;align=left;spacingLeft=6;overflow=hidden;whiteSpace=wrap;html=1;" vertex="1" parent="aUAg0FejUxf_RSIGZSlg-48">
          <mxGeometry x="180" width="79.99999999999977" height="30" as="geometry">
            <mxRectangle width="79.99999999999977" height="30" as="alternateBounds" />
          </mxGeometry>
        </mxCell>
        <mxCell id="aUAg0FejUxf_RSIGZSlg-51" value="" style="shape=tableRow;horizontal=0;startSize=0;swimlaneHead=0;swimlaneBody=0;fillColor=none;collapsible=0;dropTarget=0;points=[[0,0.5],[1,0.5]];portConstraint=eastwest;top=0;left=0;right=0;bottom=0;" vertex="1" parent="aUAg0FejUxf_RSIGZSlg-41">
          <mxGeometry y="130" width="259.9999999999998" height="30" as="geometry" />
        </mxCell>
        <mxCell id="aUAg0FejUxf_RSIGZSlg-52" value="" style="shape=partialRectangle;connectable=0;fillColor=none;top=0;left=0;bottom=0;right=0;editable=1;overflow=hidden;whiteSpace=wrap;html=1;" vertex="1" parent="aUAg0FejUxf_RSIGZSlg-51">
          <mxGeometry width="30" height="30" as="geometry">
            <mxRectangle width="30" height="30" as="alternateBounds" />
          </mxGeometry>
        </mxCell>
        <mxCell id="aUAg0FejUxf_RSIGZSlg-53" value="category" style="shape=partialRectangle;connectable=0;fillColor=none;top=0;left=0;bottom=0;right=0;align=left;spacingLeft=6;overflow=hidden;whiteSpace=wrap;html=1;" vertex="1" parent="aUAg0FejUxf_RSIGZSlg-51">
          <mxGeometry x="30" width="150" height="30" as="geometry">
            <mxRectangle width="150" height="30" as="alternateBounds" />
          </mxGeometry>
        </mxCell>
        <mxCell id="LA_D0svQ92RpoAtAq2fH-28" value="varchar(50)" style="shape=partialRectangle;connectable=0;fillColor=none;top=0;left=0;bottom=0;right=0;align=left;spacingLeft=6;overflow=hidden;whiteSpace=wrap;html=1;" vertex="1" parent="aUAg0FejUxf_RSIGZSlg-51">
          <mxGeometry x="180" width="79.99999999999977" height="30" as="geometry">
            <mxRectangle width="79.99999999999977" height="30" as="alternateBounds" />
          </mxGeometry>
        </mxCell>
        <mxCell id="aUAg0FejUxf_RSIGZSlg-57" style="shape=tableRow;horizontal=0;startSize=0;swimlaneHead=0;swimlaneBody=0;fillColor=none;collapsible=0;dropTarget=0;points=[[0,0.5],[1,0.5]];portConstraint=eastwest;top=0;left=0;right=0;bottom=0;" vertex="1" parent="aUAg0FejUxf_RSIGZSlg-41">
          <mxGeometry y="160" width="259.9999999999998" height="30" as="geometry" />
        </mxCell>
        <mxCell id="aUAg0FejUxf_RSIGZSlg-58" style="shape=partialRectangle;connectable=0;fillColor=none;top=0;left=0;bottom=0;right=0;editable=1;overflow=hidden;whiteSpace=wrap;html=1;" vertex="1" parent="aUAg0FejUxf_RSIGZSlg-57">
          <mxGeometry width="30" height="30" as="geometry">
            <mxRectangle width="30" height="30" as="alternateBounds" />
          </mxGeometry>
        </mxCell>
        <mxCell id="aUAg0FejUxf_RSIGZSlg-59" value="reorder_level" style="shape=partialRectangle;connectable=0;fillColor=none;top=0;left=0;bottom=0;right=0;align=left;spacingLeft=6;overflow=hidden;whiteSpace=wrap;html=1;" vertex="1" parent="aUAg0FejUxf_RSIGZSlg-57">
          <mxGeometry x="30" width="150" height="30" as="geometry">
            <mxRectangle width="150" height="30" as="alternateBounds" />
          </mxGeometry>
        </mxCell>
        <mxCell id="LA_D0svQ92RpoAtAq2fH-29" value="decimal(10,2)" style="shape=partialRectangle;connectable=0;fillColor=none;top=0;left=0;bottom=0;right=0;align=left;spacingLeft=6;overflow=hidden;whiteSpace=wrap;html=1;" vertex="1" parent="aUAg0FejUxf_RSIGZSlg-57">
          <mxGeometry x="180" width="79.99999999999977" height="30" as="geometry">
            <mxRectangle width="79.99999999999977" height="30" as="alternateBounds" />
          </mxGeometry>
        </mxCell>
        <mxCell id="aUAg0FejUxf_RSIGZSlg-73" value="DELIVERY ITEM" style="shape=table;startSize=20;container=1;collapsible=1;childLayout=tableLayout;fixedRows=1;rowLines=0;fontStyle=1;align=center;resizeLast=1;html=1;whiteSpace=wrap;rounded=1;arcSize=50;" vertex="1" parent="Oy-TWGADdTAekCu63_Ab-1">
          <mxGeometry x="1600" y="1149" width="270" height="180" as="geometry" />
        </mxCell>
        <mxCell id="aUAg0FejUxf_RSIGZSlg-74" value="" style="shape=tableRow;horizontal=0;startSize=0;swimlaneHead=0;swimlaneBody=0;fillColor=none;collapsible=0;dropTarget=0;points=[[0,0.5],[1,0.5]];portConstraint=eastwest;top=0;left=0;right=0;bottom=0;html=1;" vertex="1" parent="aUAg0FejUxf_RSIGZSlg-73">
          <mxGeometry y="20" width="270" height="40" as="geometry" />
        </mxCell>
        <mxCell id="aUAg0FejUxf_RSIGZSlg-75" value="PK,FK1" style="shape=partialRectangle;connectable=0;fillColor=none;top=0;left=0;bottom=0;right=0;fontStyle=1;overflow=hidden;html=1;whiteSpace=wrap;" vertex="1" parent="aUAg0FejUxf_RSIGZSlg-74">
          <mxGeometry width="60" height="40" as="geometry">
            <mxRectangle width="60" height="40" as="alternateBounds" />
          </mxGeometry>
        </mxCell>
        <mxCell id="aUAg0FejUxf_RSIGZSlg-76" value="delivery_id" style="shape=partialRectangle;connectable=0;fillColor=none;top=0;left=0;bottom=0;right=0;align=left;spacingLeft=6;fontStyle=5;overflow=hidden;html=1;whiteSpace=wrap;" vertex="1" parent="aUAg0FejUxf_RSIGZSlg-74">
          <mxGeometry x="60" width="110" height="40" as="geometry">
            <mxRectangle width="110" height="40" as="alternateBounds" />
          </mxGeometry>
        </mxCell>
        <mxCell id="LA_D0svQ92RpoAtAq2fH-30" value="int" style="shape=partialRectangle;connectable=0;fillColor=none;top=0;left=0;bottom=0;right=0;align=left;spacingLeft=6;fontStyle=5;overflow=hidden;html=1;whiteSpace=wrap;" vertex="1" parent="aUAg0FejUxf_RSIGZSlg-74">
          <mxGeometry x="170" width="100" height="40" as="geometry">
            <mxRectangle width="100" height="40" as="alternateBounds" />
          </mxGeometry>
        </mxCell>
        <mxCell id="aUAg0FejUxf_RSIGZSlg-77" value="" style="shape=tableRow;horizontal=0;startSize=0;swimlaneHead=0;swimlaneBody=0;fillColor=none;collapsible=0;dropTarget=0;points=[[0,0.5],[1,0.5]];portConstraint=eastwest;top=0;left=0;right=0;bottom=1;html=1;" vertex="1" parent="aUAg0FejUxf_RSIGZSlg-73">
          <mxGeometry y="60" width="270" height="30" as="geometry" />
        </mxCell>
        <mxCell id="aUAg0FejUxf_RSIGZSlg-78" value="PK,FK2" style="shape=partialRectangle;connectable=0;fillColor=none;top=0;left=0;bottom=0;right=0;fontStyle=1;overflow=hidden;html=1;whiteSpace=wrap;" vertex="1" parent="aUAg0FejUxf_RSIGZSlg-77">
          <mxGeometry width="60" height="30" as="geometry">
            <mxRectangle width="60" height="30" as="alternateBounds" />
          </mxGeometry>
        </mxCell>
        <mxCell id="aUAg0FejUxf_RSIGZSlg-79" value="ingredient_id" style="shape=partialRectangle;connectable=0;fillColor=none;top=0;left=0;bottom=0;right=0;align=left;spacingLeft=6;fontStyle=5;overflow=hidden;html=1;whiteSpace=wrap;" vertex="1" parent="aUAg0FejUxf_RSIGZSlg-77">
          <mxGeometry x="60" width="110" height="30" as="geometry">
            <mxRectangle width="110" height="30" as="alternateBounds" />
          </mxGeometry>
        </mxCell>
        <mxCell id="LA_D0svQ92RpoAtAq2fH-31" value="int" style="shape=partialRectangle;connectable=0;fillColor=none;top=0;left=0;bottom=0;right=0;align=left;spacingLeft=6;fontStyle=5;overflow=hidden;html=1;whiteSpace=wrap;" vertex="1" parent="aUAg0FejUxf_RSIGZSlg-77">
          <mxGeometry x="170" width="100" height="30" as="geometry">
            <mxRectangle width="100" height="30" as="alternateBounds" />
          </mxGeometry>
        </mxCell>
        <mxCell id="aUAg0FejUxf_RSIGZSlg-80" value="" style="shape=tableRow;horizontal=0;startSize=0;swimlaneHead=0;swimlaneBody=0;fillColor=none;collapsible=0;dropTarget=0;points=[[0,0.5],[1,0.5]];portConstraint=eastwest;top=0;left=0;right=0;bottom=0;html=1;" vertex="1" parent="aUAg0FejUxf_RSIGZSlg-73">
          <mxGeometry y="90" width="270" height="30" as="geometry" />
        </mxCell>
        <mxCell id="aUAg0FejUxf_RSIGZSlg-81" value="" style="shape=partialRectangle;connectable=0;fillColor=none;top=0;left=0;bottom=0;right=0;editable=1;overflow=hidden;html=1;whiteSpace=wrap;" vertex="1" parent="aUAg0FejUxf_RSIGZSlg-80">
          <mxGeometry width="60" height="30" as="geometry">
            <mxRectangle width="60" height="30" as="alternateBounds" />
          </mxGeometry>
        </mxCell>
        <mxCell id="aUAg0FejUxf_RSIGZSlg-82" value="quantityDelivered" style="shape=partialRectangle;connectable=0;fillColor=none;top=0;left=0;bottom=0;right=0;align=left;spacingLeft=6;overflow=hidden;html=1;whiteSpace=wrap;" vertex="1" parent="aUAg0FejUxf_RSIGZSlg-80">
          <mxGeometry x="60" width="110" height="30" as="geometry">
            <mxRectangle width="110" height="30" as="alternateBounds" />
          </mxGeometry>
        </mxCell>
        <mxCell id="LA_D0svQ92RpoAtAq2fH-32" value="decimal(10,2)" style="shape=partialRectangle;connectable=0;fillColor=none;top=0;left=0;bottom=0;right=0;align=left;spacingLeft=6;overflow=hidden;html=1;whiteSpace=wrap;" vertex="1" parent="aUAg0FejUxf_RSIGZSlg-80">
          <mxGeometry x="170" width="100" height="30" as="geometry">
            <mxRectangle width="100" height="30" as="alternateBounds" />
          </mxGeometry>
        </mxCell>
        <mxCell id="aUAg0FejUxf_RSIGZSlg-86" style="shape=tableRow;horizontal=0;startSize=0;swimlaneHead=0;swimlaneBody=0;fillColor=none;collapsible=0;dropTarget=0;points=[[0,0.5],[1,0.5]];portConstraint=eastwest;top=0;left=0;right=0;bottom=0;html=1;" vertex="1" parent="aUAg0FejUxf_RSIGZSlg-73">
          <mxGeometry y="120" width="270" height="30" as="geometry" />
        </mxCell>
        <mxCell id="aUAg0FejUxf_RSIGZSlg-87" style="shape=partialRectangle;connectable=0;fillColor=none;top=0;left=0;bottom=0;right=0;editable=1;overflow=hidden;html=1;whiteSpace=wrap;" vertex="1" parent="aUAg0FejUxf_RSIGZSlg-86">
          <mxGeometry width="60" height="30" as="geometry">
            <mxRectangle width="60" height="30" as="alternateBounds" />
          </mxGeometry>
        </mxCell>
        <mxCell id="aUAg0FejUxf_RSIGZSlg-88" value="unitPrice" style="shape=partialRectangle;connectable=0;fillColor=none;top=0;left=0;bottom=0;right=0;align=left;spacingLeft=6;overflow=hidden;html=1;whiteSpace=wrap;" vertex="1" parent="aUAg0FejUxf_RSIGZSlg-86">
          <mxGeometry x="60" width="110" height="30" as="geometry">
            <mxRectangle width="110" height="30" as="alternateBounds" />
          </mxGeometry>
        </mxCell>
        <mxCell id="LA_D0svQ92RpoAtAq2fH-33" value="decimal(10,2)" style="shape=partialRectangle;connectable=0;fillColor=none;top=0;left=0;bottom=0;right=0;align=left;spacingLeft=6;overflow=hidden;html=1;whiteSpace=wrap;" vertex="1" parent="aUAg0FejUxf_RSIGZSlg-86">
          <mxGeometry x="170" width="100" height="30" as="geometry">
            <mxRectangle width="100" height="30" as="alternateBounds" />
          </mxGeometry>
        </mxCell>
        <mxCell id="aUAg0FejUxf_RSIGZSlg-83" value="" style="shape=tableRow;horizontal=0;startSize=0;swimlaneHead=0;swimlaneBody=0;fillColor=none;collapsible=0;dropTarget=0;points=[[0,0.5],[1,0.5]];portConstraint=eastwest;top=0;left=0;right=0;bottom=0;html=1;" vertex="1" parent="aUAg0FejUxf_RSIGZSlg-73">
          <mxGeometry y="150" width="270" height="30" as="geometry" />
        </mxCell>
        <mxCell id="aUAg0FejUxf_RSIGZSlg-84" value="" style="shape=partialRectangle;connectable=0;fillColor=none;top=0;left=0;bottom=0;right=0;editable=1;overflow=hidden;html=1;whiteSpace=wrap;" vertex="1" parent="aUAg0FejUxf_RSIGZSlg-83">
          <mxGeometry width="60" height="30" as="geometry">
            <mxRectangle width="60" height="30" as="alternateBounds" />
          </mxGeometry>
        </mxCell>
        <mxCell id="aUAg0FejUxf_RSIGZSlg-85" value="ExpirationDate" style="shape=partialRectangle;connectable=0;fillColor=none;top=0;left=0;bottom=0;right=0;align=left;spacingLeft=6;overflow=hidden;html=1;whiteSpace=wrap;" vertex="1" parent="aUAg0FejUxf_RSIGZSlg-83">
          <mxGeometry x="60" width="110" height="30" as="geometry">
            <mxRectangle width="110" height="30" as="alternateBounds" />
          </mxGeometry>
        </mxCell>
        <mxCell id="LA_D0svQ92RpoAtAq2fH-34" value="date" style="shape=partialRectangle;connectable=0;fillColor=none;top=0;left=0;bottom=0;right=0;align=left;spacingLeft=6;overflow=hidden;html=1;whiteSpace=wrap;" vertex="1" parent="aUAg0FejUxf_RSIGZSlg-83">
          <mxGeometry x="170" width="100" height="30" as="geometry">
            <mxRectangle width="100" height="30" as="alternateBounds" />
          </mxGeometry>
        </mxCell>
        <mxCell id="aUAg0FejUxf_RSIGZSlg-89" value="" style="fontSize=12;html=1;endArrow=ERoneToMany;startArrow=ERmandOne;rounded=0;startSize=8;endSize=8;" edge="1" parent="Oy-TWGADdTAekCu63_Ab-1" source="aUAg0FejUxf_RSIGZSlg-17">
          <mxGeometry width="100" height="100" relative="1" as="geometry">
            <mxPoint x="1490" y="1290" as="sourcePoint" />
            <mxPoint x="1720" y="1147" as="targetPoint" />
            <Array as="points">
              <mxPoint x="1345" y="1080" />
              <mxPoint x="1720" y="1080" />
            </Array>
          </mxGeometry>
        </mxCell>
        <mxCell id="aUAg0FejUxf_RSIGZSlg-90" value="INVENTORY" style="shape=table;startSize=30;container=1;collapsible=1;childLayout=tableLayout;fixedRows=1;rowLines=0;fontStyle=1;align=center;resizeLast=1;html=1;whiteSpace=wrap;" vertex="1" parent="Oy-TWGADdTAekCu63_Ab-1">
          <mxGeometry x="1240" y="1110" width="240" height="200" as="geometry" />
        </mxCell>
        <mxCell id="aUAg0FejUxf_RSIGZSlg-91" value="" style="shape=tableRow;horizontal=0;startSize=0;swimlaneHead=0;swimlaneBody=0;fillColor=none;collapsible=0;dropTarget=0;points=[[0,0.5],[1,0.5]];portConstraint=eastwest;top=0;left=0;right=0;bottom=0;html=1;" vertex="1" parent="aUAg0FejUxf_RSIGZSlg-90">
          <mxGeometry y="30" width="240" height="40" as="geometry" />
        </mxCell>
        <mxCell id="aUAg0FejUxf_RSIGZSlg-92" value="PK" style="shape=partialRectangle;connectable=0;fillColor=none;top=0;left=0;bottom=0;right=0;fontStyle=1;overflow=hidden;html=1;whiteSpace=wrap;" vertex="1" parent="aUAg0FejUxf_RSIGZSlg-91">
          <mxGeometry width="60" height="40" as="geometry">
            <mxRectangle width="60" height="40" as="alternateBounds" />
          </mxGeometry>
        </mxCell>
        <mxCell id="aUAg0FejUxf_RSIGZSlg-93" value="inventory_id" style="shape=partialRectangle;connectable=0;fillColor=none;top=0;left=0;bottom=0;right=0;align=left;spacingLeft=6;fontStyle=5;overflow=hidden;html=1;whiteSpace=wrap;" vertex="1" parent="aUAg0FejUxf_RSIGZSlg-91">
          <mxGeometry x="60" width="99.99999999999977" height="40" as="geometry">
            <mxRectangle width="99.99999999999977" height="40" as="alternateBounds" />
          </mxGeometry>
        </mxCell>
        <mxCell id="pq9HvEjPopNlrJPay7n2-0" value="int" style="shape=partialRectangle;connectable=0;fillColor=none;top=0;left=0;bottom=0;right=0;align=left;spacingLeft=6;fontStyle=5;overflow=hidden;html=1;whiteSpace=wrap;" vertex="1" parent="aUAg0FejUxf_RSIGZSlg-91">
          <mxGeometry x="159.99999999999977" width="80.00000000000023" height="40" as="geometry">
            <mxRectangle width="80.00000000000023" height="40" as="alternateBounds" />
          </mxGeometry>
        </mxCell>
        <mxCell id="aUAg0FejUxf_RSIGZSlg-103" style="shape=tableRow;horizontal=0;startSize=0;swimlaneHead=0;swimlaneBody=0;fillColor=none;collapsible=0;dropTarget=0;points=[[0,0.5],[1,0.5]];portConstraint=eastwest;top=0;left=0;right=0;bottom=0;html=1;" vertex="1" parent="aUAg0FejUxf_RSIGZSlg-90">
          <mxGeometry y="70" width="240" height="40" as="geometry" />
        </mxCell>
        <mxCell id="aUAg0FejUxf_RSIGZSlg-104" value="FK1" style="shape=partialRectangle;connectable=0;fillColor=none;top=0;left=0;bottom=0;right=0;fontStyle=1;overflow=hidden;html=1;whiteSpace=wrap;" vertex="1" parent="aUAg0FejUxf_RSIGZSlg-103">
          <mxGeometry width="60" height="40" as="geometry">
            <mxRectangle width="60" height="40" as="alternateBounds" />
          </mxGeometry>
        </mxCell>
        <mxCell id="aUAg0FejUxf_RSIGZSlg-105" value="ingredient_id" style="shape=partialRectangle;connectable=0;fillColor=none;top=0;left=0;bottom=0;right=0;align=left;spacingLeft=6;fontStyle=5;overflow=hidden;html=1;whiteSpace=wrap;" vertex="1" parent="aUAg0FejUxf_RSIGZSlg-103">
          <mxGeometry x="60" width="99.99999999999977" height="40" as="geometry">
            <mxRectangle width="99.99999999999977" height="40" as="alternateBounds" />
          </mxGeometry>
        </mxCell>
        <mxCell id="pq9HvEjPopNlrJPay7n2-1" value="int" style="shape=partialRectangle;connectable=0;fillColor=none;top=0;left=0;bottom=0;right=0;align=left;spacingLeft=6;fontStyle=5;overflow=hidden;html=1;whiteSpace=wrap;" vertex="1" parent="aUAg0FejUxf_RSIGZSlg-103">
          <mxGeometry x="159.99999999999977" width="80.00000000000023" height="40" as="geometry">
            <mxRectangle width="80.00000000000023" height="40" as="alternateBounds" />
          </mxGeometry>
        </mxCell>
        <mxCell id="aUAg0FejUxf_RSIGZSlg-94" value="" style="shape=tableRow;horizontal=0;startSize=0;swimlaneHead=0;swimlaneBody=0;fillColor=none;collapsible=0;dropTarget=0;points=[[0,0.5],[1,0.5]];portConstraint=eastwest;top=0;left=0;right=0;bottom=1;html=1;" vertex="1" parent="aUAg0FejUxf_RSIGZSlg-90">
          <mxGeometry y="110" width="240" height="30" as="geometry" />
        </mxCell>
        <mxCell id="aUAg0FejUxf_RSIGZSlg-95" value="FK2" style="shape=partialRectangle;connectable=0;fillColor=none;top=0;left=0;bottom=0;right=0;fontStyle=1;overflow=hidden;html=1;whiteSpace=wrap;" vertex="1" parent="aUAg0FejUxf_RSIGZSlg-94">
          <mxGeometry width="60" height="30" as="geometry">
            <mxRectangle width="60" height="30" as="alternateBounds" />
          </mxGeometry>
        </mxCell>
        <mxCell id="aUAg0FejUxf_RSIGZSlg-96" value="restaurant_id" style="shape=partialRectangle;connectable=0;fillColor=none;top=0;left=0;bottom=0;right=0;align=left;spacingLeft=6;fontStyle=5;overflow=hidden;html=1;whiteSpace=wrap;" vertex="1" parent="aUAg0FejUxf_RSIGZSlg-94">
          <mxGeometry x="60" width="99.99999999999977" height="30" as="geometry">
            <mxRectangle width="99.99999999999977" height="30" as="alternateBounds" />
          </mxGeometry>
        </mxCell>
        <mxCell id="pq9HvEjPopNlrJPay7n2-2" value="int" style="shape=partialRectangle;connectable=0;fillColor=none;top=0;left=0;bottom=0;right=0;align=left;spacingLeft=6;fontStyle=5;overflow=hidden;html=1;whiteSpace=wrap;" vertex="1" parent="aUAg0FejUxf_RSIGZSlg-94">
          <mxGeometry x="159.99999999999977" width="80.00000000000023" height="30" as="geometry">
            <mxRectangle width="80.00000000000023" height="30" as="alternateBounds" />
          </mxGeometry>
        </mxCell>
        <mxCell id="aUAg0FejUxf_RSIGZSlg-97" value="" style="shape=tableRow;horizontal=0;startSize=0;swimlaneHead=0;swimlaneBody=0;fillColor=none;collapsible=0;dropTarget=0;points=[[0,0.5],[1,0.5]];portConstraint=eastwest;top=0;left=0;right=0;bottom=0;html=1;" vertex="1" parent="aUAg0FejUxf_RSIGZSlg-90">
          <mxGeometry y="140" width="240" height="30" as="geometry" />
        </mxCell>
        <mxCell id="aUAg0FejUxf_RSIGZSlg-98" value="" style="shape=partialRectangle;connectable=0;fillColor=none;top=0;left=0;bottom=0;right=0;editable=1;overflow=hidden;html=1;whiteSpace=wrap;" vertex="1" parent="aUAg0FejUxf_RSIGZSlg-97">
          <mxGeometry width="60" height="30" as="geometry">
            <mxRectangle width="60" height="30" as="alternateBounds" />
          </mxGeometry>
        </mxCell>
        <mxCell id="aUAg0FejUxf_RSIGZSlg-99" value="currentQuantity" style="shape=partialRectangle;connectable=0;fillColor=none;top=0;left=0;bottom=0;right=0;align=left;spacingLeft=6;overflow=hidden;html=1;whiteSpace=wrap;" vertex="1" parent="aUAg0FejUxf_RSIGZSlg-97">
          <mxGeometry x="60" width="99.99999999999977" height="30" as="geometry">
            <mxRectangle width="99.99999999999977" height="30" as="alternateBounds" />
          </mxGeometry>
        </mxCell>
        <mxCell id="pq9HvEjPopNlrJPay7n2-3" value="decimal(10,2)" style="shape=partialRectangle;connectable=0;fillColor=none;top=0;left=0;bottom=0;right=0;align=left;spacingLeft=6;overflow=hidden;html=1;whiteSpace=wrap;" vertex="1" parent="aUAg0FejUxf_RSIGZSlg-97">
          <mxGeometry x="159.99999999999977" width="80.00000000000023" height="30" as="geometry">
            <mxRectangle width="80.00000000000023" height="30" as="alternateBounds" />
          </mxGeometry>
        </mxCell>
        <mxCell id="aUAg0FejUxf_RSIGZSlg-100" value="" style="shape=tableRow;horizontal=0;startSize=0;swimlaneHead=0;swimlaneBody=0;fillColor=none;collapsible=0;dropTarget=0;points=[[0,0.5],[1,0.5]];portConstraint=eastwest;top=0;left=0;right=0;bottom=0;html=1;" vertex="1" parent="aUAg0FejUxf_RSIGZSlg-90">
          <mxGeometry y="170" width="240" height="30" as="geometry" />
        </mxCell>
        <mxCell id="aUAg0FejUxf_RSIGZSlg-101" value="" style="shape=partialRectangle;connectable=0;fillColor=none;top=0;left=0;bottom=0;right=0;editable=1;overflow=hidden;html=1;whiteSpace=wrap;" vertex="1" parent="aUAg0FejUxf_RSIGZSlg-100">
          <mxGeometry width="60" height="30" as="geometry">
            <mxRectangle width="60" height="30" as="alternateBounds" />
          </mxGeometry>
        </mxCell>
        <mxCell id="aUAg0FejUxf_RSIGZSlg-102" value="lastUpdated" style="shape=partialRectangle;connectable=0;fillColor=none;top=0;left=0;bottom=0;right=0;align=left;spacingLeft=6;overflow=hidden;html=1;whiteSpace=wrap;" vertex="1" parent="aUAg0FejUxf_RSIGZSlg-100">
          <mxGeometry x="60" width="99.99999999999977" height="30" as="geometry">
            <mxRectangle width="99.99999999999977" height="30" as="alternateBounds" />
          </mxGeometry>
        </mxCell>
        <mxCell id="pq9HvEjPopNlrJPay7n2-4" value="datetime" style="shape=partialRectangle;connectable=0;fillColor=none;top=0;left=0;bottom=0;right=0;align=left;spacingLeft=6;overflow=hidden;html=1;whiteSpace=wrap;" vertex="1" parent="aUAg0FejUxf_RSIGZSlg-100">
          <mxGeometry x="159.99999999999977" width="80.00000000000023" height="30" as="geometry">
            <mxRectangle width="80.00000000000023" height="30" as="alternateBounds" />
          </mxGeometry>
        </mxCell>
        <mxCell id="aUAg0FejUxf_RSIGZSlg-106" value="" style="fontSize=12;html=1;endArrow=ERzeroToMany;startArrow=ERmandOne;rounded=0;startSize=8;endSize=8;edgeStyle=orthogonalEdgeStyle;" edge="1" parent="Oy-TWGADdTAekCu63_Ab-1" source="Oy-TWGADdTAekCu63_Ab-52" target="aUAg0FejUxf_RSIGZSlg-90">
          <mxGeometry width="100" height="100" relative="1" as="geometry">
            <mxPoint x="1190" y="840" as="sourcePoint" />
            <mxPoint x="1220" y="1320" as="targetPoint" />
            <Array as="points">
              <mxPoint x="1190" y="1150" />
            </Array>
          </mxGeometry>
        </mxCell>
        <mxCell id="aUAg0FejUxf_RSIGZSlg-108" value="" style="edgeStyle=orthogonalEdgeStyle;fontSize=12;html=1;endArrow=ERzeroToMany;startArrow=ERmandOne;rounded=0;startSize=8;endSize=8;" edge="1" parent="Oy-TWGADdTAekCu63_Ab-1" source="aUAg0FejUxf_RSIGZSlg-41" target="aUAg0FejUxf_RSIGZSlg-90">
          <mxGeometry width="100" height="100" relative="1" as="geometry">
            <mxPoint x="1260" y="1484.000000000001" as="sourcePoint" />
            <mxPoint x="1160" y="1200" as="targetPoint" />
            <Array as="points">
              <mxPoint x="1330" y="1440" />
              <mxPoint x="1330" y="1440" />
            </Array>
          </mxGeometry>
        </mxCell>
        <mxCell id="aUAg0FejUxf_RSIGZSlg-112" value="MENU_INGREDIENT" style="shape=table;startSize=30;container=1;collapsible=1;childLayout=tableLayout;fixedRows=1;rowLines=0;fontStyle=1;align=center;resizeLast=1;html=1;whiteSpace=wrap;rounded=1;" vertex="1" parent="Oy-TWGADdTAekCu63_Ab-1">
          <mxGeometry x="880" y="1300" width="270" height="120" as="geometry" />
        </mxCell>
        <mxCell id="aUAg0FejUxf_RSIGZSlg-113" value="" style="shape=tableRow;horizontal=0;startSize=0;swimlaneHead=0;swimlaneBody=0;fillColor=none;collapsible=0;dropTarget=0;points=[[0,0.5],[1,0.5]];portConstraint=eastwest;top=0;left=0;right=0;bottom=0;html=1;" vertex="1" parent="aUAg0FejUxf_RSIGZSlg-112">
          <mxGeometry y="30" width="270" height="30" as="geometry" />
        </mxCell>
        <mxCell id="aUAg0FejUxf_RSIGZSlg-114" value="PK,FK1" style="shape=partialRectangle;connectable=0;fillColor=none;top=0;left=0;bottom=0;right=0;fontStyle=1;overflow=hidden;html=1;whiteSpace=wrap;" vertex="1" parent="aUAg0FejUxf_RSIGZSlg-113">
          <mxGeometry width="60" height="30" as="geometry">
            <mxRectangle width="60" height="30" as="alternateBounds" />
          </mxGeometry>
        </mxCell>
        <mxCell id="aUAg0FejUxf_RSIGZSlg-115" value="MenuItemID" style="shape=partialRectangle;connectable=0;fillColor=none;top=0;left=0;bottom=0;right=0;align=left;spacingLeft=6;fontStyle=5;overflow=hidden;html=1;whiteSpace=wrap;" vertex="1" parent="aUAg0FejUxf_RSIGZSlg-113">
          <mxGeometry x="60" width="120" height="30" as="geometry">
            <mxRectangle width="120" height="30" as="alternateBounds" />
          </mxGeometry>
        </mxCell>
        <mxCell id="LA_D0svQ92RpoAtAq2fH-36" value="int" style="shape=partialRectangle;connectable=0;fillColor=none;top=0;left=0;bottom=0;right=0;align=left;spacingLeft=6;fontStyle=5;overflow=hidden;html=1;whiteSpace=wrap;" vertex="1" parent="aUAg0FejUxf_RSIGZSlg-113">
          <mxGeometry x="180" width="90" height="30" as="geometry">
            <mxRectangle width="90" height="30" as="alternateBounds" />
          </mxGeometry>
        </mxCell>
        <mxCell id="aUAg0FejUxf_RSIGZSlg-116" value="" style="shape=tableRow;horizontal=0;startSize=0;swimlaneHead=0;swimlaneBody=0;fillColor=none;collapsible=0;dropTarget=0;points=[[0,0.5],[1,0.5]];portConstraint=eastwest;top=0;left=0;right=0;bottom=1;html=1;" vertex="1" parent="aUAg0FejUxf_RSIGZSlg-112">
          <mxGeometry y="60" width="270" height="30" as="geometry" />
        </mxCell>
        <mxCell id="aUAg0FejUxf_RSIGZSlg-117" value="PK,FK2" style="shape=partialRectangle;connectable=0;fillColor=none;top=0;left=0;bottom=0;right=0;fontStyle=1;overflow=hidden;html=1;whiteSpace=wrap;" vertex="1" parent="aUAg0FejUxf_RSIGZSlg-116">
          <mxGeometry width="60" height="30" as="geometry">
            <mxRectangle width="60" height="30" as="alternateBounds" />
          </mxGeometry>
        </mxCell>
        <mxCell id="aUAg0FejUxf_RSIGZSlg-118" value="ingredient_id" style="shape=partialRectangle;connectable=0;fillColor=none;top=0;left=0;bottom=0;right=0;align=left;spacingLeft=6;fontStyle=5;overflow=hidden;html=1;whiteSpace=wrap;" vertex="1" parent="aUAg0FejUxf_RSIGZSlg-116">
          <mxGeometry x="60" width="120" height="30" as="geometry">
            <mxRectangle width="120" height="30" as="alternateBounds" />
          </mxGeometry>
        </mxCell>
        <mxCell id="LA_D0svQ92RpoAtAq2fH-37" value="int" style="shape=partialRectangle;connectable=0;fillColor=none;top=0;left=0;bottom=0;right=0;align=left;spacingLeft=6;fontStyle=5;overflow=hidden;html=1;whiteSpace=wrap;" vertex="1" parent="aUAg0FejUxf_RSIGZSlg-116">
          <mxGeometry x="180" width="90" height="30" as="geometry">
            <mxRectangle width="90" height="30" as="alternateBounds" />
          </mxGeometry>
        </mxCell>
        <mxCell id="aUAg0FejUxf_RSIGZSlg-119" value="" style="shape=tableRow;horizontal=0;startSize=0;swimlaneHead=0;swimlaneBody=0;fillColor=none;collapsible=0;dropTarget=0;points=[[0,0.5],[1,0.5]];portConstraint=eastwest;top=0;left=0;right=0;bottom=0;html=1;" vertex="1" parent="aUAg0FejUxf_RSIGZSlg-112">
          <mxGeometry y="90" width="270" height="30" as="geometry" />
        </mxCell>
        <mxCell id="aUAg0FejUxf_RSIGZSlg-120" value="" style="shape=partialRectangle;connectable=0;fillColor=none;top=0;left=0;bottom=0;right=0;editable=1;overflow=hidden;html=1;whiteSpace=wrap;" vertex="1" parent="aUAg0FejUxf_RSIGZSlg-119">
          <mxGeometry width="60" height="30" as="geometry">
            <mxRectangle width="60" height="30" as="alternateBounds" />
          </mxGeometry>
        </mxCell>
        <mxCell id="aUAg0FejUxf_RSIGZSlg-121" value="quantityRequired" style="shape=partialRectangle;connectable=0;fillColor=none;top=0;left=0;bottom=0;right=0;align=left;spacingLeft=6;overflow=hidden;html=1;whiteSpace=wrap;" vertex="1" parent="aUAg0FejUxf_RSIGZSlg-119">
          <mxGeometry x="60" width="120" height="30" as="geometry">
            <mxRectangle width="120" height="30" as="alternateBounds" />
          </mxGeometry>
        </mxCell>
        <mxCell id="LA_D0svQ92RpoAtAq2fH-38" value="decimal(10,2)" style="shape=partialRectangle;connectable=0;fillColor=none;top=0;left=0;bottom=0;right=0;align=left;spacingLeft=6;overflow=hidden;html=1;whiteSpace=wrap;" vertex="1" parent="aUAg0FejUxf_RSIGZSlg-119">
          <mxGeometry x="180" width="90" height="30" as="geometry">
            <mxRectangle width="90" height="30" as="alternateBounds" />
          </mxGeometry>
        </mxCell>
        <mxCell id="4vN9Jwe8c02CkP8PGMyO-1" value="" style="edgeStyle=orthogonalEdgeStyle;fontSize=12;html=1;endArrow=ERoneToMany;startArrow=ERmandOne;rounded=0;startSize=8;endSize=8;" edge="1" parent="Oy-TWGADdTAekCu63_Ab-1" source="Oy-TWGADdTAekCu63_Ab-52" target="Oy-TWGADdTAekCu63_Ab-85">
          <mxGeometry width="100" height="100" relative="1" as="geometry">
            <mxPoint x="2130" y="760" as="sourcePoint" />
            <mxPoint x="2230" y="660" as="targetPoint" />
            <Array as="points">
              <mxPoint x="1200" y="400" />
              <mxPoint x="2320" y="400" />
              <mxPoint x="2320" y="1205" />
            </Array>
          </mxGeometry>
        </mxCell>
        <mxCell id="MLKF7ByYXzv3yEHAf3Fh-0" value="MENUITEM" style="shape=table;startSize=30;container=1;collapsible=1;childLayout=tableLayout;fixedRows=1;rowLines=0;fontStyle=1;align=center;resizeLast=1;html=1;" vertex="1" parent="Oy-TWGADdTAekCu63_Ab-1">
          <mxGeometry x="470" y="1149" width="210" height="141" as="geometry" />
        </mxCell>
        <mxCell id="MLKF7ByYXzv3yEHAf3Fh-1" value="" style="shape=tableRow;horizontal=0;startSize=0;swimlaneHead=0;swimlaneBody=0;fillColor=none;collapsible=0;dropTarget=0;points=[[0,0.5],[1,0.5]];portConstraint=eastwest;top=0;left=0;right=0;bottom=1;" vertex="1" parent="MLKF7ByYXzv3yEHAf3Fh-0">
          <mxGeometry y="30" width="210" height="20" as="geometry" />
        </mxCell>
        <mxCell id="MLKF7ByYXzv3yEHAf3Fh-2" value="PK" style="shape=partialRectangle;connectable=0;fillColor=none;top=0;left=0;bottom=0;right=0;fontStyle=1;overflow=hidden;whiteSpace=wrap;html=1;" vertex="1" parent="MLKF7ByYXzv3yEHAf3Fh-1">
          <mxGeometry width="30" height="20" as="geometry">
            <mxRectangle width="30" height="20" as="alternateBounds" />
          </mxGeometry>
        </mxCell>
        <mxCell id="MLKF7ByYXzv3yEHAf3Fh-3" value="MenuItemID" style="shape=partialRectangle;connectable=0;fillColor=none;top=0;left=0;bottom=0;right=0;align=left;spacingLeft=6;fontStyle=5;overflow=hidden;whiteSpace=wrap;html=1;" vertex="1" parent="MLKF7ByYXzv3yEHAf3Fh-1">
          <mxGeometry x="30" width="90" height="20" as="geometry">
            <mxRectangle width="90" height="20" as="alternateBounds" />
          </mxGeometry>
        </mxCell>
        <mxCell id="KH00YTPOxJegBAQQi8B_-31" value="int" style="shape=partialRectangle;connectable=0;fillColor=none;top=0;left=0;bottom=0;right=0;align=left;spacingLeft=6;fontStyle=5;overflow=hidden;whiteSpace=wrap;html=1;" vertex="1" parent="MLKF7ByYXzv3yEHAf3Fh-1">
          <mxGeometry x="120" width="90" height="20" as="geometry">
            <mxRectangle width="90" height="20" as="alternateBounds" />
          </mxGeometry>
        </mxCell>
        <mxCell id="MLKF7ByYXzv3yEHAf3Fh-4" value="" style="shape=tableRow;horizontal=0;startSize=0;swimlaneHead=0;swimlaneBody=0;fillColor=none;collapsible=0;dropTarget=0;points=[[0,0.5],[1,0.5]];portConstraint=eastwest;top=0;left=0;right=0;bottom=0;" vertex="1" parent="MLKF7ByYXzv3yEHAf3Fh-0">
          <mxGeometry y="50" width="210" height="30" as="geometry" />
        </mxCell>
        <mxCell id="MLKF7ByYXzv3yEHAf3Fh-5" value="" style="shape=partialRectangle;connectable=0;fillColor=none;top=0;left=0;bottom=0;right=0;editable=1;overflow=hidden;whiteSpace=wrap;html=1;" vertex="1" parent="MLKF7ByYXzv3yEHAf3Fh-4">
          <mxGeometry width="30" height="30" as="geometry">
            <mxRectangle width="30" height="30" as="alternateBounds" />
          </mxGeometry>
        </mxCell>
        <mxCell id="MLKF7ByYXzv3yEHAf3Fh-6" value="Name" style="shape=partialRectangle;connectable=0;fillColor=none;top=0;left=0;bottom=0;right=0;align=left;spacingLeft=6;overflow=hidden;whiteSpace=wrap;html=1;" vertex="1" parent="MLKF7ByYXzv3yEHAf3Fh-4">
          <mxGeometry x="30" width="90" height="30" as="geometry">
            <mxRectangle width="90" height="30" as="alternateBounds" />
          </mxGeometry>
        </mxCell>
        <mxCell id="KH00YTPOxJegBAQQi8B_-32" value="varchar(20)" style="shape=partialRectangle;connectable=0;fillColor=none;top=0;left=0;bottom=0;right=0;align=left;spacingLeft=6;overflow=hidden;whiteSpace=wrap;html=1;" vertex="1" parent="MLKF7ByYXzv3yEHAf3Fh-4">
          <mxGeometry x="120" width="90" height="30" as="geometry">
            <mxRectangle width="90" height="30" as="alternateBounds" />
          </mxGeometry>
        </mxCell>
        <mxCell id="MLKF7ByYXzv3yEHAf3Fh-7" value="" style="shape=tableRow;horizontal=0;startSize=0;swimlaneHead=0;swimlaneBody=0;fillColor=none;collapsible=0;dropTarget=0;points=[[0,0.5],[1,0.5]];portConstraint=eastwest;top=0;left=0;right=0;bottom=0;" vertex="1" parent="MLKF7ByYXzv3yEHAf3Fh-0">
          <mxGeometry y="80" width="210" height="30" as="geometry" />
        </mxCell>
        <mxCell id="MLKF7ByYXzv3yEHAf3Fh-8" value="" style="shape=partialRectangle;connectable=0;fillColor=none;top=0;left=0;bottom=0;right=0;editable=1;overflow=hidden;whiteSpace=wrap;html=1;" vertex="1" parent="MLKF7ByYXzv3yEHAf3Fh-7">
          <mxGeometry width="30" height="30" as="geometry">
            <mxRectangle width="30" height="30" as="alternateBounds" />
          </mxGeometry>
        </mxCell>
        <mxCell id="MLKF7ByYXzv3yEHAf3Fh-9" value="Price" style="shape=partialRectangle;connectable=0;fillColor=none;top=0;left=0;bottom=0;right=0;align=left;spacingLeft=6;overflow=hidden;whiteSpace=wrap;html=1;" vertex="1" parent="MLKF7ByYXzv3yEHAf3Fh-7">
          <mxGeometry x="30" width="90" height="30" as="geometry">
            <mxRectangle width="90" height="30" as="alternateBounds" />
          </mxGeometry>
        </mxCell>
        <mxCell id="KH00YTPOxJegBAQQi8B_-33" value="int" style="shape=partialRectangle;connectable=0;fillColor=none;top=0;left=0;bottom=0;right=0;align=left;spacingLeft=6;overflow=hidden;whiteSpace=wrap;html=1;" vertex="1" parent="MLKF7ByYXzv3yEHAf3Fh-7">
          <mxGeometry x="120" width="90" height="30" as="geometry">
            <mxRectangle width="90" height="30" as="alternateBounds" />
          </mxGeometry>
        </mxCell>
        <mxCell id="MLKF7ByYXzv3yEHAf3Fh-10" style="shape=tableRow;horizontal=0;startSize=0;swimlaneHead=0;swimlaneBody=0;fillColor=none;collapsible=0;dropTarget=0;points=[[0,0.5],[1,0.5]];portConstraint=eastwest;top=0;left=0;right=0;bottom=0;" vertex="1" parent="MLKF7ByYXzv3yEHAf3Fh-0">
          <mxGeometry y="110" width="210" height="31" as="geometry" />
        </mxCell>
        <mxCell id="MLKF7ByYXzv3yEHAf3Fh-11" style="shape=partialRectangle;connectable=0;fillColor=none;top=0;left=0;bottom=0;right=0;editable=1;overflow=hidden;whiteSpace=wrap;html=1;" vertex="1" parent="MLKF7ByYXzv3yEHAf3Fh-10">
          <mxGeometry width="30" height="31" as="geometry">
            <mxRectangle width="30" height="31" as="alternateBounds" />
          </mxGeometry>
        </mxCell>
        <mxCell id="MLKF7ByYXzv3yEHAf3Fh-12" value="Category" style="shape=partialRectangle;connectable=0;fillColor=none;top=0;left=0;bottom=0;right=0;align=left;spacingLeft=6;overflow=hidden;whiteSpace=wrap;html=1;" vertex="1" parent="MLKF7ByYXzv3yEHAf3Fh-10">
          <mxGeometry x="30" width="90" height="31" as="geometry">
            <mxRectangle width="90" height="31" as="alternateBounds" />
          </mxGeometry>
        </mxCell>
        <mxCell id="KH00YTPOxJegBAQQi8B_-34" value="varchar(100)" style="shape=partialRectangle;connectable=0;fillColor=none;top=0;left=0;bottom=0;right=0;align=left;spacingLeft=6;overflow=hidden;whiteSpace=wrap;html=1;" vertex="1" parent="MLKF7ByYXzv3yEHAf3Fh-10">
          <mxGeometry x="120" width="90" height="31" as="geometry">
            <mxRectangle width="90" height="31" as="alternateBounds" />
          </mxGeometry>
        </mxCell>
        <mxCell id="vNljE-ChUEVn6nqqyLmY-3" style="edgeStyle=orthogonalEdgeStyle;rounded=0;orthogonalLoop=1;jettySize=auto;html=1;exitX=0.5;exitY=1;exitDx=0;exitDy=0;" edge="1" parent="Oy-TWGADdTAekCu63_Ab-1">
          <mxGeometry relative="1" as="geometry">
            <mxPoint x="895" y="1150" as="sourcePoint" />
            <mxPoint x="895" y="1150" as="targetPoint" />
          </mxGeometry>
        </mxCell>
        <mxCell id="pq9HvEjPopNlrJPay7n2-40" value="CUSTOMER" style="shape=table;startSize=30;container=1;collapsible=1;childLayout=tableLayout;fixedRows=1;rowLines=0;fontStyle=1;align=center;resizeLast=1;html=1;" vertex="1" parent="Oy-TWGADdTAekCu63_Ab-1">
          <mxGeometry x="610" y="870" width="260" height="240" as="geometry" />
        </mxCell>
        <mxCell id="pq9HvEjPopNlrJPay7n2-41" value="" style="shape=tableRow;horizontal=0;startSize=0;swimlaneHead=0;swimlaneBody=0;fillColor=none;collapsible=0;dropTarget=0;points=[[0,0.5],[1,0.5]];portConstraint=eastwest;top=0;left=0;right=0;bottom=1;" vertex="1" parent="pq9HvEjPopNlrJPay7n2-40">
          <mxGeometry y="30" width="260" height="30" as="geometry" />
        </mxCell>
        <mxCell id="pq9HvEjPopNlrJPay7n2-42" value="PK" style="shape=partialRectangle;connectable=0;fillColor=none;top=0;left=0;bottom=0;right=0;fontStyle=1;overflow=hidden;whiteSpace=wrap;html=1;" vertex="1" parent="pq9HvEjPopNlrJPay7n2-41">
          <mxGeometry width="30" height="30" as="geometry">
            <mxRectangle width="30" height="30" as="alternateBounds" />
          </mxGeometry>
        </mxCell>
        <mxCell id="pq9HvEjPopNlrJPay7n2-43" value="Name" style="shape=partialRectangle;connectable=0;fillColor=none;top=0;left=0;bottom=0;right=0;align=left;spacingLeft=6;fontStyle=5;overflow=hidden;whiteSpace=wrap;html=1;" vertex="1" parent="pq9HvEjPopNlrJPay7n2-41">
          <mxGeometry x="30" width="120" height="30" as="geometry">
            <mxRectangle width="120" height="30" as="alternateBounds" />
          </mxGeometry>
        </mxCell>
        <mxCell id="LA_D0svQ92RpoAtAq2fH-39" value="&lt;span style=&quot;font-weight: 400;&quot;&gt;varchar(20)&lt;/span&gt;" style="shape=partialRectangle;connectable=0;fillColor=none;top=0;left=0;bottom=0;right=0;align=left;spacingLeft=6;fontStyle=5;overflow=hidden;whiteSpace=wrap;html=1;" vertex="1" parent="pq9HvEjPopNlrJPay7n2-41">
          <mxGeometry x="150" width="110" height="30" as="geometry">
            <mxRectangle width="110" height="30" as="alternateBounds" />
          </mxGeometry>
        </mxCell>
        <mxCell id="pq9HvEjPopNlrJPay7n2-44" value="" style="shape=tableRow;horizontal=0;startSize=0;swimlaneHead=0;swimlaneBody=0;fillColor=none;collapsible=0;dropTarget=0;points=[[0,0.5],[1,0.5]];portConstraint=eastwest;top=0;left=0;right=0;bottom=0;" vertex="1" parent="pq9HvEjPopNlrJPay7n2-40">
          <mxGeometry y="60" width="260" height="30" as="geometry" />
        </mxCell>
        <mxCell id="pq9HvEjPopNlrJPay7n2-45" value="" style="shape=partialRectangle;connectable=0;fillColor=none;top=0;left=0;bottom=0;right=0;editable=1;overflow=hidden;whiteSpace=wrap;html=1;" vertex="1" parent="pq9HvEjPopNlrJPay7n2-44">
          <mxGeometry width="30" height="30" as="geometry">
            <mxRectangle width="30" height="30" as="alternateBounds" />
          </mxGeometry>
        </mxCell>
        <mxCell id="pq9HvEjPopNlrJPay7n2-46" value="Phone" style="shape=partialRectangle;connectable=0;fillColor=none;top=0;left=0;bottom=0;right=0;align=left;spacingLeft=6;overflow=hidden;whiteSpace=wrap;html=1;" vertex="1" parent="pq9HvEjPopNlrJPay7n2-44">
          <mxGeometry x="30" width="120" height="30" as="geometry">
            <mxRectangle width="120" height="30" as="alternateBounds" />
          </mxGeometry>
        </mxCell>
        <mxCell id="LA_D0svQ92RpoAtAq2fH-40" value="varchar(20)" style="shape=partialRectangle;connectable=0;fillColor=none;top=0;left=0;bottom=0;right=0;align=left;spacingLeft=6;overflow=hidden;whiteSpace=wrap;html=1;" vertex="1" parent="pq9HvEjPopNlrJPay7n2-44">
          <mxGeometry x="150" width="110" height="30" as="geometry">
            <mxRectangle width="110" height="30" as="alternateBounds" />
          </mxGeometry>
        </mxCell>
        <mxCell id="pq9HvEjPopNlrJPay7n2-47" value="" style="shape=tableRow;horizontal=0;startSize=0;swimlaneHead=0;swimlaneBody=0;fillColor=none;collapsible=0;dropTarget=0;points=[[0,0.5],[1,0.5]];portConstraint=eastwest;top=0;left=0;right=0;bottom=0;" vertex="1" parent="pq9HvEjPopNlrJPay7n2-40">
          <mxGeometry y="90" width="260" height="30" as="geometry" />
        </mxCell>
        <mxCell id="pq9HvEjPopNlrJPay7n2-48" value="" style="shape=partialRectangle;connectable=0;fillColor=none;top=0;left=0;bottom=0;right=0;editable=1;overflow=hidden;whiteSpace=wrap;html=1;" vertex="1" parent="pq9HvEjPopNlrJPay7n2-47">
          <mxGeometry width="30" height="30" as="geometry">
            <mxRectangle width="30" height="30" as="alternateBounds" />
          </mxGeometry>
        </mxCell>
        <mxCell id="pq9HvEjPopNlrJPay7n2-49" value="Email" style="shape=partialRectangle;connectable=0;fillColor=none;top=0;left=0;bottom=0;right=0;align=left;spacingLeft=6;overflow=hidden;whiteSpace=wrap;html=1;" vertex="1" parent="pq9HvEjPopNlrJPay7n2-47">
          <mxGeometry x="30" width="120" height="30" as="geometry">
            <mxRectangle width="120" height="30" as="alternateBounds" />
          </mxGeometry>
        </mxCell>
        <mxCell id="LA_D0svQ92RpoAtAq2fH-41" value="varchar(20)" style="shape=partialRectangle;connectable=0;fillColor=none;top=0;left=0;bottom=0;right=0;align=left;spacingLeft=6;overflow=hidden;whiteSpace=wrap;html=1;" vertex="1" parent="pq9HvEjPopNlrJPay7n2-47">
          <mxGeometry x="150" width="110" height="30" as="geometry">
            <mxRectangle width="110" height="30" as="alternateBounds" />
          </mxGeometry>
        </mxCell>
        <mxCell id="pq9HvEjPopNlrJPay7n2-50" value="" style="shape=tableRow;horizontal=0;startSize=0;swimlaneHead=0;swimlaneBody=0;fillColor=none;collapsible=0;dropTarget=0;points=[[0,0.5],[1,0.5]];portConstraint=eastwest;top=0;left=0;right=0;bottom=0;" vertex="1" parent="pq9HvEjPopNlrJPay7n2-40">
          <mxGeometry y="120" width="260" height="30" as="geometry" />
        </mxCell>
        <mxCell id="pq9HvEjPopNlrJPay7n2-51" value="" style="shape=partialRectangle;connectable=0;fillColor=none;top=0;left=0;bottom=0;right=0;editable=1;overflow=hidden;whiteSpace=wrap;html=1;" vertex="1" parent="pq9HvEjPopNlrJPay7n2-50">
          <mxGeometry width="30" height="30" as="geometry">
            <mxRectangle width="30" height="30" as="alternateBounds" />
          </mxGeometry>
        </mxCell>
        <mxCell id="pq9HvEjPopNlrJPay7n2-52" value="Street" style="shape=partialRectangle;connectable=0;fillColor=none;top=0;left=0;bottom=0;right=0;align=left;spacingLeft=6;overflow=hidden;whiteSpace=wrap;html=1;" vertex="1" parent="pq9HvEjPopNlrJPay7n2-50">
          <mxGeometry x="30" width="120" height="30" as="geometry">
            <mxRectangle width="120" height="30" as="alternateBounds" />
          </mxGeometry>
        </mxCell>
        <mxCell id="LA_D0svQ92RpoAtAq2fH-42" value="varchar(30)" style="shape=partialRectangle;connectable=0;fillColor=none;top=0;left=0;bottom=0;right=0;align=left;spacingLeft=6;overflow=hidden;whiteSpace=wrap;html=1;" vertex="1" parent="pq9HvEjPopNlrJPay7n2-50">
          <mxGeometry x="150" width="110" height="30" as="geometry">
            <mxRectangle width="110" height="30" as="alternateBounds" />
          </mxGeometry>
        </mxCell>
        <mxCell id="LA_D0svQ92RpoAtAq2fH-43" style="shape=tableRow;horizontal=0;startSize=0;swimlaneHead=0;swimlaneBody=0;fillColor=none;collapsible=0;dropTarget=0;points=[[0,0.5],[1,0.5]];portConstraint=eastwest;top=0;left=0;right=0;bottom=0;" vertex="1" parent="pq9HvEjPopNlrJPay7n2-40">
          <mxGeometry y="150" width="260" height="30" as="geometry" />
        </mxCell>
        <mxCell id="LA_D0svQ92RpoAtAq2fH-44" style="shape=partialRectangle;connectable=0;fillColor=none;top=0;left=0;bottom=0;right=0;editable=1;overflow=hidden;whiteSpace=wrap;html=1;" vertex="1" parent="LA_D0svQ92RpoAtAq2fH-43">
          <mxGeometry width="30" height="30" as="geometry">
            <mxRectangle width="30" height="30" as="alternateBounds" />
          </mxGeometry>
        </mxCell>
        <mxCell id="LA_D0svQ92RpoAtAq2fH-45" value="City" style="shape=partialRectangle;connectable=0;fillColor=none;top=0;left=0;bottom=0;right=0;align=left;spacingLeft=6;overflow=hidden;whiteSpace=wrap;html=1;" vertex="1" parent="LA_D0svQ92RpoAtAq2fH-43">
          <mxGeometry x="30" width="120" height="30" as="geometry">
            <mxRectangle width="120" height="30" as="alternateBounds" />
          </mxGeometry>
        </mxCell>
        <mxCell id="LA_D0svQ92RpoAtAq2fH-46" value="varchar(20)" style="shape=partialRectangle;connectable=0;fillColor=none;top=0;left=0;bottom=0;right=0;align=left;spacingLeft=6;overflow=hidden;whiteSpace=wrap;html=1;" vertex="1" parent="LA_D0svQ92RpoAtAq2fH-43">
          <mxGeometry x="150" width="110" height="30" as="geometry">
            <mxRectangle width="110" height="30" as="alternateBounds" />
          </mxGeometry>
        </mxCell>
        <mxCell id="LA_D0svQ92RpoAtAq2fH-47" style="shape=tableRow;horizontal=0;startSize=0;swimlaneHead=0;swimlaneBody=0;fillColor=none;collapsible=0;dropTarget=0;points=[[0,0.5],[1,0.5]];portConstraint=eastwest;top=0;left=0;right=0;bottom=0;" vertex="1" parent="pq9HvEjPopNlrJPay7n2-40">
          <mxGeometry y="180" width="260" height="30" as="geometry" />
        </mxCell>
        <mxCell id="LA_D0svQ92RpoAtAq2fH-48" style="shape=partialRectangle;connectable=0;fillColor=none;top=0;left=0;bottom=0;right=0;editable=1;overflow=hidden;whiteSpace=wrap;html=1;" vertex="1" parent="LA_D0svQ92RpoAtAq2fH-47">
          <mxGeometry width="30" height="30" as="geometry">
            <mxRectangle width="30" height="30" as="alternateBounds" />
          </mxGeometry>
        </mxCell>
        <mxCell id="LA_D0svQ92RpoAtAq2fH-49" value="State" style="shape=partialRectangle;connectable=0;fillColor=none;top=0;left=0;bottom=0;right=0;align=left;spacingLeft=6;overflow=hidden;whiteSpace=wrap;html=1;" vertex="1" parent="LA_D0svQ92RpoAtAq2fH-47">
          <mxGeometry x="30" width="120" height="30" as="geometry">
            <mxRectangle width="120" height="30" as="alternateBounds" />
          </mxGeometry>
        </mxCell>
        <mxCell id="LA_D0svQ92RpoAtAq2fH-50" value="varchar(20)" style="shape=partialRectangle;connectable=0;fillColor=none;top=0;left=0;bottom=0;right=0;align=left;spacingLeft=6;overflow=hidden;whiteSpace=wrap;html=1;" vertex="1" parent="LA_D0svQ92RpoAtAq2fH-47">
          <mxGeometry x="150" width="110" height="30" as="geometry">
            <mxRectangle width="110" height="30" as="alternateBounds" />
          </mxGeometry>
        </mxCell>
        <mxCell id="LA_D0svQ92RpoAtAq2fH-51" style="shape=tableRow;horizontal=0;startSize=0;swimlaneHead=0;swimlaneBody=0;fillColor=none;collapsible=0;dropTarget=0;points=[[0,0.5],[1,0.5]];portConstraint=eastwest;top=0;left=0;right=0;bottom=0;" vertex="1" parent="pq9HvEjPopNlrJPay7n2-40">
          <mxGeometry y="210" width="260" height="30" as="geometry" />
        </mxCell>
        <mxCell id="LA_D0svQ92RpoAtAq2fH-52" style="shape=partialRectangle;connectable=0;fillColor=none;top=0;left=0;bottom=0;right=0;editable=1;overflow=hidden;whiteSpace=wrap;html=1;" vertex="1" parent="LA_D0svQ92RpoAtAq2fH-51">
          <mxGeometry width="30" height="30" as="geometry">
            <mxRectangle width="30" height="30" as="alternateBounds" />
          </mxGeometry>
        </mxCell>
        <mxCell id="LA_D0svQ92RpoAtAq2fH-53" value="Zip" style="shape=partialRectangle;connectable=0;fillColor=none;top=0;left=0;bottom=0;right=0;align=left;spacingLeft=6;overflow=hidden;whiteSpace=wrap;html=1;" vertex="1" parent="LA_D0svQ92RpoAtAq2fH-51">
          <mxGeometry x="30" width="120" height="30" as="geometry">
            <mxRectangle width="120" height="30" as="alternateBounds" />
          </mxGeometry>
        </mxCell>
        <mxCell id="LA_D0svQ92RpoAtAq2fH-54" value="int" style="shape=partialRectangle;connectable=0;fillColor=none;top=0;left=0;bottom=0;right=0;align=left;spacingLeft=6;overflow=hidden;whiteSpace=wrap;html=1;" vertex="1" parent="LA_D0svQ92RpoAtAq2fH-51">
          <mxGeometry x="150" width="110" height="30" as="geometry">
            <mxRectangle width="110" height="30" as="alternateBounds" />
          </mxGeometry>
        </mxCell>
      </root>
    </mxGraphModel>
  </diagram>
</mxfile>
